<svg width="63" height="63" viewBox="0 0 63 63" fill="none" xmlns="http://www.w3.org/2000/svg">
<path d="M25.6016 27.5625C26.3772 27.5625 27.1452 27.4097 27.8618 27.1129C28.5784 26.8161 29.2295 26.381 29.7779 25.8326C30.3264 25.2842 30.7614 24.6331 31.0582 23.9165C31.355 23.1999 31.5078 22.4319 31.5078 21.6562C31.5078 20.8806 31.355 20.1126 31.0582 19.396C30.7614 18.6794 30.3264 18.0283 29.7779 17.4799C29.2295 16.9315 28.5784 16.4964 27.8618 16.1996C27.1452 15.9028 26.3772 15.75 25.6016 15.75C24.0351 15.75 22.5329 16.3723 21.4252 17.4799C20.3176 18.5875 19.6953 20.0898 19.6953 21.6562C19.6953 23.2227 20.3176 24.725 21.4252 25.8326C22.5329 26.9402 24.0351 27.5625 25.6016 27.5625V27.5625Z" fill="black"/>
<path d="M55.125 55.125C55.125 57.2136 54.2953 59.2166 52.8185 60.6935C51.3416 62.1703 49.3386 63 47.25 63H15.75C13.6614 63 11.6584 62.1703 10.1815 60.6935C8.70468 59.2166 7.875 57.2136 7.875 55.125V7.875C7.875 5.78642 8.70468 3.78338 10.1815 2.30653C11.6584 0.829685 13.6614 0 15.75 0L37.4062 0L55.125 17.7188V55.125ZM15.75 3.9375C14.7057 3.9375 13.7042 4.35234 12.9658 5.09077C12.2273 5.82919 11.8125 6.83071 11.8125 7.875V47.25L20.5695 38.493C20.8798 38.1834 21.2846 37.9862 21.7197 37.9327C22.1548 37.8792 22.5953 37.9725 22.9714 38.1977L31.5 43.3125L39.9932 31.4213C40.1594 31.1888 40.3742 30.9954 40.6226 30.8543C40.8711 30.7133 41.1473 30.628 41.432 30.6044C41.7167 30.5808 42.0032 30.6194 42.2715 30.7176C42.5398 30.8159 42.7835 30.9713 42.9857 31.1732L51.1875 39.375V17.7188H43.3125C41.7461 17.7188 40.2438 17.0965 39.1361 15.9889C38.0285 14.8812 37.4063 13.3789 37.4062 11.8125V3.9375H15.75Z" fill="black"/>
</svg>
