<svg width="186" height="173" viewBox="0 0 186 173" fill="none" xmlns="http://www.w3.org/2000/svg">
<g opacity="0.04">
<g clip-path="url(#clip0_35_1251)">
<rect width="150" height="111" transform="translate(56.9517) rotate(30.8691)" fill="white"/>
<rect width="62" height="40" transform="translate(110.553 56.5059) rotate(30.8691)" fill="black"/>
<rect width="45" height="5" transform="translate(57.3354 24.6953) rotate(30.8691)" fill="black"/>
<rect width="45" height="5" transform="translate(53.2307 31.562) rotate(30.8691)" fill="black"/>
<rect width="45" height="5" transform="translate(49.1262 38.4287) rotate(30.8691)" fill="black"/>
<rect width="45" height="5" transform="translate(45.0215 45.2954) rotate(30.8691)" fill="black"/>
<rect width="18" height="5" transform="translate(29.6292 71.0454) rotate(30.8691)" fill="black"/>
<rect width="18" height="5" transform="translate(25.5247 77.9126) rotate(30.8691)" fill="black"/>
<rect width="14" height="5" transform="translate(39.3777 54.7373) rotate(30.8691)" fill="black"/>
<rect width="14" height="5" transform="translate(54.8279 63.9727) rotate(30.8691)" fill="black"/>
<rect width="14" height="2" transform="translate(65.5447 10.9619) rotate(30.8691)" fill="black"/>
<rect width="7" height="2" transform="translate(139.707 56.458) rotate(30.8691)" fill="black"/>
<rect width="7" height="2" transform="translate(147.432 61.0757) rotate(30.8691)" fill="black"/>
<rect width="7" height="2" transform="translate(155.157 65.6934) rotate(30.8691)" fill="black"/>
<rect width="36" height="13" transform="translate(21.4199 84.7793) rotate(30.8691)" fill="black"/>
<rect width="37" height="13" transform="translate(62.6204 109.407) rotate(30.8691)" fill="black"/>
<rect width="14" height="13" transform="translate(48.5127 82.3335) rotate(30.8691)" fill="black"/>
<rect width="14" height="13" transform="translate(70.8296 95.6733) rotate(30.8691)" fill="black"/>
<rect width="14" height="13" transform="translate(90.5715 107.474) rotate(30.8691)" fill="black"/>
<rect width="31" height="29" transform="translate(109.455 118.762) rotate(30.8691)" fill="black"/>
</g>
</g>
<defs>
<clipPath id="clip0_35_1251">
<rect width="150" height="111" fill="white" transform="translate(56.9517) rotate(30.8691)"/>
</clipPath>
</defs>
</svg>
