<svg width="650" height="650" viewBox="0 0 650 650" fill="none" xmlns="http://www.w3.org/2000/svg">
<path d="M324.987 223.358C304.9 223.358 285.264 229.315 268.562 240.475C251.86 251.635 238.843 267.496 231.156 286.055C223.468 304.613 221.457 325.034 225.376 344.735C229.295 364.436 238.968 382.533 253.171 396.736C267.375 410.94 285.472 420.613 305.173 424.532C324.874 428.451 345.295 426.439 363.853 418.752C382.411 411.065 398.273 398.048 409.433 381.346C420.593 364.644 426.549 345.008 426.549 324.921C426.469 298.01 415.743 272.223 396.714 253.194C377.684 234.165 351.898 223.439 324.987 223.358ZM544.26 324.921C544.208 334.411 543.512 343.886 542.178 353.282L603.992 401.677C606.684 403.9 608.498 407.008 609.11 410.445C609.721 413.882 609.091 417.425 607.331 420.44L548.856 521.394C547.078 524.382 544.304 526.648 541.021 527.793C537.737 528.938 534.155 528.888 530.905 527.652L458.224 498.453C443.09 510.107 426.528 519.779 408.941 527.233L398.074 604.396C397.466 607.852 395.676 610.99 393.011 613.273C390.346 615.556 386.97 616.843 383.462 616.913H266.512C263.068 616.846 259.747 615.613 257.093 613.416C254.439 611.218 252.609 608.186 251.9 604.814L241.033 527.652C223.397 520.284 206.824 510.597 191.75 498.847L119.069 528.046C115.82 529.283 112.239 529.334 108.956 528.192C105.673 527.049 102.897 524.786 101.118 521.8L42.6433 420.859C40.8832 417.844 40.2527 414.301 40.8643 410.864C41.476 407.427 43.29 404.319 45.9822 402.096L107.796 353.701C106.477 344.163 105.782 334.549 105.714 324.921C105.766 315.431 106.462 305.956 107.796 296.56L45.9822 248.165C43.29 245.942 41.476 242.834 40.8643 239.397C40.2527 235.959 40.8832 232.417 42.6433 229.401L101.118 128.448C102.896 125.46 105.67 123.194 108.953 122.049C112.237 120.904 115.819 120.954 119.069 122.189L191.75 151.389C206.884 139.735 223.446 130.063 241.033 122.608L251.9 45.4463C252.508 41.99 254.298 38.8522 256.963 36.569C259.628 34.2859 263.004 32.9992 266.512 32.9287H383.462C386.906 32.9958 390.227 34.2286 392.881 36.426C395.535 38.6233 397.365 41.6555 398.074 45.0273L408.941 122.189C426.599 129.552 443.194 139.24 458.288 150.995L530.905 121.796C534.154 120.559 537.735 120.508 541.018 121.65C544.301 122.792 547.077 125.056 548.856 128.042L607.331 228.995C609.091 232.01 609.721 235.553 609.11 238.991C608.498 242.428 606.684 245.536 603.992 247.759L542.178 296.153C543.496 305.687 544.192 315.297 544.26 324.921Z" fill="#111111"/>
</svg>
