<svg width="336" height="393" viewBox="0 0 336 393" fill="none" xmlns="http://www.w3.org/2000/svg">
<g opacity="0.51">
<path d="M91.211 86.5284L93.2462 87.7034L92.7862 88.5001L89.7638 86.7551L93.2388 80.7363L94.226 81.3063L91.211 86.5284ZM95.6366 90.2498C95.1863 89.9898 94.8376 89.6537 94.5905 89.2416C94.3468 88.8238 94.2277 88.3701 94.2332 87.8806C94.242 87.3853 94.3881 86.8923 94.6714 86.4016C94.9514 85.9166 95.3066 85.5481 95.7368 85.2962C96.1671 85.0443 96.6254 84.9239 97.1115 84.9352C97.5977 84.9464 98.0688 85.0837 98.5249 85.3471C98.981 85.6104 99.3355 85.9498 99.5884 86.3652C99.8412 86.7806 99.9661 87.2376 99.963 87.7362C99.96 88.2348 99.8185 88.7266 99.5385 89.2116C99.2585 89.6966 98.9004 90.0633 98.4644 90.312C98.0283 90.5606 97.5598 90.6788 97.0587 90.6666C96.5668 90.652 96.0927 90.5131 95.6366 90.2498ZM96.1316 89.3924C96.3857 89.5391 96.6574 89.6151 96.9468 89.6205C97.2419 89.6293 97.5288 89.5524 97.8074 89.3899C98.0859 89.2274 98.3252 88.973 98.5252 88.6266C98.7252 88.2802 98.8272 87.9503 98.831 87.6369C98.8382 87.3177 98.7672 87.0342 98.6178 86.7863C98.4684 86.5384 98.2667 86.3411 98.0126 86.1944C97.7586 86.0478 97.4869 85.9717 97.1975 85.9663C96.9139 85.9642 96.6385 86.0477 96.3715 86.2169C96.1078 86.3803 95.876 86.6352 95.676 86.9816C95.3793 87.4954 95.2792 87.9688 95.3757 88.4017C95.4813 88.8322 95.7333 89.1624 96.1316 89.3924ZM102.477 88.6563C102.761 88.4972 103.06 88.4195 103.373 88.4234C103.696 88.4248 104.022 88.5205 104.351 88.7105L103.761 89.7325L103.51 89.5875C103.123 89.3641 102.772 89.2923 102.456 89.3719C102.147 89.4549 101.852 89.7388 101.572 90.2238L100.122 92.7353L99.1344 92.1653L101.889 87.3935L102.877 87.9635L102.477 88.6563ZM108.277 94.1064C108.173 94.2854 108.068 94.4404 107.962 94.5714L104.316 92.4664C104.125 92.8641 104.09 93.2518 104.21 93.6294C104.331 94.007 104.576 94.3025 104.946 94.5158C105.477 94.8225 105.98 94.8168 106.456 94.499L107.522 95.114C107.124 95.4694 106.653 95.6786 106.109 95.7415C105.573 95.8019 105.026 95.6705 104.466 95.3472C104.01 95.0838 103.658 94.7461 103.411 94.3341C103.173 93.9196 103.057 93.4675 103.062 92.978C103.077 92.4861 103.226 91.9947 103.509 91.504C103.792 91.0133 104.139 90.6398 104.549 90.3836C104.967 90.125 105.414 89.998 105.889 90.0026C106.369 90.0105 106.843 90.1495 107.311 90.4195C107.761 90.6795 108.106 91.0093 108.344 91.4089C108.583 91.8086 108.698 92.244 108.687 92.7153C108.68 93.1808 108.543 93.6445 108.277 94.1064ZM107.426 93.1996C107.63 92.8326 107.669 92.466 107.541 92.1C107.414 91.7339 107.163 91.4425 106.787 91.2259C106.447 91.0292 106.092 90.9706 105.723 91.05C105.357 91.1236 105.044 91.3318 104.785 91.6746L107.426 93.1996ZM116.38 95.6554C116.755 95.8721 117.045 96.1434 117.249 96.4693C117.459 96.7985 117.56 97.1644 117.551 97.5671C117.547 97.9731 117.42 98.3926 117.17 98.8256L115.545 101.64L114.567 101.075L116.107 98.4078C116.353 97.9806 116.435 97.5927 116.351 97.2442C116.271 96.8899 116.046 96.6061 115.677 96.3928C115.307 96.1795 114.946 96.1249 114.593 96.2292C114.25 96.331 113.955 96.5956 113.708 97.0228L112.168 99.6902L111.189 99.1252L112.729 96.4578C112.976 96.0306 113.058 95.6427 112.974 95.2942C112.894 94.9399 112.669 94.6561 112.299 94.4428C111.93 94.2295 111.569 94.1749 111.216 94.2792C110.872 94.381 110.577 94.6456 110.33 95.0728L108.79 97.7402L107.803 97.1702L110.558 92.3984L111.545 92.9684L111.23 93.514C111.505 93.411 111.799 93.3763 112.11 93.41C112.422 93.4436 112.719 93.5421 113.002 93.7054C113.383 93.9254 113.677 94.2029 113.884 94.5379C114.091 94.8729 114.187 95.2401 114.172 95.6394C114.483 95.4341 114.84 95.336 115.242 95.3452C115.648 95.3487 116.027 95.4521 116.38 95.6554ZM122.674 98.5503C122.495 98.447 122.38 98.2997 122.328 98.1084C122.277 97.9172 122.303 97.7321 122.406 97.5531C122.51 97.3741 122.657 97.259 122.848 97.2078C123.04 97.1565 123.225 97.1826 123.404 97.2859C123.577 97.3859 123.689 97.5315 123.74 97.7228C123.792 97.914 123.766 98.0991 123.662 98.2781C123.559 98.4571 123.412 98.5722 123.22 98.6234C123.029 98.6747 122.847 98.6503 122.674 98.5503ZM122.794 99.4625L120.039 104.234L119.051 103.664L121.806 98.8925L122.794 99.4625ZM124.672 101.482C124.966 101.36 125.301 101.307 125.676 101.323C126.052 101.34 126.421 101.453 126.785 101.663C127.201 101.903 127.519 102.225 127.739 102.63C127.969 103.032 128.075 103.474 128.058 103.957C128.041 104.44 127.895 104.921 127.618 105.4C127.341 105.879 126.995 106.253 126.578 106.52C126.165 106.782 125.724 106.92 125.254 106.934C124.794 106.945 124.356 106.831 123.94 106.591C123.576 106.381 123.294 106.122 123.095 105.814C122.899 105.501 122.774 105.183 122.722 104.86L121.012 107.822L120.025 107.252L124.09 100.211L125.077 100.781L124.672 101.482ZM126.613 104.82C126.803 104.491 126.897 104.168 126.895 103.851C126.903 103.532 126.829 103.247 126.673 102.996C126.527 102.742 126.327 102.542 126.073 102.395C125.825 102.252 125.552 102.179 125.253 102.176C124.96 102.176 124.675 102.258 124.396 102.42C124.123 102.586 123.892 102.833 123.702 103.162C123.512 103.492 123.412 103.819 123.401 104.143C123.4 104.466 123.472 104.754 123.618 105.008C123.77 105.265 123.97 105.465 124.218 105.608C124.472 105.755 124.746 105.828 125.038 105.828C125.34 105.825 125.629 105.738 125.905 105.566C126.187 105.398 126.423 105.149 126.613 104.82ZM128.891 109.449C128.516 109.233 128.217 108.971 127.993 108.665C127.779 108.357 127.651 108.037 127.611 107.706C127.575 107.369 127.634 107.053 127.789 106.758L128.811 107.348C128.712 107.56 128.709 107.785 128.802 108.024C128.904 108.26 129.088 108.455 129.354 108.608C129.631 108.768 129.875 108.839 130.085 108.822C130.304 108.802 130.462 108.709 130.559 108.541C130.662 108.362 130.652 108.18 130.529 107.993C130.411 107.81 130.198 107.559 129.888 107.242C129.587 106.937 129.351 106.674 129.179 106.451C129.007 106.229 128.892 105.974 128.835 105.687C128.783 105.403 128.847 105.105 129.027 104.794C129.174 104.54 129.382 104.352 129.652 104.231C129.926 104.104 130.236 104.06 130.583 104.098C130.936 104.141 131.295 104.267 131.658 104.477C132.201 104.79 132.557 105.18 132.726 105.647C132.904 106.112 132.868 106.588 132.618 107.074L131.631 106.504C131.737 106.281 131.748 106.061 131.666 105.844C131.583 105.626 131.409 105.441 131.144 105.288C130.884 105.138 130.656 105.072 130.461 105.09C130.266 105.108 130.122 105.198 130.028 105.36C129.955 105.487 129.939 105.62 129.982 105.76C130.024 105.9 130.097 106.035 130.2 106.163C130.306 106.286 130.467 106.46 130.683 106.685C130.977 106.977 131.204 107.236 131.367 107.461C131.539 107.683 131.652 107.933 131.707 108.212C131.762 108.49 131.704 108.783 131.534 109.093C131.377 109.364 131.162 109.563 130.888 109.69C130.615 109.817 130.305 109.861 129.957 109.822C129.616 109.787 129.261 109.663 128.891 109.449ZM138.907 108.765L136.152 113.537L135.164 112.967L135.489 112.404C135.22 112.511 134.925 112.548 134.605 112.517C134.293 112.483 133.996 112.385 133.713 112.222C133.338 112.005 133.045 111.732 132.835 111.403C132.63 111.077 132.53 110.711 132.533 110.305C132.542 109.902 132.672 109.484 132.922 109.051L134.542 106.245L135.521 106.81L133.986 109.469C133.739 109.896 133.656 110.287 133.736 110.641C133.82 110.99 134.046 111.271 134.416 111.484C134.785 111.697 135.142 111.753 135.485 111.651C135.838 111.547 136.138 111.281 136.384 110.854L137.919 108.195L138.907 108.765ZM146.031 112.775C146.406 112.991 146.696 113.263 146.9 113.588C147.111 113.918 147.211 114.284 147.202 114.686C147.198 115.092 147.072 115.512 146.822 115.945L145.197 118.759L144.218 118.194L145.758 115.527C146.005 115.1 146.086 114.712 146.003 114.363C145.922 114.009 145.697 113.725 145.328 113.512C144.958 113.299 144.597 113.244 144.245 113.348C143.901 113.45 143.606 113.715 143.359 114.142L141.819 116.809L140.841 116.244L142.381 113.577C142.627 113.15 142.709 112.762 142.625 112.413C142.545 112.059 142.32 111.775 141.95 111.562C141.581 111.349 141.22 111.294 140.867 111.398C140.523 111.5 140.228 111.765 139.982 112.192L138.442 114.859L137.454 114.289L140.209 109.518L141.197 110.088L140.882 110.633C141.157 110.53 141.45 110.495 141.762 110.529C142.073 110.563 142.37 110.661 142.653 110.825C143.034 111.045 143.328 111.322 143.535 111.657C143.742 111.992 143.838 112.359 143.823 112.759C144.134 112.553 144.491 112.455 144.893 112.464C145.299 112.468 145.679 112.571 146.031 112.775ZM149.763 118.186C150.04 117.707 150.383 117.339 150.793 117.083C151.208 116.83 151.645 116.701 152.102 116.695C152.568 116.688 153.012 116.805 153.434 117.049C153.746 117.229 154.012 117.475 154.232 117.787C154.461 118.096 154.6 118.415 154.649 118.743L155.979 116.44L156.975 117.015L153.275 123.423L152.279 122.848L152.694 122.13C152.399 122.267 152.064 122.328 151.689 122.311C151.319 122.298 150.95 122.185 150.58 121.971C150.164 121.731 149.843 121.407 149.617 121C149.4 120.589 149.298 120.138 149.313 119.646C149.337 119.152 149.487 118.665 149.763 118.186ZM153.659 120.458C153.849 120.129 153.945 119.803 153.946 119.481C153.954 119.162 153.884 118.875 153.738 118.622C153.592 118.368 153.392 118.168 153.138 118.021C152.884 117.874 152.611 117.801 152.318 117.802C152.028 117.796 151.744 117.875 151.466 118.037C151.196 118.197 150.967 118.442 150.777 118.771C150.587 119.1 150.486 119.427 150.476 119.752C150.471 120.08 150.54 120.374 150.683 120.634C150.835 120.891 151.035 121.091 151.283 121.234C151.537 121.381 151.81 121.454 152.103 121.454C152.396 121.453 152.679 121.37 152.951 121.204C153.233 121.036 153.469 120.787 153.659 120.458ZM156.597 125.445C156.146 125.185 155.798 124.849 155.551 124.437C155.307 124.019 155.188 123.565 155.193 123.076C155.202 122.581 155.348 122.088 155.631 121.597C155.911 121.112 156.267 120.743 156.697 120.492C157.127 120.24 157.585 120.119 158.072 120.13C158.558 120.142 159.029 120.279 159.485 120.542C159.941 120.806 160.296 121.145 160.548 121.56C160.801 121.976 160.926 122.433 160.923 122.932C160.92 123.43 160.779 123.922 160.499 124.407C160.219 124.892 159.861 125.259 159.424 125.507C158.988 125.756 158.52 125.874 158.019 125.862C157.527 125.847 157.053 125.708 156.597 125.445ZM157.092 124.588C157.346 124.734 157.617 124.81 157.907 124.816C158.202 124.825 158.489 124.748 158.767 124.585C159.046 124.423 159.285 124.168 159.485 123.822C159.685 123.475 159.787 123.146 159.791 122.832C159.798 122.513 159.727 122.23 159.578 121.982C159.428 121.734 159.227 121.536 158.973 121.39C158.719 121.243 158.447 121.167 158.158 121.162C157.874 121.16 157.599 121.243 157.332 121.412C157.068 121.576 156.836 121.83 156.636 122.177C156.339 122.691 156.239 123.164 156.336 123.597C156.441 124.027 156.693 124.358 157.092 124.588ZM164.782 121.522L161.082 127.931L160.095 127.361L163.795 120.952L164.782 121.522ZM164.403 129.952C163.952 129.692 163.604 129.356 163.357 128.944C163.113 128.526 162.994 128.072 162.999 127.583C163.008 127.087 163.154 126.594 163.438 126.104C163.718 125.619 164.073 125.25 164.503 124.998C164.933 124.746 165.391 124.626 165.878 124.637C166.364 124.649 166.835 124.786 167.291 125.049C167.747 125.313 168.102 125.652 168.354 126.067C168.607 126.483 168.732 126.94 168.729 127.438C168.726 127.937 168.585 128.429 168.305 128.914C168.025 129.399 167.667 129.765 167.231 130.014C166.794 130.263 166.326 130.381 165.825 130.369C165.333 130.354 164.859 130.215 164.403 129.952ZM164.898 129.095C165.152 129.241 165.424 129.317 165.713 129.323C166.008 129.331 166.295 129.255 166.574 129.092C166.852 128.93 167.091 128.675 167.291 128.329C167.491 127.982 167.593 127.652 167.597 127.339C167.604 127.02 167.533 126.736 167.384 126.488C167.235 126.241 167.033 126.043 166.779 125.897C166.525 125.75 166.253 125.674 165.964 125.668C165.68 125.666 165.405 125.75 165.138 125.919C164.874 126.082 164.642 126.337 164.442 126.684C164.145 127.198 164.045 127.671 164.142 128.104C164.247 128.534 164.499 128.865 164.898 129.095ZM171.243 128.358C171.527 128.199 171.826 128.122 172.139 128.126C172.462 128.127 172.788 128.223 173.117 128.413L172.527 129.435L172.276 129.29C171.889 129.066 171.538 128.994 171.222 129.074C170.913 129.157 170.618 129.441 170.338 129.926L168.888 132.437L167.901 131.867L170.656 127.096L171.643 127.666L171.243 128.358ZM175.161 136.163C174.786 135.946 174.486 135.685 174.263 135.379C174.048 135.07 173.921 134.751 173.881 134.42C173.845 134.083 173.904 133.767 174.059 133.472L175.081 134.062C174.982 134.274 174.979 134.499 175.072 134.738C175.174 134.974 175.358 135.168 175.624 135.322C175.901 135.482 176.144 135.553 176.355 135.536C176.574 135.516 176.732 135.423 176.828 135.255C176.932 135.076 176.922 134.893 176.799 134.707C176.681 134.524 176.468 134.273 176.158 133.956C175.857 133.651 175.62 133.388 175.448 133.165C175.277 132.943 175.162 132.688 175.105 132.401C175.053 132.117 175.117 131.819 175.297 131.507C175.444 131.253 175.652 131.066 175.922 130.945C176.196 130.818 176.506 130.774 176.853 130.812C177.206 130.854 177.564 130.98 177.928 131.19C178.471 131.504 178.827 131.894 178.996 132.361C179.174 132.826 179.138 133.302 178.888 133.788L177.9 133.218C178.006 132.995 178.018 132.774 177.936 132.557C177.853 132.34 177.679 132.155 177.413 132.002C177.154 131.852 176.926 131.786 176.731 131.804C176.536 131.822 176.391 131.912 176.298 132.074C176.225 132.201 176.209 132.334 176.252 132.474C176.294 132.614 176.367 132.748 176.469 132.877C176.575 133 176.737 133.174 176.953 133.399C177.246 133.691 177.474 133.95 177.637 134.175C177.809 134.397 177.922 134.647 177.977 134.925C178.032 135.203 177.974 135.497 177.803 135.807C177.647 136.078 177.432 136.277 177.158 136.404C176.885 136.531 176.574 136.575 176.227 136.536C175.886 136.501 175.53 136.376 175.161 136.163ZM181.722 132.642C181.543 132.539 181.428 132.391 181.377 132.2C181.326 132.009 181.352 131.824 181.455 131.645C181.558 131.466 181.706 131.351 181.897 131.3C182.088 131.248 182.273 131.274 182.452 131.378C182.626 131.478 182.738 131.623 182.789 131.815C182.84 132.006 182.814 132.191 182.711 132.37C182.608 132.549 182.46 132.664 182.269 132.715C182.078 132.766 181.896 132.742 181.722 132.642ZM181.842 133.554L179.087 138.326L178.1 137.756L180.855 132.984L181.842 133.554ZM183.825 135.773L182.3 138.414C182.197 138.593 182.162 138.747 182.197 138.874C182.24 138.999 182.363 139.12 182.565 139.237L183.171 139.587L182.696 140.409L181.916 139.959C181.472 139.703 181.191 139.402 181.074 139.058C180.958 138.713 181.034 138.307 181.304 137.839L182.829 135.198L182.266 134.873L182.731 134.068L183.294 134.393L183.979 133.206L184.975 133.781L184.29 134.968L185.451 135.638L184.986 136.443L183.825 135.773ZM186.916 139.636C187.193 139.157 187.536 138.789 187.946 138.533C188.361 138.28 188.798 138.151 189.255 138.146C189.721 138.138 190.162 138.254 190.578 138.494C190.953 138.711 191.236 138.974 191.427 139.284C191.626 139.592 191.746 139.904 191.787 140.22L192.187 139.527L193.183 140.102L190.428 144.874L189.432 144.299L189.842 143.589C189.545 143.717 189.208 143.773 188.833 143.756C188.458 143.74 188.085 143.625 187.716 143.412C187.306 143.175 186.99 142.854 186.77 142.45C186.553 142.04 186.451 141.588 186.466 141.096C186.489 140.602 186.64 140.115 186.916 139.636ZM190.812 141.908C191.002 141.579 191.098 141.254 191.099 140.931C191.106 140.612 191.037 140.325 190.891 140.072C190.745 139.818 190.545 139.618 190.291 139.471C190.037 139.325 189.763 139.251 189.471 139.252C189.181 139.246 188.897 139.325 188.619 139.487C188.349 139.647 188.12 139.892 187.93 140.221C187.74 140.55 187.639 140.877 187.629 141.202C187.624 141.53 187.693 141.824 187.836 142.084C187.987 142.341 188.188 142.541 188.436 142.684C188.69 142.831 188.963 142.904 189.256 142.904C189.549 142.903 189.831 142.82 190.104 142.654C190.386 142.486 190.622 142.238 190.812 141.908ZM200.301 144.108C200.676 144.324 200.966 144.596 201.171 144.921C201.381 145.251 201.481 145.617 201.472 146.019C201.469 146.425 201.342 146.845 201.092 147.278L199.467 150.092L198.488 149.527L200.028 146.86C200.275 146.433 200.357 146.045 200.273 145.696C200.193 145.342 199.968 145.058 199.598 144.845C199.229 144.632 198.868 144.577 198.515 144.681C198.171 144.783 197.876 145.048 197.63 145.475L196.09 148.142L195.111 147.577L196.651 144.91C196.898 144.483 196.979 144.095 196.895 143.746C196.815 143.392 196.59 143.108 196.221 142.895C195.851 142.682 195.49 142.627 195.137 142.731C194.794 142.833 194.499 143.098 194.252 143.525L192.712 146.192L191.725 145.622L194.48 140.851L195.467 141.421L195.152 141.966C195.427 141.863 195.72 141.828 196.032 141.862C196.343 141.896 196.641 141.994 196.924 142.158C197.305 142.378 197.599 142.655 197.806 142.99C198.012 143.325 198.108 143.692 198.093 144.092C198.404 143.886 198.761 143.788 199.164 143.797C199.57 143.801 199.949 143.904 200.301 144.108ZM206.542 150.84C206.438 151.019 206.333 151.174 206.227 151.305L202.581 149.2C202.39 149.598 202.355 149.985 202.475 150.363C202.596 150.74 202.841 151.036 203.211 151.249C203.742 151.556 204.246 151.55 204.722 151.232L205.787 151.847C205.389 152.203 204.918 152.412 204.374 152.475C203.838 152.535 203.291 152.404 202.731 152.081C202.275 151.817 201.923 151.48 201.676 151.067C201.438 150.653 201.322 150.201 201.327 149.711C201.342 149.219 201.491 148.728 201.774 148.237C202.058 147.747 202.404 147.373 202.814 147.117C203.232 146.858 203.679 146.731 204.154 146.736C204.634 146.744 205.108 146.883 205.576 147.153C206.026 147.413 206.371 147.743 206.61 148.142C206.848 148.542 206.963 148.977 206.952 149.449C206.945 149.914 206.808 150.378 206.542 150.84ZM205.691 149.933C205.895 149.566 205.934 149.199 205.806 148.833C205.679 148.467 205.428 148.176 205.052 147.959C204.712 147.763 204.357 147.704 203.988 147.783C203.622 147.857 203.309 148.065 203.05 148.408L205.691 149.933ZM209.51 150.602L207.985 153.244C207.882 153.423 207.847 153.576 207.881 153.703C207.925 153.828 208.047 153.949 208.249 154.066L208.856 154.416L208.381 155.239L207.601 154.789C207.157 154.532 206.876 154.231 206.759 153.887C206.643 153.542 206.719 153.136 206.989 152.669L208.514 150.027L207.951 149.702L208.416 148.897L208.979 149.222L209.664 148.035L210.66 148.61L209.975 149.797L211.136 150.467L210.671 151.272L209.51 150.602ZM212.591 154.483C212.874 153.992 213.221 153.618 213.63 153.362C214.049 153.104 214.493 152.975 214.962 152.976C215.431 152.977 215.893 153.11 216.349 153.373C216.927 153.706 217.323 154.12 217.538 154.614C217.763 155.105 217.795 155.643 217.634 156.228L216.569 155.613C216.619 155.326 216.587 155.061 216.473 154.819C216.359 154.576 216.158 154.371 215.869 154.204C215.465 153.971 215.059 153.929 214.649 154.077C214.249 154.224 213.901 154.554 213.604 155.068C213.308 155.581 213.194 156.051 213.264 156.476C213.34 156.905 213.58 157.236 213.984 157.469C214.556 157.799 215.079 157.766 215.554 157.371L216.619 157.986C216.2 158.391 215.717 158.628 215.17 158.696C214.625 158.759 214.07 158.627 213.504 158.301C213.048 158.037 212.702 157.703 212.467 157.298C212.235 156.886 212.124 156.438 212.135 155.952C212.156 155.463 212.308 154.973 212.591 154.483ZM218.758 161.334C218.307 161.074 217.959 160.738 217.712 160.326C217.468 159.908 217.349 159.454 217.354 158.965C217.363 158.469 217.509 157.976 217.792 157.486C218.072 157.001 218.428 156.632 218.858 156.38C219.288 156.128 219.746 156.008 220.233 156.019C220.719 156.03 221.19 156.168 221.646 156.431C222.102 156.694 222.457 157.034 222.709 157.449C222.962 157.865 223.087 158.322 223.084 158.82C223.081 159.319 222.94 159.811 222.66 160.296C222.38 160.781 222.022 161.147 221.585 161.396C221.149 161.645 220.681 161.763 220.18 161.751C219.688 161.736 219.214 161.597 218.758 161.334ZM219.253 160.476C219.507 160.623 219.778 160.699 220.068 160.705C220.363 160.713 220.65 160.636 220.928 160.474C221.207 160.311 221.446 160.057 221.646 159.711C221.846 159.364 221.948 159.034 221.952 158.721C221.959 158.402 221.888 158.118 221.739 157.87C221.589 157.622 221.388 157.425 221.134 157.278C220.88 157.132 220.608 157.056 220.319 157.05C220.035 157.048 219.76 157.132 219.493 157.301C219.229 157.464 218.997 157.719 218.797 158.066C218.5 158.579 218.4 159.053 218.497 159.486C218.602 159.916 218.854 160.246 219.253 160.476ZM227.463 159.79C227.838 160.006 228.128 160.277 228.333 160.603C228.543 160.933 228.643 161.299 228.634 161.701C228.625 162.104 228.495 162.522 228.245 162.955L226.62 165.769L225.642 165.204L227.182 162.537C227.428 162.11 227.51 161.722 227.426 161.373C227.346 161.019 227.121 160.735 226.752 160.522C226.382 160.309 226.021 160.254 225.668 160.358C225.325 160.46 225.029 160.725 224.783 161.152L223.243 163.819L222.256 163.249L225.011 158.477L225.998 159.047L225.683 159.593C225.958 159.49 226.251 159.455 226.563 159.489C226.88 159.526 227.18 159.626 227.463 159.79ZM229.567 167.574C229.191 167.358 228.892 167.096 228.668 166.79C228.454 166.482 228.327 166.162 228.287 165.831C228.25 165.494 228.31 165.178 228.465 164.883L229.487 165.473C229.387 165.685 229.384 165.91 229.477 166.149C229.58 166.385 229.764 166.58 230.029 166.733C230.306 166.893 230.55 166.964 230.76 166.947C230.979 166.927 231.137 166.834 231.234 166.666C231.337 166.487 231.327 166.305 231.204 166.118C231.087 165.935 230.873 165.684 230.564 165.367C230.263 165.062 230.026 164.799 229.854 164.576C229.682 164.354 229.568 164.099 229.51 163.812C229.459 163.528 229.523 163.23 229.703 162.919C229.849 162.665 230.058 162.477 230.328 162.356C230.601 162.229 230.912 162.185 231.259 162.223C231.612 162.266 231.97 162.392 232.334 162.602C232.876 162.915 233.232 163.305 233.401 163.772C233.58 164.237 233.544 164.713 233.293 165.199L232.306 164.629C232.412 164.406 232.424 164.186 232.341 163.969C232.259 163.751 232.085 163.566 231.819 163.413C231.559 163.263 231.332 163.197 231.137 163.215C230.941 163.233 230.797 163.323 230.704 163.485C230.63 163.612 230.615 163.745 230.657 163.885C230.7 164.025 230.772 164.16 230.875 164.288C230.981 164.411 231.142 164.585 231.359 164.81C231.652 165.102 231.88 165.361 232.043 165.586C232.214 165.808 232.328 166.058 232.383 166.337C232.438 166.615 232.38 166.908 232.209 167.218C232.052 167.489 231.837 167.688 231.564 167.815C231.29 167.942 230.98 167.986 230.633 167.947C230.292 167.912 229.936 167.788 229.567 167.574ZM238.324 169.189C238.221 169.368 238.116 169.523 238.01 169.654L234.364 167.549C234.172 167.947 234.137 168.335 234.258 168.712C234.379 169.09 234.624 169.385 234.993 169.599C235.524 169.905 236.028 169.9 236.504 169.582L237.569 170.197C237.172 170.552 236.701 170.762 236.156 170.824C235.621 170.885 235.073 170.754 234.513 170.43C234.057 170.167 233.706 169.829 233.458 169.417C233.221 169.003 233.104 168.551 233.11 168.061C233.124 167.569 233.273 167.078 233.557 166.587C233.84 166.096 234.186 165.723 234.596 165.467C235.015 165.208 235.462 165.081 235.936 165.086C236.417 165.094 236.891 165.232 237.358 165.502C237.809 165.762 238.153 166.092 238.392 166.492C238.631 166.892 238.745 167.327 238.735 167.798C238.728 168.264 238.591 168.728 238.324 169.189ZM237.474 168.283C237.678 167.916 237.716 167.549 237.589 167.183C237.462 166.817 237.21 166.526 236.835 166.309C236.494 166.112 236.139 166.054 235.77 166.133C235.404 166.207 235.092 166.415 234.832 166.758L237.474 168.283ZM238.902 169.673C239.185 169.182 239.531 168.809 239.941 168.553C240.36 168.294 240.804 168.165 241.272 168.167C241.741 168.168 242.204 168.3 242.66 168.563C243.237 168.897 243.634 169.31 243.849 169.804C244.073 170.295 244.105 170.834 243.945 171.418L242.879 170.803C242.929 170.517 242.898 170.252 242.784 170.009C242.67 169.766 242.469 169.561 242.18 169.395C241.776 169.161 241.369 169.119 240.96 169.268C240.56 169.414 240.212 169.744 239.915 170.258C239.618 170.772 239.505 171.241 239.575 171.667C239.651 172.095 239.891 172.426 240.295 172.66C240.866 172.99 241.39 172.957 241.864 172.561L242.93 173.176C242.511 173.581 242.028 173.818 241.48 173.887C240.936 173.95 240.381 173.818 239.815 173.491C239.359 173.228 239.013 172.893 238.777 172.488C238.545 172.077 238.435 171.628 238.446 171.142C238.466 170.653 238.618 170.164 238.902 169.673ZM246.485 171.95L244.96 174.591C244.857 174.77 244.822 174.923 244.857 175.051C244.9 175.176 245.023 175.297 245.225 175.414L245.831 175.764L245.356 176.586L244.576 176.136C244.132 175.88 243.851 175.579 243.734 175.234C243.618 174.89 243.694 174.484 243.964 174.016L245.489 171.375L244.926 171.05L245.391 170.244L245.954 170.569L246.639 169.383L247.635 169.958L246.95 171.144L248.111 171.814L247.646 172.62L246.485 171.95ZM252.084 177.134C251.981 177.313 251.876 177.468 251.77 177.599L248.124 175.494C247.932 175.891 247.897 176.279 248.018 176.657C248.139 177.034 248.384 177.33 248.753 177.543C249.284 177.85 249.788 177.844 250.264 177.526L251.329 178.141C250.932 178.497 250.461 178.706 249.916 178.769C249.381 178.829 248.833 178.698 248.273 178.375C247.817 178.111 247.466 177.773 247.218 177.361C246.98 176.947 246.864 176.495 246.87 176.005C246.884 175.513 247.033 175.022 247.317 174.531C247.6 174.041 247.946 173.667 248.356 173.411C248.775 173.152 249.222 173.025 249.696 173.03C250.177 173.038 250.651 173.177 251.118 173.447C251.569 173.707 251.913 174.037 252.152 174.436C252.391 174.836 252.505 175.271 252.495 175.743C252.488 176.208 252.351 176.672 252.084 177.134ZM251.234 176.227C251.438 175.86 251.476 175.493 251.349 175.127C251.222 174.761 250.97 174.47 250.595 174.253C250.254 174.057 249.899 173.998 249.53 174.077C249.164 174.151 248.852 174.359 248.592 174.702L251.234 176.227ZM255.053 176.896L253.528 179.537C253.424 179.716 253.39 179.87 253.424 179.997C253.467 180.122 253.59 180.243 253.792 180.36L254.398 180.71L253.923 181.533L253.144 181.083C252.699 180.826 252.418 180.525 252.302 180.181C252.185 179.836 252.262 179.43 252.532 178.962L254.057 176.321L253.494 175.996L253.959 175.191L254.522 175.516L255.207 174.329L256.203 174.904L255.518 176.091L256.678 176.761L256.213 177.566L255.053 176.896ZM261.909 179.781L259.154 184.553L258.167 183.983L258.492 183.42C258.223 183.526 257.928 183.564 257.607 183.533C257.296 183.499 256.998 183.4 256.716 183.237C256.34 183.02 256.048 182.748 255.837 182.418C255.633 182.092 255.532 181.726 255.536 181.32C255.545 180.918 255.675 180.5 255.925 180.067L257.545 177.261L258.523 177.826L256.988 180.485C256.742 180.912 256.658 181.303 256.739 181.657C256.822 182.006 257.049 182.286 257.418 182.5C257.788 182.713 258.144 182.769 258.488 182.667C258.841 182.563 259.14 182.297 259.387 181.87L260.922 179.211L261.909 179.781ZM263.799 181.796C264.084 181.637 264.383 181.559 264.696 181.563C265.018 181.564 265.344 181.66 265.673 181.85L265.083 182.872L264.832 182.727C264.445 182.504 264.094 182.432 263.779 182.512C263.469 182.595 263.174 182.878 262.894 183.363L261.444 185.875L260.457 185.305L263.212 180.533L264.199 181.103L263.799 181.796ZM264.144 187.515C263.965 187.411 263.85 187.264 263.799 187.073C263.748 186.881 263.774 186.696 263.877 186.517C263.98 186.338 264.128 186.223 264.319 186.172C264.51 186.121 264.695 186.147 264.874 186.25C265.047 186.35 265.16 186.496 265.211 186.687C265.262 186.878 265.236 187.063 265.133 187.242C265.029 187.421 264.882 187.536 264.691 187.588C264.5 187.639 264.317 187.615 264.144 187.515ZM92.0781 97.3866L88.6031 103.406L87.6158 102.836L89.9958 98.7132L85.7798 101.776L85.0957 101.381L85.631 96.1932L83.251 100.316L82.2638 99.7455L85.7388 93.7266L86.804 94.3416L86.1921 100.281L91.0215 96.7766L92.0781 97.3866ZM91.9255 105.428C91.4752 105.168 91.1265 104.832 90.8794 104.42C90.6357 104.002 90.5166 103.548 90.522 103.058C90.5309 102.563 90.6769 102.07 90.9603 101.579C91.2403 101.094 91.5954 100.726 92.0257 100.474C92.456 100.222 92.9142 100.102 93.4004 100.113C93.8866 100.124 94.3577 100.262 94.8138 100.525C95.2699 100.788 95.6244 101.128 95.8772 101.543C96.1301 101.958 96.255 102.415 96.2519 102.914C96.2489 103.413 96.1073 103.904 95.8273 104.389C95.5473 104.874 95.1893 105.241 94.7532 105.49C94.3172 105.738 93.8486 105.857 93.3476 105.845C92.8556 105.83 92.3816 105.691 91.9255 105.428ZM92.4205 104.57C92.6745 104.717 92.9462 104.793 93.2356 104.798C93.5308 104.807 93.8177 104.73 94.0962 104.568C94.3748 104.405 94.6141 104.151 94.8141 103.804C95.0141 103.458 95.116 103.128 95.1199 102.815C95.1271 102.496 95.056 102.212 94.9066 101.964C94.7572 101.716 94.5555 101.519 94.3015 101.372C94.0474 101.226 93.7757 101.15 93.4863 101.144C93.2027 101.142 92.9274 101.226 92.6604 101.395C92.3967 101.558 92.1649 101.813 91.9649 102.159C91.6682 102.673 91.5681 103.147 91.6646 103.58C91.7702 104.01 92.0221 104.34 92.4205 104.57ZM98.7656 103.834C99.0499 103.675 99.3488 103.597 99.6621 103.601C99.9846 103.603 100.31 103.698 100.64 103.888L100.05 104.91L99.7984 104.765C99.4115 104.542 99.0604 104.47 98.745 104.55C98.4354 104.633 98.1406 104.917 97.8606 105.402L96.4106 107.913L95.4233 107.343L98.1783 102.571L99.1656 103.141L98.7656 103.834ZM102.079 105.77C102.38 105.636 102.716 105.58 103.088 105.603C103.47 105.622 103.839 105.736 104.197 105.942C104.619 106.186 104.941 106.507 105.165 106.905C105.389 107.304 105.491 107.748 105.471 108.237C105.454 108.719 105.307 109.2 105.03 109.68C104.753 110.159 104.407 110.532 103.991 110.8C103.578 111.062 103.136 111.2 102.667 111.213C102.206 111.224 101.768 111.11 101.352 110.87C100.983 110.657 100.695 110.395 100.49 110.084C100.29 109.776 100.172 109.461 100.134 109.139L99.7343 109.832L98.747 109.262L102.447 102.854L103.434 103.424L102.079 105.77ZM104.025 109.1C104.215 108.77 104.31 108.448 104.308 108.131C104.315 107.812 104.241 107.527 104.086 107.275C103.94 107.022 103.74 106.821 103.486 106.675C103.237 106.531 102.964 106.458 102.665 106.455C102.373 106.456 102.087 106.537 101.808 106.7C101.536 106.865 101.304 107.113 101.114 107.442C100.924 107.771 100.824 108.098 100.813 108.423C100.812 108.745 100.884 109.033 101.03 109.287C101.182 109.544 101.382 109.744 101.631 109.888C101.885 110.034 102.158 110.108 102.451 110.107C102.753 110.104 103.041 110.017 103.318 109.846C103.6 109.677 103.835 109.429 104.025 109.1ZM108.239 107.537C108.06 107.433 107.945 107.286 107.893 107.095C107.842 106.904 107.868 106.719 107.971 106.54C108.075 106.361 108.222 106.245 108.413 106.194C108.605 106.143 108.79 106.169 108.969 106.272C109.142 106.372 109.254 106.518 109.305 106.709C109.357 106.9 109.331 107.086 109.227 107.265C109.124 107.444 108.977 107.559 108.785 107.61C108.594 107.661 108.412 107.637 108.239 107.537ZM108.359 108.449L105.604 113.221L104.616 112.651L107.371 107.879L108.359 108.449ZM112.492 111.759C112.776 111.6 113.075 111.522 113.388 111.526C113.711 111.528 114.037 111.623 114.366 111.813L113.776 112.835L113.525 112.69C113.138 112.467 112.787 112.395 112.471 112.475C112.162 112.558 111.867 112.842 111.587 113.326L110.137 115.838L109.149 115.268L111.904 110.496L112.892 111.066L112.492 111.759ZM117.741 113.762C118.105 113.972 118.383 114.237 118.576 114.556C118.775 114.879 118.867 115.239 118.852 115.639C118.843 116.041 118.713 116.459 118.463 116.892L116.838 119.707L115.859 119.142L117.399 116.475C117.646 116.047 117.728 115.659 117.644 115.311C117.564 114.957 117.339 114.673 116.969 114.46C116.6 114.246 116.239 114.192 115.886 114.296C115.542 114.398 115.247 114.662 115 115.09L113.46 117.757L112.473 117.187L116.173 110.778L117.16 111.348L115.895 113.539C116.18 113.434 116.48 113.4 116.798 113.437C117.121 113.477 117.435 113.586 117.741 113.762ZM120.122 121.707C119.672 121.447 119.323 121.111 119.076 120.699C118.832 120.281 118.713 119.827 118.719 119.338C118.727 118.843 118.874 118.35 119.157 117.859C119.437 117.374 119.792 117.005 120.222 116.753C120.653 116.501 121.111 116.381 121.597 116.392C122.083 116.404 122.554 116.541 123.01 116.804C123.466 117.068 123.821 117.407 124.074 117.822C124.327 118.238 124.452 118.695 124.448 119.193C124.445 119.692 124.304 120.184 124.024 120.669C123.744 121.154 123.386 121.521 122.95 121.769C122.514 122.018 122.045 122.136 121.544 122.124C121.052 122.109 120.578 121.97 120.122 121.707ZM120.617 120.85C120.871 120.996 121.143 121.072 121.432 121.078C121.727 121.086 122.014 121.01 122.293 120.847C122.571 120.685 122.811 120.43 123.011 120.084C123.211 119.737 123.313 119.407 123.316 119.094C123.324 118.775 123.253 118.491 123.103 118.243C122.954 117.996 122.752 117.798 122.498 117.652C122.244 117.505 121.972 117.429 121.683 117.423C121.399 117.421 121.124 117.505 120.857 117.674C120.593 117.837 120.361 118.092 120.161 118.439C119.865 118.953 119.765 119.426 119.861 119.859C119.967 120.289 120.219 120.62 120.617 120.85ZM128.827 120.163C129.203 120.379 129.493 120.651 129.697 120.977C129.907 121.306 130.008 121.672 129.998 122.074C129.989 122.477 129.86 122.895 129.61 123.328L127.985 126.142L127.006 125.577L128.546 122.91C128.793 122.483 128.874 122.095 128.791 121.746C128.71 121.392 128.485 121.108 128.116 120.895C127.746 120.682 127.385 120.627 127.033 120.731C126.689 120.833 126.394 121.098 126.147 121.525L124.607 124.192L123.62 123.622L126.375 118.851L127.362 119.421L127.047 119.966C127.322 119.863 127.615 119.829 127.927 119.862C128.244 119.899 128.545 119.999 128.827 120.163ZM130.295 124.289C130.578 123.799 130.925 123.425 131.334 123.169C131.753 122.91 132.197 122.782 132.666 122.783C133.135 122.784 133.597 122.916 134.053 123.18C134.63 123.513 135.027 123.927 135.242 124.42C135.466 124.912 135.498 125.45 135.338 126.035L134.273 125.42C134.323 125.133 134.291 124.868 134.177 124.625C134.063 124.383 133.862 124.178 133.573 124.011C133.169 123.778 132.762 123.736 132.353 123.884C131.953 124.03 131.605 124.36 131.308 124.874C131.011 125.388 130.898 125.858 130.968 126.283C131.044 126.712 131.284 127.043 131.688 127.276C132.26 127.606 132.783 127.573 133.258 127.178L134.323 127.793C133.904 128.198 133.421 128.434 132.873 128.503C132.329 128.566 131.774 128.434 131.208 128.107C130.752 127.844 130.406 127.51 130.171 127.104C129.939 126.693 129.828 126.245 129.839 125.758C129.86 125.27 130.012 124.78 130.295 124.289ZM141.513 127.591L138.758 132.363L137.771 131.793L138.096 131.23C137.827 131.336 137.532 131.374 137.211 131.342C136.899 131.309 136.602 131.21 136.319 131.047C135.944 130.83 135.651 130.557 135.441 130.228C135.237 129.902 135.136 129.536 135.14 129.13C135.149 128.728 135.278 128.31 135.528 127.877L137.148 125.071L138.127 125.636L136.592 128.294C136.345 128.722 136.262 129.112 136.342 129.467C136.426 129.815 136.653 130.096 137.022 130.309C137.392 130.523 137.748 130.579 138.092 130.477C138.445 130.372 138.744 130.107 138.991 129.679L140.526 127.021L141.513 127.591ZM141.748 134.193C141.373 133.976 141.073 133.715 140.85 133.408C140.635 133.1 140.508 132.78 140.468 132.449C140.432 132.112 140.491 131.796 140.646 131.501L141.668 132.091C141.569 132.303 141.566 132.528 141.659 132.767C141.761 133.003 141.945 133.198 142.211 133.351C142.488 133.511 142.731 133.583 142.941 133.565C143.161 133.546 143.319 133.452 143.415 133.285C143.519 133.106 143.509 132.923 143.385 132.736C143.268 132.553 143.055 132.303 142.745 131.985C142.444 131.681 142.207 131.417 142.035 131.195C141.864 130.972 141.749 130.718 141.691 130.43C141.64 130.146 141.704 129.849 141.884 129.537C142.031 129.283 142.239 129.095 142.509 128.974C142.783 128.847 143.093 128.803 143.44 128.842C143.793 128.884 144.151 129.01 144.515 129.22C145.058 129.533 145.414 129.923 145.583 130.391C145.761 130.855 145.725 131.331 145.475 131.818L144.487 131.248C144.593 131.024 144.605 130.804 144.522 130.587C144.44 130.37 144.266 130.185 144 130.031C143.74 129.881 143.513 129.815 143.318 129.834C143.123 129.852 142.978 129.942 142.885 130.103C142.812 130.23 142.796 130.364 142.838 130.504C142.881 130.644 142.953 130.778 143.056 130.907C143.162 131.029 143.324 131.203 143.54 131.428C143.833 131.721 144.061 131.979 144.224 132.204C144.396 132.427 144.509 132.677 144.564 132.955C144.619 133.233 144.561 133.527 144.39 133.836C144.234 134.107 144.018 134.306 143.745 134.433C143.472 134.56 143.161 134.604 142.814 134.566C142.473 134.53 142.117 134.406 141.748 134.193ZM148.624 138.162C148.248 137.946 147.949 137.684 147.725 137.378C147.511 137.07 147.384 136.75 147.344 136.419C147.307 136.082 147.367 135.766 147.522 135.471L148.544 136.061C148.444 136.273 148.441 136.498 148.534 136.737C148.637 136.973 148.821 137.168 149.086 137.321C149.363 137.481 149.607 137.552 149.817 137.535C150.036 137.515 150.194 137.422 150.291 137.254C150.394 137.075 150.384 136.893 150.261 136.706C150.144 136.523 149.93 136.272 149.621 135.955C149.32 135.65 149.083 135.387 148.911 135.164C148.739 134.942 148.625 134.687 148.567 134.4C148.516 134.116 148.58 133.818 148.76 133.507C148.906 133.253 149.115 133.065 149.385 132.944C149.658 132.817 149.969 132.773 150.316 132.812C150.669 132.854 151.027 132.98 151.391 133.19C151.933 133.503 152.289 133.893 152.458 134.36C152.637 134.825 152.601 135.301 152.35 135.788L151.363 135.218C151.469 134.994 151.481 134.774 151.398 134.557C151.316 134.34 151.142 134.154 150.876 134.001C150.616 133.851 150.389 133.785 150.194 133.803C149.998 133.821 149.854 133.911 149.761 134.073C149.687 134.2 149.672 134.333 149.714 134.473C149.757 134.613 149.829 134.748 149.932 134.876C150.038 134.999 150.199 135.173 150.416 135.398C150.709 135.69 150.937 135.949 151.1 136.174C151.271 136.396 151.385 136.646 151.44 136.925C151.495 137.203 151.437 137.496 151.266 137.806C151.109 138.077 150.894 138.276 150.621 138.403C150.347 138.53 150.037 138.574 149.69 138.535C149.349 138.5 148.993 138.376 148.624 138.162ZM157.381 139.777C157.278 139.956 157.173 140.111 157.067 140.242L153.421 138.137C153.229 138.535 153.194 138.923 153.315 139.3C153.436 139.678 153.681 139.974 154.05 140.187C154.581 140.494 155.085 140.488 155.561 140.17L156.626 140.785C156.229 141.14 155.758 141.35 155.213 141.413C154.678 141.473 154.13 141.342 153.57 141.018C153.114 140.755 152.763 140.417 152.515 140.005C152.277 139.591 152.161 139.139 152.167 138.649C152.181 138.157 152.33 137.666 152.614 137.175C152.897 136.684 153.243 136.311 153.653 136.055C154.072 135.796 154.519 135.669 154.993 135.674C155.474 135.682 155.948 135.821 156.415 136.091C156.866 136.351 157.21 136.68 157.449 137.08C157.688 137.48 157.802 137.915 157.792 138.386C157.785 138.852 157.648 139.316 157.381 139.777ZM156.531 138.871C156.735 138.504 156.773 138.137 156.646 137.771C156.519 137.405 156.267 137.114 155.892 136.897C155.551 136.7 155.196 136.642 154.827 136.721C154.461 136.795 154.149 137.003 153.889 137.346L156.531 138.871ZM165.484 141.326C165.859 141.543 166.149 141.814 166.354 142.14C166.564 142.47 166.664 142.835 166.655 143.238C166.652 143.644 166.525 144.064 166.275 144.497L164.65 147.311L163.671 146.746L165.211 144.079C165.458 143.652 165.54 143.264 165.456 142.915C165.376 142.561 165.151 142.277 164.781 142.064C164.412 141.851 164.051 141.796 163.698 141.9C163.354 142.002 163.059 142.267 162.812 142.694L161.272 145.361L160.294 144.796L161.834 142.129C162.081 141.702 162.162 141.314 162.078 140.965C161.998 140.611 161.773 140.327 161.404 140.114C161.034 139.901 160.673 139.846 160.32 139.95C159.977 140.052 159.682 140.317 159.435 140.744L157.895 143.411L156.908 142.841L159.663 138.069L160.65 138.639L160.335 139.185C160.61 139.082 160.903 139.047 161.215 139.081C161.526 139.115 161.824 139.213 162.107 139.376C162.488 139.596 162.782 139.874 162.989 140.209C163.195 140.544 163.291 140.911 163.276 141.31C163.587 141.105 163.944 141.007 164.347 141.016C164.753 141.02 165.132 141.123 165.484 141.326ZM169.244 144.536C169.538 144.413 169.872 144.36 170.248 144.377C170.623 144.394 170.993 144.507 171.356 144.717C171.772 144.957 172.09 145.279 172.311 145.684C172.541 146.086 172.647 146.528 172.63 147.011C172.613 147.494 172.466 147.975 172.189 148.454C171.913 148.933 171.566 149.307 171.15 149.574C170.737 149.836 170.296 149.974 169.826 149.988C169.365 149.999 168.927 149.884 168.511 149.644C168.148 149.434 167.866 149.176 167.666 148.868C167.47 148.555 167.346 148.236 167.294 147.914L165.584 150.876L164.596 150.306L168.661 143.265L169.649 143.835L169.244 144.536ZM171.185 147.874C171.375 147.545 171.469 147.222 171.467 146.905C171.474 146.586 171.4 146.301 171.245 146.05C171.099 145.796 170.899 145.596 170.645 145.449C170.397 145.306 170.123 145.233 169.825 145.23C169.532 145.23 169.246 145.311 168.968 145.474C168.695 145.64 168.464 145.887 168.274 146.216C168.084 146.545 167.983 146.872 167.973 147.197C167.971 147.52 168.044 147.808 168.19 148.062C168.341 148.319 168.542 148.519 168.79 148.662C169.044 148.809 169.317 148.882 169.61 148.882C169.912 148.879 170.201 148.792 170.477 148.62C170.759 148.452 170.995 148.203 171.185 147.874ZM177.594 151.447C177.491 151.626 177.386 151.781 177.279 151.912L173.633 149.807C173.442 150.205 173.407 150.593 173.528 150.97C173.648 151.348 173.894 151.643 174.263 151.857C174.794 152.163 175.298 152.158 175.774 151.84L176.839 152.455C176.441 152.81 175.97 153.02 175.426 153.082C174.891 153.143 174.343 153.011 173.783 152.688C173.327 152.425 172.975 152.087 172.728 151.675C172.49 151.261 172.374 150.809 172.38 150.319C172.394 149.827 172.543 149.336 172.827 148.845C173.11 148.354 173.456 147.981 173.866 147.725C174.285 147.466 174.731 147.339 175.206 147.344C175.686 147.351 176.16 147.49 176.628 147.76C177.078 148.02 177.423 148.35 177.662 148.75C177.901 149.15 178.015 149.585 178.005 150.056C177.998 150.522 177.861 150.986 177.594 151.447ZM176.743 150.541C176.948 150.174 176.986 149.807 176.859 149.441C176.731 149.075 176.48 148.784 176.105 148.567C175.764 148.37 175.409 148.312 175.04 148.391C174.674 148.465 174.362 148.673 174.102 149.016L176.743 150.541ZM180.463 151.002C180.747 150.843 181.046 150.765 181.359 150.769C181.682 150.771 182.008 150.866 182.337 151.056L181.747 152.078L181.496 151.933C181.109 151.71 180.758 151.638 180.442 151.718C180.133 151.801 179.838 152.085 179.558 152.57L178.108 155.081L177.121 154.511L179.876 149.739L180.863 150.309L180.463 151.002ZM183.755 155.131C184.032 154.652 184.375 154.284 184.784 154.028C185.2 153.775 185.636 153.646 186.093 153.641C186.56 153.633 187.004 153.751 187.425 153.994C187.737 154.174 188.003 154.42 188.223 154.732C188.453 155.041 188.592 155.36 188.641 155.689L189.971 153.385L190.967 153.96L187.267 160.369L186.271 159.794L186.686 159.075C186.391 159.213 186.055 159.273 185.68 159.257C185.311 159.243 184.941 159.13 184.572 158.917C184.156 158.677 183.835 158.353 183.608 157.945C183.391 157.535 183.29 157.084 183.304 156.592C183.328 156.097 183.478 155.611 183.755 155.131ZM187.651 157.404C187.841 157.075 187.936 156.749 187.938 156.426C187.945 156.107 187.876 155.821 187.73 155.567C187.583 155.313 187.383 155.113 187.129 154.967C186.875 154.82 186.602 154.747 186.309 154.747C186.02 154.742 185.736 154.82 185.457 154.983C185.188 155.143 184.958 155.387 184.768 155.716C184.578 156.045 184.478 156.372 184.467 156.697C184.463 157.026 184.532 157.32 184.674 157.579C184.826 157.836 185.026 158.036 185.274 158.179C185.528 158.326 185.802 158.399 186.095 158.399C186.387 158.399 186.67 158.316 186.943 158.15C187.225 157.981 187.461 157.733 187.651 157.404ZM192.186 156.004C192.007 155.9 191.892 155.753 191.84 155.562C191.789 155.37 191.815 155.185 191.918 155.006C192.022 154.827 192.169 154.712 192.36 154.661C192.552 154.61 192.737 154.636 192.916 154.739C193.089 154.839 193.201 154.985 193.252 155.176C193.304 155.367 193.277 155.552 193.174 155.731C193.071 155.91 192.924 156.025 192.732 156.077C192.541 156.128 192.359 156.104 192.186 156.004ZM192.306 156.916L189.551 161.688L188.563 161.118L191.318 156.346L192.306 156.916ZM191.908 159.838C192.184 159.359 192.528 158.992 192.937 158.735C193.353 158.482 193.789 158.353 194.246 158.348C194.713 158.34 195.154 158.456 195.569 158.696C195.945 158.913 196.228 159.176 196.418 159.486C196.618 159.794 196.738 160.106 196.778 160.422L197.178 159.729L198.174 160.304L195.419 165.076L194.423 164.501L194.833 163.791C194.536 163.919 194.2 163.975 193.824 163.959C193.449 163.942 193.077 163.827 192.707 163.614C192.297 163.377 191.982 163.057 191.761 162.652C191.544 162.242 191.443 161.791 191.457 161.299C191.481 160.804 191.631 160.318 191.908 159.838ZM195.803 162.111C195.993 161.782 196.089 161.456 196.091 161.133C196.098 160.814 196.028 160.528 195.882 160.274C195.736 160.02 195.536 159.82 195.282 159.674C195.028 159.527 194.755 159.454 194.462 159.454C194.173 159.449 193.889 159.527 193.61 159.69C193.341 159.85 193.111 160.094 192.921 160.423C192.731 160.752 192.631 161.079 192.62 161.404C192.615 161.733 192.684 162.027 192.827 162.286C192.979 162.543 193.179 162.743 193.427 162.887C193.681 163.033 193.955 163.106 194.247 163.106C194.54 163.106 194.823 163.023 195.096 162.857C195.378 162.688 195.613 162.44 195.803 162.111ZM205.293 164.31C205.668 164.527 205.958 164.798 206.162 165.124C206.372 165.453 206.473 165.819 206.464 166.222C206.46 166.628 206.333 167.047 206.083 167.48L204.458 170.295L203.48 169.73L205.02 167.062C205.266 166.635 205.348 166.247 205.264 165.899C205.184 165.544 204.959 165.261 204.59 165.047C204.22 164.834 203.859 164.779 203.506 164.884C203.163 164.985 202.868 165.25 202.621 165.677L201.081 168.345L200.102 167.78L201.642 165.112C201.889 164.685 201.97 164.297 201.887 163.949C201.807 163.594 201.582 163.311 201.212 163.097C200.843 162.884 200.482 162.829 200.129 162.934C199.785 163.035 199.49 163.3 199.243 163.727L197.703 166.395L196.716 165.825L199.471 161.053L200.458 161.623L200.143 162.168C200.418 162.065 200.712 162.031 201.023 162.064C201.335 162.098 201.632 162.197 201.915 162.36C202.296 162.58 202.59 162.857 202.797 163.192C203.004 163.527 203.1 163.895 203.085 164.294C203.396 164.088 203.753 163.99 204.155 164C204.561 164.003 204.94 164.107 205.293 164.31ZM209.651 173.397C209.276 173.18 208.977 172.919 208.753 172.613C208.539 172.304 208.412 171.984 208.372 171.653C208.335 171.317 208.394 171.001 208.55 170.705L209.571 171.295C209.472 171.507 209.469 171.733 209.562 171.971C209.665 172.207 209.848 172.402 210.114 172.555C210.391 172.715 210.635 172.787 210.845 172.769C211.064 172.75 211.222 172.656 211.319 172.489C211.422 172.31 211.412 172.127 211.289 171.94C211.171 171.757 210.958 171.507 210.649 171.19C210.347 170.885 210.111 170.621 209.939 170.399C209.767 170.176 209.652 169.922 209.595 169.634C209.543 169.351 209.607 169.053 209.787 168.741C209.934 168.487 210.143 168.299 210.413 168.178C210.686 168.051 210.996 168.007 211.343 168.046C211.696 168.088 212.055 168.214 212.418 168.424C212.961 168.737 213.317 169.128 213.486 169.595C213.664 170.059 213.628 170.535 213.378 171.022L212.391 170.452C212.497 170.228 212.509 170.008 212.426 169.791C212.343 169.574 212.169 169.389 211.904 169.235C211.644 169.085 211.416 169.019 211.221 169.038C211.026 169.056 210.882 169.146 210.788 169.307C210.715 169.434 210.7 169.568 210.742 169.708C210.784 169.848 210.857 169.982 210.96 170.111C211.066 170.233 211.227 170.407 211.444 170.632C211.737 170.925 211.965 171.183 212.127 171.408C212.299 171.631 212.413 171.881 212.468 172.159C212.523 172.437 212.465 172.731 212.294 173.04C212.137 173.311 211.922 173.511 211.649 173.638C211.375 173.764 211.065 173.809 210.718 173.77C210.376 173.734 210.021 173.61 209.651 173.397ZM216.213 169.876C216.034 169.772 215.919 169.625 215.867 169.434C215.816 169.243 215.842 169.057 215.946 168.878C216.049 168.699 216.196 168.584 216.387 168.533C216.579 168.482 216.764 168.508 216.943 168.611C217.116 168.711 217.228 168.857 217.279 169.048C217.331 169.239 217.305 169.424 217.201 169.603C217.098 169.782 216.951 169.898 216.759 169.949C216.568 170 216.386 169.976 216.213 169.876ZM216.333 170.788L213.578 175.56L212.59 174.99L215.345 170.218L216.333 170.788ZM218.316 173.007L216.791 175.648C216.687 175.827 216.653 175.98 216.687 176.108C216.73 176.233 216.853 176.354 217.055 176.47L217.661 176.82L217.186 177.643L216.407 177.193C215.962 176.936 215.682 176.636 215.565 176.291C215.448 175.947 215.525 175.541 215.795 175.073L217.32 172.432L216.757 172.107L217.222 171.301L217.785 171.626L218.47 170.44L219.466 171.015L218.781 172.201L219.941 172.871L219.476 173.677L218.316 173.007ZM218.46 178.459C218.281 178.356 218.165 178.208 218.114 178.017C218.063 177.826 218.089 177.641 218.192 177.462C218.296 177.283 218.443 177.168 218.634 177.116C218.825 177.065 219.011 177.091 219.19 177.195C219.363 177.295 219.475 177.44 219.526 177.631C219.577 177.823 219.551 178.008 219.448 178.187C219.345 178.366 219.197 178.481 219.006 178.532C218.815 178.583 218.633 178.559 218.46 178.459ZM229.452 176.699L228.987 177.505L226.432 176.03L225.407 177.805L227.399 178.955L226.934 179.761L224.942 178.611L223.422 181.243L222.435 180.673L225.91 174.654L229.452 176.699ZM232.71 183.269C232.607 183.448 232.502 183.603 232.395 183.734L228.75 181.629C228.558 182.026 228.523 182.414 228.644 182.792C228.765 183.169 229.01 183.465 229.379 183.678C229.91 183.985 230.414 183.979 230.89 183.661L231.955 184.276C231.558 184.632 231.087 184.841 230.542 184.904C230.007 184.964 229.459 184.833 228.899 184.509C228.443 184.246 228.091 183.908 227.844 183.496C227.606 183.082 227.49 182.63 227.496 182.14C227.51 181.648 227.659 181.157 227.943 180.666C228.226 180.176 228.572 179.802 228.982 179.546C229.401 179.287 229.847 179.16 230.322 179.165C230.803 179.173 231.277 179.312 231.744 179.582C232.195 179.842 232.539 180.172 232.778 180.571C233.017 180.971 233.131 181.406 233.121 181.878C233.114 182.343 232.977 182.807 232.71 183.269ZM231.86 182.362C232.064 181.995 232.102 181.628 231.975 181.262C231.847 180.896 231.596 180.605 231.221 180.388C230.88 180.191 230.525 180.133 230.156 180.212C229.79 180.286 229.478 180.494 229.218 180.837L231.86 182.362ZM236.924 180.494L233.224 186.902L232.237 186.332L235.937 179.924L236.924 180.494ZM238.142 182.537C237.963 182.433 237.848 182.286 237.797 182.095C237.746 181.904 237.772 181.719 237.875 181.54C237.979 181.361 238.126 181.245 238.317 181.194C238.508 181.143 238.693 181.169 238.872 181.272C239.046 181.372 239.158 181.518 239.209 181.709C239.26 181.9 239.234 182.086 239.131 182.265C239.028 182.444 238.88 182.559 238.689 182.61C238.498 182.661 238.316 182.637 238.142 182.537ZM238.262 183.449L235.507 188.221L234.52 187.651L237.275 182.879L238.262 183.449ZM238.491 190.047C238.115 189.83 237.816 189.569 237.592 189.263C237.378 188.954 237.251 188.635 237.211 188.304C237.174 187.967 237.234 187.651 237.389 187.356L238.411 187.946C238.311 188.158 238.308 188.383 238.402 188.622C238.504 188.858 238.688 189.052 238.953 189.206C239.23 189.366 239.474 189.437 239.684 189.42C239.903 189.4 240.061 189.307 240.158 189.139C240.261 188.96 240.251 188.777 240.128 188.591C240.011 188.407 239.797 188.157 239.488 187.84C239.187 187.535 238.95 187.272 238.778 187.049C238.606 186.827 238.492 186.572 238.434 186.285C238.383 186.001 238.447 185.703 238.627 185.391C238.773 185.137 238.982 184.95 239.252 184.829C239.525 184.702 239.836 184.658 240.183 184.696C240.536 184.738 240.894 184.864 241.258 185.074C241.8 185.388 242.156 185.778 242.325 186.245C242.504 186.71 242.468 187.186 242.217 187.672L241.23 187.102C241.336 186.879 241.348 186.658 241.265 186.441C241.183 186.224 241.009 186.039 240.743 185.886C240.483 185.736 240.256 185.67 240.061 185.688C239.865 185.706 239.721 185.796 239.628 185.958C239.554 186.085 239.539 186.218 239.581 186.358C239.624 186.498 239.696 186.632 239.799 186.761C239.905 186.884 240.066 187.058 240.283 187.283C240.576 187.575 240.804 187.834 240.967 188.059C241.138 188.281 241.252 188.531 241.307 188.809C241.362 189.087 241.304 189.381 241.133 189.69C240.976 189.962 240.761 190.161 240.488 190.288C240.214 190.415 239.904 190.459 239.557 190.42C239.216 190.385 238.86 190.26 238.491 190.047ZM78.101 109.236C78.3951 109.113 78.7299 109.06 79.1052 109.076C79.4805 109.093 79.8501 109.206 80.2138 109.416C80.6295 109.656 80.9477 109.978 81.1683 110.383C81.3981 110.785 81.5044 111.227 81.4874 111.71C81.4703 112.193 81.3235 112.674 81.0468 113.153C80.7702 113.633 80.4237 114.006 80.0074 114.274C79.5944 114.536 79.1531 114.673 78.6833 114.687C78.2227 114.698 77.7845 114.584 77.3688 114.344C77.0051 114.134 76.7234 113.875 76.5239 113.567C76.3276 113.254 76.2034 112.936 76.151 112.613L74.441 115.575L73.4538 115.005L77.5188 107.964L78.506 108.534L78.101 109.236ZM80.0422 112.573C80.2322 112.244 80.3263 111.921 80.3244 111.605C80.3316 111.285 80.2576 111 80.1024 110.749C79.9564 110.495 79.7563 110.295 79.5023 110.149C79.254 110.005 78.9807 109.932 78.6822 109.929C78.3894 109.929 78.1038 110.011 77.8252 110.173C77.5524 110.339 77.321 110.587 77.131 110.916C76.941 111.245 76.8408 111.572 76.8302 111.897C76.8288 112.219 76.9011 112.507 77.0472 112.761C77.199 113.018 77.399 113.218 77.6473 113.361C77.9013 113.508 78.1747 113.581 78.4674 113.581C78.7693 113.578 79.0583 113.491 79.3344 113.319C79.6163 113.151 79.8522 112.902 80.0422 112.573ZM83.9754 112.616C84.2597 112.456 84.5586 112.379 84.872 112.383C85.1945 112.384 85.5202 112.48 85.8493 112.67L85.2593 113.692L85.0082 113.547C84.6214 113.323 84.2703 113.252 83.9548 113.331C83.6452 113.414 83.3504 113.698 83.0704 114.183L81.6204 116.695L80.6331 116.125L83.3881 111.353L84.3754 111.923L83.9754 112.616ZM85.0177 115.446C85.2944 114.967 85.6376 114.599 86.0472 114.343C86.4626 114.09 86.899 113.961 87.3563 113.956C87.8227 113.948 88.2637 114.064 88.6794 114.304C89.0547 114.52 89.3376 114.784 89.528 115.094C89.7276 115.402 89.8478 115.713 89.8885 116.03L90.2885 115.337L91.2845 115.912L88.5295 120.684L87.5335 120.109L87.9435 119.398C87.6461 119.527 87.3097 119.583 86.9344 119.566C86.559 119.55 86.1866 119.435 85.8171 119.221C85.4072 118.985 85.0919 118.664 84.8713 118.26C84.654 117.849 84.5526 117.398 84.5672 116.906C84.5909 116.412 84.7411 115.925 85.0177 115.446ZM88.9135 117.718C89.1035 117.389 89.1992 117.063 89.2007 116.741C89.2079 116.422 89.1385 116.135 88.9924 115.882C88.8463 115.628 88.6463 115.428 88.3923 115.281C88.1382 115.134 87.8648 115.061 87.5721 115.062C87.2827 115.056 86.9987 115.135 86.7202 115.297C86.4507 115.457 86.221 115.702 86.031 116.031C85.841 116.36 85.7407 116.687 85.7302 117.012C85.7254 117.34 85.7944 117.634 85.9371 117.894C86.089 118.151 86.289 118.351 86.5373 118.494C86.7913 118.641 87.0647 118.714 87.3574 118.714C87.6501 118.713 87.9329 118.63 88.2057 118.464C88.4876 118.296 88.7235 118.047 88.9135 117.718ZM95.6446 121.454C95.5413 121.633 95.4364 121.788 95.33 121.919L91.684 119.814C91.4929 120.212 91.4577 120.6 91.5784 120.977C91.6991 121.355 91.9442 121.65 92.3137 121.864C92.8448 122.17 93.3484 122.165 93.8245 121.847L94.8897 122.462C94.492 122.817 94.021 123.027 93.4766 123.089C92.9414 123.15 92.3937 123.018 91.8337 122.695C91.3776 122.432 91.026 122.094 90.7789 121.682C90.541 121.268 90.4247 120.815 90.4302 120.326C90.4448 119.834 90.5938 119.343 90.8771 118.852C91.1604 118.361 91.5069 117.988 91.9166 117.732C92.3353 117.473 92.782 117.346 93.2566 117.351C93.737 117.358 94.211 117.497 94.6787 117.767C95.129 118.027 95.4736 118.357 95.7124 118.757C95.9513 119.157 96.0655 119.592 96.0552 120.063C96.0481 120.529 95.9113 120.992 95.6446 121.454ZM94.794 120.548C94.9983 120.181 95.0367 119.814 94.9093 119.448C94.782 119.082 94.5306 118.79 94.1554 118.574C93.8147 118.377 93.4598 118.319 93.0907 118.398C92.7249 118.472 92.4122 118.68 92.1527 119.023L94.794 120.548ZM96.8582 125.596C96.483 125.379 96.1835 125.118 95.96 124.812C95.7455 124.503 95.6184 124.184 95.5785 123.853C95.542 123.516 95.6013 123.2 95.7564 122.905L96.7783 123.495C96.6789 123.707 96.6759 123.932 96.7691 124.17C96.8714 124.407 97.0553 124.601 97.3209 124.755C97.598 124.915 97.8417 124.986 98.0518 124.969C98.271 124.949 98.4289 124.856 98.5256 124.688C98.6289 124.509 98.619 124.326 98.4958 124.14C98.3784 123.956 98.1649 123.706 97.8554 123.389C97.5541 123.084 97.3175 122.821 97.1457 122.598C96.9739 122.376 96.8592 122.121 96.8018 121.834C96.7502 121.55 96.8143 121.252 96.9943 120.94C97.141 120.686 97.3494 120.499 97.6195 120.378C97.8929 120.251 98.2032 120.206 98.5504 120.245C98.9033 120.287 99.2616 120.413 99.6253 120.623C100.168 120.937 100.524 121.327 100.693 121.794C100.871 122.259 100.835 122.734 100.585 123.221L99.5977 122.651C99.7037 122.428 99.7154 122.207 99.6329 121.99C99.5503 121.773 99.3762 121.588 99.1107 121.435C98.8509 121.285 98.6233 121.219 98.4281 121.237C98.2329 121.255 98.0886 121.345 97.9953 121.507C97.9219 121.634 97.9064 121.767 97.9488 121.907C97.9912 122.047 98.0638 122.181 98.1666 122.31C98.2727 122.433 98.434 122.607 98.6505 122.832C98.9435 123.124 99.1714 123.383 99.3342 123.608C99.506 123.83 99.6194 124.08 99.6744 124.358C99.7294 124.636 99.6714 124.93 99.5006 125.239C99.3439 125.511 99.1288 125.71 98.8554 125.837C98.5819 125.964 98.2717 126.008 97.9245 125.969C97.5832 125.934 97.2277 125.809 96.8582 125.596ZM105.616 127.211C105.512 127.39 105.408 127.545 105.301 127.676L101.655 125.571C101.464 125.969 101.429 126.357 101.549 126.734C101.67 127.112 101.915 127.407 102.285 127.621C102.816 127.927 103.32 127.922 103.796 127.604L104.861 128.219C104.463 128.574 103.992 128.783 103.448 128.846C102.912 128.907 102.365 128.775 101.805 128.452C101.349 128.189 100.997 127.851 100.75 127.439C100.512 127.024 100.396 126.572 100.401 126.083C100.416 125.591 100.565 125.1 100.848 124.609C101.132 124.118 101.478 123.745 101.888 123.488C102.306 123.23 102.753 123.103 103.228 123.107C103.708 123.115 104.182 123.254 104.65 123.524C105.1 123.784 105.445 124.114 105.684 124.514C105.922 124.913 106.037 125.349 106.026 125.82C106.019 126.286 105.882 126.749 105.616 127.211ZM104.765 126.304C104.969 125.937 105.008 125.571 104.88 125.205C104.753 124.839 104.502 124.547 104.127 124.331C103.786 124.134 103.431 124.075 103.062 124.155C102.696 124.228 102.383 124.437 102.124 124.779L104.765 126.304ZM110.35 126.815C110.725 127.032 111.015 127.303 111.219 127.629C111.43 127.958 111.53 128.324 111.521 128.727C111.512 129.13 111.382 129.547 111.132 129.98L109.507 132.795L108.528 132.23L110.068 129.563C110.315 129.135 110.397 128.747 110.313 128.399C110.233 128.045 110.008 127.761 109.638 127.548C109.269 127.334 108.908 127.28 108.555 127.384C108.211 127.486 107.916 127.75 107.67 128.178L106.13 130.845L105.142 130.275L107.897 125.503L108.885 126.073L108.57 126.619C108.845 126.516 109.138 126.481 109.449 126.515C109.767 126.552 110.067 126.652 110.35 126.815ZM114.208 130.221L112.683 132.862C112.58 133.041 112.545 133.194 112.579 133.322C112.623 133.447 112.745 133.568 112.947 133.684L113.554 134.034L113.079 134.857L112.299 134.407C111.855 134.15 111.574 133.85 111.457 133.505C111.341 133.161 111.417 132.755 111.687 132.287L113.212 129.646L112.649 129.321L113.114 128.515L113.677 128.84L114.362 127.654L115.358 128.229L114.673 129.415L115.834 130.085L115.369 130.891L114.208 130.221ZM117.289 134.101C117.573 133.61 117.919 133.237 118.329 132.981C118.747 132.722 119.191 132.593 119.66 132.595C120.129 132.596 120.591 132.728 121.047 132.991C121.625 133.325 122.021 133.738 122.236 134.232C122.461 134.724 122.493 135.262 122.332 135.846L121.267 135.231C121.317 134.945 121.285 134.68 121.171 134.437C121.057 134.194 120.856 133.99 120.567 133.823C120.163 133.59 119.757 133.547 119.348 133.696C118.947 133.842 118.599 134.172 118.302 134.686C118.006 135.2 117.892 135.669 117.963 136.095C118.038 136.523 118.278 136.854 118.682 137.088C119.254 137.418 119.777 137.385 120.252 136.989L121.317 137.604C120.899 138.009 120.415 138.246 119.868 138.315C119.323 138.378 118.768 138.246 118.202 137.919C117.746 137.656 117.401 137.321 117.165 136.916C116.933 136.505 116.822 136.056 116.834 135.57C116.854 135.081 117.006 134.592 117.289 134.101ZM123.456 140.952C123.006 140.692 122.657 140.356 122.41 139.944C122.166 139.526 122.047 139.073 122.052 138.583C122.061 138.088 122.207 137.595 122.491 137.104C122.771 136.619 123.126 136.251 123.556 135.999C123.986 135.747 124.445 135.626 124.931 135.638C125.417 135.649 125.888 135.786 126.344 136.05C126.8 136.313 127.155 136.652 127.408 137.068C127.66 137.483 127.785 137.94 127.782 138.439C127.779 138.937 127.638 139.429 127.358 139.914C127.078 140.399 126.72 140.766 126.284 141.014C125.848 141.263 125.379 141.381 124.878 141.369C124.386 141.354 123.912 141.216 123.456 140.952ZM123.951 140.095C124.205 140.241 124.477 140.318 124.766 140.323C125.061 140.332 125.348 140.255 125.627 140.092C125.905 139.93 126.144 139.675 126.344 139.329C126.544 138.983 126.646 138.653 126.65 138.339C126.657 138.02 126.586 137.737 126.437 137.489C126.288 137.241 126.086 137.044 125.832 136.897C125.578 136.75 125.306 136.674 125.017 136.669C124.733 136.667 124.458 136.75 124.191 136.919C123.927 137.083 123.695 137.338 123.495 137.684C123.199 138.198 123.098 138.671 123.195 139.104C123.3 139.535 123.552 139.865 123.951 140.095ZM132.161 139.408C132.536 139.625 132.826 139.896 133.031 140.222C133.241 140.551 133.342 140.917 133.332 141.32C133.323 141.722 133.193 142.14 132.943 142.573L131.318 145.388L130.34 144.823L131.88 142.155C132.126 141.728 132.208 141.34 132.124 140.992C132.044 140.637 131.819 140.354 131.45 140.14C131.08 139.927 130.719 139.872 130.366 139.977C130.023 140.079 129.728 140.343 129.481 140.77L127.941 143.438L126.954 142.868L129.709 138.096L130.696 138.666L130.381 139.212C130.656 139.109 130.949 139.074 131.261 139.108C131.578 139.145 131.878 139.245 132.161 139.408ZM134.265 147.193C133.89 146.976 133.59 146.715 133.367 146.409C133.152 146.1 133.025 145.78 132.985 145.449C132.949 145.113 133.008 144.797 133.163 144.501L134.185 145.091C134.085 145.303 134.082 145.529 134.176 145.767C134.278 146.003 134.462 146.198 134.727 146.351C135.005 146.511 135.248 146.583 135.458 146.565C135.678 146.546 135.835 146.452 135.932 146.285C136.035 146.106 136.026 145.923 135.902 145.736C135.785 145.553 135.571 145.303 135.262 144.986C134.961 144.681 134.724 144.417 134.552 144.195C134.38 143.972 134.266 143.718 134.208 143.43C134.157 143.147 134.221 142.849 134.401 142.537C134.548 142.283 134.756 142.095 135.026 141.974C135.299 141.847 135.61 141.803 135.957 141.842C136.31 141.884 136.668 142.01 137.032 142.22C137.575 142.533 137.93 142.924 138.1 143.391C138.278 143.855 138.242 144.331 137.991 144.818L137.004 144.248C137.11 144.024 137.122 143.804 137.039 143.587C136.957 143.37 136.783 143.185 136.517 143.031C136.257 142.881 136.03 142.816 135.835 142.834C135.639 142.852 135.495 142.942 135.402 143.103C135.328 143.23 135.313 143.364 135.355 143.504C135.398 143.644 135.47 143.778 135.573 143.907C135.679 144.03 135.841 144.203 136.057 144.429C136.35 144.721 136.578 144.979 136.741 145.204C136.913 145.427 137.026 145.677 137.081 145.955C137.136 146.233 137.078 146.527 136.907 146.836C136.75 147.107 136.535 147.307 136.262 147.434C135.988 147.561 135.678 147.605 135.331 147.566C134.99 147.53 134.634 147.406 134.265 147.193ZM143.022 148.808C142.919 148.987 142.814 149.142 142.708 149.273L139.062 147.168C138.871 147.566 138.835 147.953 138.956 148.331C139.077 148.708 139.322 149.004 139.691 149.217C140.223 149.524 140.726 149.518 141.202 149.2L142.267 149.815C141.87 150.171 141.399 150.38 140.854 150.443C140.319 150.503 139.771 150.372 139.211 150.049C138.755 149.785 138.404 149.448 138.157 149.036C137.919 148.621 137.802 148.169 137.808 147.68C137.822 147.188 137.971 146.696 138.255 146.205C138.538 145.715 138.885 145.341 139.294 145.085C139.713 144.826 140.16 144.699 140.634 144.704C141.115 144.712 141.589 144.851 142.056 145.121C142.507 145.381 142.851 145.711 143.09 146.11C143.329 146.51 143.443 146.945 143.433 147.417C143.426 147.882 143.289 148.346 143.022 148.808ZM142.172 147.901C142.376 147.534 142.414 147.167 142.287 146.801C142.16 146.435 141.908 146.144 141.533 145.927C141.192 145.731 140.838 145.672 140.468 145.751C140.103 145.825 139.79 146.033 139.53 146.376L142.172 147.901ZM143.6 149.291C143.883 148.801 144.23 148.427 144.639 148.171C145.058 147.912 145.502 147.784 145.971 147.785C146.439 147.786 146.902 147.919 147.358 148.182C147.935 148.515 148.332 148.929 148.547 149.423C148.771 149.914 148.803 150.452 148.643 151.037L147.578 150.422C147.628 150.135 147.596 149.87 147.482 149.627C147.368 149.385 147.167 149.18 146.878 149.013C146.474 148.78 146.067 148.738 145.658 148.886C145.258 149.033 144.91 149.363 144.613 149.876C144.316 150.39 144.203 150.86 144.273 151.285C144.349 151.714 144.589 152.045 144.993 152.278C145.565 152.608 146.088 152.575 146.563 152.18L147.628 152.795C147.209 153.2 146.726 153.437 146.178 153.505C145.634 153.568 145.079 153.436 144.513 153.11C144.057 152.846 143.711 152.512 143.476 152.106C143.243 151.695 143.133 151.247 143.144 150.76C143.165 150.272 143.316 149.782 143.6 149.291ZM151.183 151.568L149.658 154.21C149.555 154.389 149.521 154.542 149.555 154.669C149.598 154.794 149.721 154.915 149.923 155.032L150.529 155.382L150.054 156.205L149.275 155.755C148.83 155.498 148.549 155.197 148.433 154.853C148.316 154.508 148.393 154.102 148.663 153.635L150.188 150.993L149.625 150.668L150.09 149.863L150.653 150.188L151.338 149.001L152.333 149.576L151.648 150.763L152.809 151.433L152.344 152.238L151.183 151.568ZM156.782 156.752C156.679 156.931 156.574 157.086 156.468 157.217L152.822 155.112C152.631 155.51 152.595 155.898 152.716 156.275C152.837 156.653 153.082 156.948 153.451 157.162C153.983 157.468 154.486 157.463 154.962 157.145L156.027 157.76C155.63 158.115 155.159 158.324 154.614 158.387C154.079 158.448 153.531 158.316 152.971 157.993C152.515 157.73 152.164 157.392 151.917 156.98C151.679 156.565 151.562 156.113 151.568 155.624C151.582 155.132 151.731 154.641 152.015 154.15C152.298 153.659 152.645 153.286 153.054 153.029C153.473 152.771 153.92 152.644 154.394 152.648C154.875 152.656 155.349 152.795 155.816 153.065C156.267 153.325 156.611 153.655 156.85 154.055C157.089 154.454 157.203 154.89 157.193 155.361C157.186 155.827 157.049 156.29 156.782 156.752ZM155.932 155.845C156.136 155.478 156.174 155.112 156.047 154.746C155.92 154.38 155.668 154.088 155.293 153.872C154.952 153.675 154.598 153.616 154.228 153.696C153.863 153.769 153.55 153.978 153.29 154.32L155.932 155.845ZM159.751 156.515L158.226 159.156C158.122 159.335 158.088 159.488 158.122 159.616C158.165 159.741 158.288 159.862 158.49 159.978L159.096 160.328L158.621 161.151L157.842 160.701C157.397 160.444 157.117 160.144 157 159.799C156.883 159.455 156.96 159.049 157.23 158.581L158.755 155.94L158.192 155.615L158.657 154.809L159.22 155.134L159.905 153.948L160.901 154.523L160.216 155.709L161.376 156.379L160.911 157.185L159.751 156.515ZM166.608 159.4L163.853 164.171L162.865 163.601L163.19 163.038C162.921 163.145 162.626 163.182 162.305 163.151C161.994 163.117 161.697 163.019 161.414 162.856C161.038 162.639 160.746 162.366 160.535 162.037C160.331 161.711 160.23 161.345 160.234 160.939C160.243 160.536 160.373 160.118 160.623 159.685L162.243 156.88L163.221 157.445L161.686 160.103C161.44 160.53 161.357 160.921 161.437 161.275C161.52 161.624 161.747 161.905 162.117 162.118C162.486 162.332 162.843 162.387 163.186 162.285C163.539 162.181 163.839 161.915 164.085 161.488L165.62 158.83L166.608 159.4ZM168.497 161.414C168.782 161.255 169.081 161.178 169.394 161.181C169.717 161.183 170.042 161.279 170.371 161.469L169.781 162.491L169.53 162.346C169.143 162.122 168.792 162.05 168.477 162.13C168.167 162.213 167.872 162.497 167.592 162.982L166.142 165.493L165.155 164.923L167.91 160.152L168.897 160.722L168.497 161.414ZM172.416 169.219C172.04 169.002 171.741 168.741 171.517 168.435C171.303 168.126 171.176 167.807 171.136 167.476C171.099 167.139 171.159 166.823 171.314 166.528L172.336 167.118C172.236 167.33 172.233 167.555 172.326 167.794C172.429 168.03 172.613 168.224 172.878 168.378C173.155 168.538 173.399 168.609 173.609 168.592C173.828 168.572 173.986 168.479 174.083 168.311C174.186 168.132 174.176 167.949 174.053 167.763C173.936 167.58 173.722 167.329 173.413 167.012C173.111 166.707 172.875 166.444 172.703 166.221C172.531 165.999 172.417 165.744 172.359 165.457C172.307 165.173 172.372 164.875 172.552 164.563C172.698 164.309 172.907 164.122 173.177 164.001C173.45 163.874 173.761 163.83 174.108 163.868C174.461 163.91 174.819 164.036 175.183 164.246C175.725 164.56 176.081 164.95 176.25 165.417C176.429 165.882 176.393 166.358 176.142 166.844L175.155 166.274C175.261 166.051 175.273 165.83 175.19 165.613C175.108 165.396 174.934 165.211 174.668 165.058C174.408 164.908 174.181 164.842 173.985 164.86C173.79 164.878 173.646 164.968 173.553 165.13C173.479 165.257 173.464 165.39 173.506 165.53C173.549 165.67 173.621 165.804 173.724 165.933C173.83 166.056 173.991 166.23 174.208 166.455C174.501 166.747 174.729 167.006 174.892 167.231C175.063 167.453 175.177 167.703 175.232 167.981C175.287 168.259 175.229 168.553 175.058 168.862C174.901 169.134 174.686 169.333 174.413 169.46C174.139 169.587 173.829 169.631 173.482 169.592C173.141 169.557 172.785 169.432 172.416 169.219ZM181.173 170.834C181.07 171.013 180.965 171.168 180.858 171.299L177.212 169.194C177.021 169.592 176.986 169.98 177.107 170.357C177.228 170.735 177.473 171.03 177.842 171.244C178.373 171.55 178.877 171.545 179.353 171.227L180.418 171.842C180.021 172.197 179.549 172.406 179.005 172.469C178.47 172.53 177.922 172.398 177.362 172.075C176.906 171.812 176.554 171.474 176.307 171.062C176.069 170.647 175.953 170.195 175.959 169.706C175.973 169.214 176.122 168.723 176.406 168.232C176.689 167.741 177.035 167.368 177.445 167.111C177.864 166.853 178.31 166.726 178.785 166.73C179.265 166.738 179.739 166.877 180.207 167.147C180.657 167.407 181.002 167.737 181.241 168.137C181.48 168.536 181.594 168.972 181.584 169.443C181.577 169.909 181.44 170.372 181.173 170.834ZM180.323 169.927C180.527 169.56 180.565 169.194 180.438 168.828C180.31 168.462 180.059 168.17 179.684 167.954C179.343 167.757 178.988 167.698 178.619 167.778C178.253 167.851 177.941 168.06 177.681 168.402L180.323 169.927ZM181.761 171.3C182.037 170.821 182.38 170.454 182.79 170.197C183.205 169.945 183.642 169.815 184.099 169.81C184.565 169.802 185.009 169.92 185.431 170.163C185.743 170.343 186.009 170.589 186.229 170.901C186.458 171.211 186.597 171.53 186.646 171.858L187.976 169.554L188.972 170.129L185.272 176.538L184.276 175.963L184.691 175.244C184.396 175.382 184.061 175.442 183.686 175.426C183.316 175.413 182.947 175.299 182.577 175.086C182.162 174.846 181.84 174.522 181.614 174.114C181.397 173.704 181.295 173.253 181.31 172.761C181.334 172.266 181.484 171.78 181.761 171.3ZM185.656 173.573C185.846 173.244 185.942 172.918 185.943 172.595C185.951 172.276 185.881 171.99 185.735 171.736C185.589 171.482 185.389 171.282 185.135 171.136C184.881 170.989 184.608 170.916 184.315 170.916C184.026 170.911 183.742 170.989 183.463 171.152C183.194 171.312 182.964 171.556 182.774 171.885C182.584 172.215 182.484 172.542 182.473 172.866C182.468 173.195 182.537 173.489 182.68 173.748C182.832 174.005 183.032 174.205 183.28 174.349C183.534 174.495 183.807 174.568 184.1 174.568C184.393 174.568 184.676 174.485 184.948 174.319C185.23 174.151 185.466 173.902 185.656 173.573ZM189.88 175.988C190.156 175.509 190.499 175.141 190.909 174.885C191.324 174.632 191.761 174.503 192.218 174.498C192.684 174.49 193.126 174.606 193.541 174.846C193.916 175.062 194.199 175.326 194.39 175.636C194.589 175.944 194.71 176.255 194.75 176.572L195.15 175.879L196.146 176.454L193.391 181.226L192.395 180.651L192.805 179.94C192.508 180.069 192.172 180.125 191.796 180.108C191.421 180.092 191.048 179.977 190.679 179.763C190.269 179.527 189.954 179.206 189.733 178.802C189.516 178.391 189.414 177.94 189.429 177.448C189.453 176.954 189.603 176.467 189.88 175.988ZM193.775 178.26C193.965 177.931 194.061 177.605 194.062 177.283C194.07 176.964 194 176.677 193.854 176.424C193.708 176.17 193.508 175.97 193.254 175.823C193 175.676 192.727 175.603 192.434 175.604C192.145 175.598 191.861 175.677 191.582 175.839C191.313 175.999 191.083 176.244 190.893 176.573C190.703 176.902 190.603 177.229 190.592 177.554C190.587 177.882 190.656 178.176 190.799 178.436C190.951 178.693 191.151 178.893 191.399 179.036C191.653 179.183 191.926 179.256 192.219 179.256C192.512 179.255 192.795 179.172 193.067 179.006C193.349 178.838 193.585 178.589 193.775 178.26ZM201.66 179.533C202.03 179.747 202.313 180.01 202.509 180.323C202.714 180.634 202.834 180.946 202.869 181.259L203.269 180.566L204.265 181.141L201.465 185.991C201.212 186.43 200.895 186.766 200.513 187C200.128 187.24 199.703 187.356 199.238 187.349C198.778 187.345 198.306 187.204 197.821 186.924C197.174 186.55 196.725 186.087 196.475 185.535C196.221 184.988 196.215 184.438 196.457 183.885L197.436 184.45C197.368 184.741 197.411 185.032 197.567 185.322C197.726 185.622 197.975 185.87 198.316 186.066C198.714 186.296 199.104 186.36 199.487 186.257C199.875 186.158 200.203 185.878 200.469 185.416L200.929 184.619C200.632 184.748 200.294 184.807 199.915 184.796C199.546 184.783 199.179 184.671 198.815 184.461C198.4 184.221 198.078 183.897 197.852 183.489C197.635 183.079 197.533 182.628 197.548 182.136C197.572 181.641 197.722 181.155 197.999 180.675C198.275 180.196 198.618 179.829 199.028 179.572C199.443 179.32 199.88 179.19 200.337 179.185C200.803 179.177 201.245 179.293 201.66 179.533ZM201.894 182.948C202.084 182.619 202.18 182.293 202.181 181.97C202.189 181.651 202.119 181.365 201.973 181.111C201.827 180.857 201.627 180.657 201.373 180.511C201.119 180.364 200.846 180.291 200.553 180.291C200.264 180.286 199.98 180.364 199.701 180.527C199.432 180.687 199.202 180.931 199.012 181.26C198.822 181.59 198.722 181.917 198.711 182.241C198.706 182.57 198.775 182.864 198.918 183.123C199.07 183.38 199.27 183.58 199.518 183.724C199.772 183.87 200.045 183.943 200.338 183.943C200.631 183.943 200.914 183.86 201.186 183.694C201.468 183.526 201.704 183.277 201.894 182.948ZM206.149 183.153C206.434 182.994 206.732 182.916 207.046 182.92C207.368 182.921 207.694 183.017 208.023 183.207L207.433 184.229L207.182 184.084C206.795 183.861 206.444 183.789 206.129 183.868C205.819 183.951 205.524 184.235 205.244 184.72L203.794 187.232L202.807 186.662L205.562 181.89L206.549 182.46L206.149 183.153ZM207.192 185.983C207.468 185.504 207.811 185.136 208.221 184.88C208.636 184.627 209.073 184.498 209.53 184.493C209.997 184.485 210.438 184.601 210.853 184.841C211.229 185.058 211.511 185.321 211.702 185.631C211.901 185.939 212.022 186.251 212.062 186.567L212.462 185.874L213.458 186.449L210.703 191.221L209.707 190.646L210.117 189.935C209.82 190.064 209.484 190.12 209.108 190.103C208.733 190.087 208.36 189.972 207.991 189.759C207.581 189.522 207.266 189.201 207.045 188.797C206.828 188.387 206.726 187.935 206.741 187.443C206.765 186.949 206.915 186.462 207.192 185.983ZM211.087 188.255C211.277 187.926 211.373 187.601 211.375 187.278C211.382 186.959 211.312 186.672 211.166 186.419C211.02 186.165 210.82 185.965 210.566 185.818C210.312 185.672 210.039 185.598 209.746 185.599C209.457 185.593 209.173 185.672 208.894 185.834C208.625 185.994 208.395 186.239 208.205 186.568C208.015 186.897 207.915 187.224 207.904 187.549C207.899 187.877 207.968 188.171 208.111 188.431C208.263 188.688 208.463 188.888 208.711 189.031C208.965 189.178 209.239 189.251 209.531 189.251C209.824 189.25 210.107 189.167 210.38 189.001C210.661 188.833 210.897 188.584 211.087 188.255ZM214.355 192.151L217.951 189.042L218.999 189.647L214.425 193.369L213.247 192.689L214.192 186.872L215.249 187.482L214.355 192.151ZM220.612 189.736C220.433 189.633 220.318 189.486 220.267 189.294C220.216 189.103 220.242 188.918 220.345 188.739C220.448 188.56 220.596 188.445 220.787 188.394C220.978 188.342 221.163 188.368 221.342 188.472C221.515 188.572 221.628 188.717 221.679 188.909C221.73 189.1 221.704 189.285 221.601 189.464C221.497 189.643 221.35 189.758 221.159 189.809C220.968 189.861 220.785 189.836 220.612 189.736ZM220.732 190.648L217.977 195.42L216.99 194.85L219.745 190.078L220.732 190.648ZM220.334 193.571C220.611 193.092 220.954 192.724 221.364 192.468C221.779 192.215 222.215 192.086 222.673 192.081C223.139 192.073 223.583 192.19 224.005 192.434C224.316 192.614 224.582 192.86 224.803 193.172C225.032 193.481 225.171 193.8 225.22 194.129L226.55 191.825L227.546 192.4L223.846 198.809L222.85 198.234L223.265 197.515C222.97 197.652 222.635 197.713 222.259 197.696C221.89 197.683 221.52 197.57 221.151 197.356C220.735 197.116 220.414 196.793 220.188 196.385C219.97 195.974 219.869 195.523 219.884 195.031C219.907 194.537 220.058 194.05 220.334 193.571ZM224.23 195.843C224.42 195.514 224.516 195.188 224.517 194.866C224.524 194.547 224.455 194.26 224.309 194.007C224.163 193.753 223.963 193.553 223.709 193.406C223.455 193.259 223.181 193.186 222.889 193.187C222.599 193.181 222.315 193.26 222.037 193.422C221.767 193.582 221.537 193.827 221.347 194.156C221.157 194.485 221.057 194.812 221.047 195.137C221.042 195.465 221.111 195.759 221.254 196.019C221.405 196.276 221.605 196.476 221.854 196.619C222.108 196.766 222.381 196.839 222.674 196.839C222.967 196.838 223.249 196.755 223.522 196.589C223.804 196.421 224.04 196.172 224.23 195.843ZM226.204 196.96C226.48 196.48 226.823 196.113 227.233 195.857C227.648 195.604 228.085 195.475 228.542 195.469C229.008 195.461 229.45 195.577 229.865 195.817C230.241 196.034 230.523 196.297 230.714 196.608C230.913 196.915 231.034 197.227 231.074 197.543L231.474 196.85L232.47 197.425L229.715 202.197L228.719 201.622L229.129 200.912C228.832 201.041 228.496 201.097 228.12 201.08C227.745 201.063 227.372 200.948 227.003 200.735C226.593 200.498 226.278 200.178 226.057 199.773C225.84 199.363 225.738 198.912 225.753 198.42C225.777 197.926 225.927 197.439 226.204 196.96ZM230.099 199.232C230.289 198.903 230.385 198.577 230.386 198.255C230.394 197.935 230.324 197.649 230.178 197.395C230.032 197.142 229.832 196.941 229.578 196.795C229.324 196.648 229.051 196.575 228.758 196.575C228.469 196.57 228.185 196.648 227.906 196.811C227.637 196.971 227.407 197.216 227.217 197.545C227.027 197.874 226.927 198.201 226.916 198.526C226.911 198.854 226.98 199.148 227.123 199.407C227.275 199.664 227.475 199.864 227.723 200.008C227.977 200.154 228.25 200.228 228.543 200.227C228.836 200.227 229.119 200.144 229.391 199.978C229.673 199.81 229.909 199.561 230.099 199.232ZM241.838 202.73C242.213 202.947 242.503 203.218 242.708 203.544C242.918 203.873 243.018 204.239 243.009 204.642C243.006 205.048 242.879 205.467 242.629 205.9L241.004 208.715L240.025 208.15L241.565 205.482C241.812 205.055 241.893 204.667 241.81 204.319C241.73 203.964 241.505 203.681 241.135 203.467C240.766 203.254 240.405 203.199 240.052 203.304C239.708 203.406 239.413 203.67 239.166 204.097L237.626 206.765L236.648 206.2L238.188 203.532C238.434 203.105 238.516 202.717 238.432 202.369C238.352 202.014 238.127 201.731 237.758 201.517C237.388 201.304 237.027 201.249 236.674 201.354C236.331 201.456 236.036 201.72 235.789 202.147L234.249 204.815L233.262 204.245L236.017 199.473L237.004 200.043L236.689 200.588C236.964 200.486 237.257 200.451 237.569 200.484C237.88 200.518 238.178 200.617 238.461 200.78C238.842 201 239.136 201.277 239.342 201.612C239.549 201.947 239.645 202.315 239.63 202.714C239.941 202.509 240.298 202.411 240.701 202.42C241.107 202.423 241.486 202.527 241.838 202.73ZM244.285 210.713C243.835 210.453 243.486 210.117 243.239 209.705C242.995 209.287 242.876 208.833 242.882 208.344C242.89 207.849 243.036 207.356 243.32 206.865C243.6 206.38 243.955 206.011 244.385 205.759C244.815 205.507 245.274 205.387 245.76 205.398C246.246 205.41 246.717 205.547 247.173 205.81C247.629 206.074 247.984 206.413 248.237 206.828C248.49 207.244 248.614 207.701 248.611 208.199C248.608 208.698 248.467 209.19 248.187 209.675C247.907 210.16 247.549 210.527 247.113 210.775C246.677 211.024 246.208 211.142 245.707 211.13C245.215 211.115 244.741 210.976 244.285 210.713ZM244.78 209.856C245.034 210.002 245.306 210.078 245.595 210.084C245.89 210.092 246.177 210.016 246.456 209.853C246.734 209.691 246.974 209.436 247.174 209.09C247.374 208.743 247.476 208.413 247.479 208.1C247.487 207.781 247.416 207.497 247.266 207.249C247.117 207.002 246.915 206.804 246.661 206.658C246.407 206.511 246.135 206.435 245.846 206.429C245.562 206.427 245.287 206.511 245.02 206.68C244.756 206.843 244.524 207.098 244.324 207.445C244.028 207.959 243.928 208.432 244.024 208.865C244.13 209.295 244.382 209.626 244.78 209.856ZM252.47 206.79L248.77 213.198L247.783 212.628L251.483 206.22L252.47 206.79ZM255.885 213.969C255.781 214.148 255.676 214.303 255.57 214.434L251.924 212.329C251.733 212.727 251.698 213.114 251.818 213.492C251.939 213.87 252.184 214.165 252.554 214.378C253.085 214.685 253.589 214.679 254.065 214.362L255.13 214.977C254.732 215.332 254.261 215.541 253.717 215.604C253.181 215.665 252.634 215.533 252.074 215.21C251.618 214.946 251.266 214.609 251.019 214.197C250.781 213.782 250.665 213.33 250.67 212.841C250.685 212.349 250.834 211.857 251.117 211.367C251.401 210.876 251.747 210.502 252.157 210.246C252.575 209.988 253.022 209.861 253.497 209.865C253.977 209.873 254.451 210.012 254.919 210.282C255.369 210.542 255.714 210.872 255.953 211.272C256.191 211.671 256.306 212.107 256.295 212.578C256.288 213.043 256.151 213.507 255.885 213.969ZM255.034 213.062C255.238 212.695 255.277 212.329 255.149 211.963C255.022 211.597 254.771 211.305 254.395 211.088C254.055 210.892 253.7 210.833 253.331 210.913C252.965 210.986 252.652 211.194 252.393 211.537L255.034 213.062ZM257.098 218.111C256.723 217.894 256.424 217.633 256.2 217.327C255.986 217.018 255.858 216.698 255.819 216.367C255.782 216.031 255.841 215.715 255.996 215.419L257.018 216.009C256.919 216.221 256.916 216.447 257.009 216.685C257.111 216.921 257.295 217.116 257.561 217.269C257.838 217.429 258.082 217.501 258.292 217.483C258.511 217.464 258.669 217.37 258.766 217.203C258.869 217.024 258.859 216.841 258.736 216.654C258.618 216.471 258.405 216.221 258.095 215.904C257.794 215.599 257.558 215.335 257.386 215.113C257.214 214.89 257.099 214.636 257.042 214.348C256.99 214.065 257.054 213.767 257.234 213.455C257.381 213.201 257.589 213.013 257.86 212.892C258.133 212.765 258.443 212.721 258.79 212.76C259.143 212.802 259.502 212.928 259.865 213.138C260.408 213.451 260.764 213.842 260.933 214.309C261.111 214.773 261.075 215.249 260.825 215.736L259.838 215.166C259.944 214.942 259.955 214.722 259.873 214.505C259.79 214.288 259.616 214.103 259.351 213.949C259.091 213.799 258.863 213.733 258.668 213.752C258.473 213.77 258.329 213.86 258.235 214.021C258.162 214.148 258.147 214.282 258.189 214.422C258.231 214.562 258.304 214.696 258.407 214.825C258.513 214.947 258.674 215.121 258.891 215.346C259.184 215.639 259.412 215.897 259.574 216.122C259.746 216.345 259.859 216.595 259.914 216.873C259.969 217.151 259.912 217.445 259.741 217.754C259.584 218.025 259.369 218.225 259.095 218.352C258.822 218.479 258.512 218.523 258.165 218.484C257.823 218.448 257.468 218.324 257.098 218.111ZM263.479 216.402L261.954 219.044C261.851 219.223 261.816 219.376 261.85 219.503C261.894 219.628 262.016 219.749 262.218 219.866L262.825 220.216L262.35 221.039L261.57 220.589C261.126 220.332 260.845 220.031 260.728 219.687C260.612 219.342 260.688 218.936 260.958 218.469L262.483 215.827L261.92 215.502L262.385 214.697L262.948 215.022L263.633 213.835L264.629 214.41L263.944 215.597L265.105 216.267L264.64 217.072L263.479 216.402ZM266.882 216.45C266.703 216.347 266.588 216.199 266.537 216.008C266.485 215.817 266.511 215.632 266.615 215.453C266.718 215.274 266.865 215.159 267.057 215.107C267.248 215.056 267.433 215.082 267.612 215.186C267.785 215.286 267.897 215.431 267.949 215.622C268 215.814 267.974 215.999 267.87 216.178C267.767 216.357 267.62 216.472 267.429 216.523C267.237 216.574 267.055 216.55 266.882 216.45ZM267.002 217.362L264.247 222.134L263.26 221.564L266.015 216.792L267.002 217.362ZM271.362 222.905C271.258 223.084 271.153 223.239 271.047 223.37L267.401 221.265C267.21 221.662 267.175 222.05 267.295 222.428C267.416 222.805 267.661 223.101 268.031 223.314C268.562 223.621 269.065 223.615 269.541 223.297L270.607 223.912C270.209 224.268 269.738 224.477 269.194 224.54C268.658 224.6 268.111 224.469 267.551 224.145C267.094 223.882 266.743 223.544 266.496 223.132C266.258 222.718 266.142 222.266 266.147 221.776C266.162 221.284 266.311 220.793 266.594 220.302C266.877 219.811 267.224 219.438 267.633 219.182C268.052 218.923 268.499 218.796 268.973 218.801C269.454 218.809 269.928 218.948 270.396 219.218C270.846 219.478 271.19 219.807 271.429 220.207C271.668 220.607 271.782 221.042 271.772 221.513C271.765 221.979 271.628 222.443 271.362 222.905ZM270.511 221.998C270.715 221.631 270.754 221.264 270.626 220.898C270.499 220.532 270.248 220.241 269.872 220.024C269.532 219.827 269.177 219.769 268.808 219.848C268.442 219.922 268.129 220.13 267.87 220.473L270.511 221.998ZM70.8861 120.612C70.7071 120.509 70.592 120.362 70.5407 120.17C70.4895 119.979 70.5155 119.794 70.6189 119.615C70.7222 119.436 70.8695 119.321 71.0607 119.27C71.252 119.218 71.4371 119.245 71.6161 119.348C71.7893 119.448 71.9015 119.593 71.9527 119.785C72.004 119.976 71.9779 120.161 71.8746 120.34C71.7713 120.519 71.624 120.634 71.4327 120.685C71.2415 120.737 71.0593 120.712 70.8861 120.612ZM71.006 121.524L68.251 126.296L67.2638 125.726L70.0188 120.954L71.006 121.524ZM70.6082 124.447C70.8848 123.968 71.228 123.6 71.6376 123.344C72.053 123.091 72.4894 122.962 72.9467 122.957C73.4131 122.949 73.857 123.067 74.2785 123.31C74.5902 123.49 74.8562 123.736 75.0765 124.048C75.3058 124.357 75.4449 124.676 75.4939 125.005L76.8239 122.701L77.8199 123.276L74.1199 129.685L73.1239 129.11L73.5389 128.391C73.2439 128.528 72.9088 128.589 72.5334 128.572C72.1639 128.559 71.7943 128.446 71.4248 128.233C71.0091 127.993 70.6881 127.669 70.4617 127.261C70.2444 126.851 70.143 126.399 70.1576 125.907C70.1813 125.413 70.3315 124.926 70.6082 124.447ZM74.5039 126.719C74.6939 126.39 74.7896 126.065 74.7911 125.742C74.7983 125.423 74.7289 125.136 74.5828 124.883C74.4367 124.629 74.2367 124.429 73.9827 124.282C73.7286 124.136 73.4553 124.062 73.1625 124.063C72.8731 124.057 72.5892 124.136 72.3106 124.298C72.0411 124.458 71.8114 124.703 71.6214 125.032C71.4314 125.361 71.3311 125.688 71.3206 126.013C71.3158 126.341 71.3848 126.635 71.5275 126.895C71.6794 127.152 71.8794 127.352 72.1277 127.495C72.3817 127.642 72.6551 127.715 72.9478 127.715C73.2405 127.714 73.5233 127.631 73.7961 127.465C74.078 127.297 74.3139 127.048 74.5039 126.719ZM80.0209 131.914L83.6169 128.805L84.6648 129.41L80.0911 133.132L78.9133 132.452L79.8583 126.635L80.9149 127.245L80.0209 131.914ZM84.6808 135.886C84.2305 135.626 83.8818 135.29 83.6347 134.878C83.391 134.46 83.2719 134.006 83.2774 133.517C83.2862 133.022 83.4323 132.529 83.7156 132.038C83.9956 131.553 84.3507 131.184 84.781 130.932C85.2113 130.68 85.6695 130.56 86.1557 130.571C86.6419 130.583 87.113 130.72 87.5691 130.983C88.0252 131.247 88.3797 131.586 88.6325 132.001C88.8854 132.417 89.0103 132.874 89.0072 133.372C89.0042 133.871 88.8627 134.363 88.5827 134.848C88.3027 135.333 87.9446 135.7 87.5086 135.948C87.0725 136.197 86.604 136.315 86.1029 136.303C85.611 136.288 85.1369 136.149 84.6808 135.886ZM85.1758 135.029C85.4299 135.175 85.7016 135.251 85.991 135.257C86.2861 135.265 86.573 135.189 86.8516 135.026C87.1301 134.864 87.3694 134.609 87.5694 134.263C87.7694 133.916 87.8713 133.586 87.8752 133.273C87.8824 132.954 87.8113 132.67 87.6619 132.422C87.5126 132.175 87.3108 131.977 87.0568 131.831C86.8028 131.684 86.5311 131.608 86.2417 131.602C85.958 131.6 85.6827 131.684 85.4157 131.853C85.152 132.016 84.9202 132.271 84.7202 132.618C84.4235 133.132 84.3234 133.605 84.4199 134.038C84.5255 134.468 84.7775 134.799 85.1758 135.029ZM92.8659 131.963L89.1659 138.371L88.1786 137.801L91.8786 131.393L92.8659 131.963ZM97.5386 136.843L94.7836 141.615L93.7963 141.045L94.1213 140.482C93.8521 140.588 93.5571 140.626 93.2364 140.595C92.9248 140.561 92.6276 140.462 92.3447 140.299C91.9694 140.082 91.6766 139.81 91.4664 139.48C91.262 139.154 91.1615 138.788 91.1649 138.382C91.1742 137.98 91.3038 137.562 91.5538 137.129L93.1738 134.323L94.1524 134.888L92.6174 137.547C92.3707 137.974 92.2875 138.365 92.3678 138.719C92.4515 139.067 92.678 139.348 93.0475 139.562C93.417 139.775 93.7736 139.831 94.1172 139.729C94.4699 139.625 94.7696 139.359 95.0163 138.932L96.5513 136.273L97.5386 136.843ZM99.528 139.066L98.003 141.707C97.8997 141.886 97.8651 142.039 97.8992 142.167C97.9425 142.292 98.0652 142.413 98.2673 142.529L98.8735 142.879L98.3985 143.702L97.619 143.252C97.1745 142.995 96.8939 142.695 96.7771 142.35C96.6604 142.006 96.7371 141.6 97.0071 141.132L98.5321 138.491L97.9692 138.166L98.4342 137.36L98.9971 137.685L99.6821 136.499L100.678 137.074L99.993 138.26L101.153 138.93L100.688 139.736L99.528 139.066ZM102.646 140.727C102.94 140.604 103.274 140.551 103.65 140.568C104.025 140.584 104.395 140.698 104.758 140.908C105.174 141.148 105.492 141.47 105.713 141.874C105.943 142.276 106.049 142.719 106.032 143.202C106.015 143.684 105.868 144.165 105.591 144.645C105.315 145.124 104.968 145.497 104.552 145.765C104.139 146.027 103.698 146.165 103.228 146.178C102.767 146.19 102.329 146.075 101.913 145.835C101.55 145.625 101.268 145.366 101.068 145.059C100.872 144.745 100.748 144.427 100.696 144.104L98.9857 147.066L97.9984 146.496L102.063 139.455L103.051 140.025L102.646 140.727ZM104.587 144.065C104.777 143.736 104.871 143.413 104.869 143.096C104.876 142.777 104.802 142.492 104.647 142.24C104.501 141.987 104.301 141.787 104.047 141.64C103.799 141.497 103.525 141.423 103.227 141.42C102.934 141.421 102.648 141.502 102.37 141.665C102.097 141.83 101.866 142.078 101.676 142.407C101.486 142.736 101.385 143.063 101.375 143.388C101.373 143.711 101.446 143.999 101.592 144.252C101.744 144.509 101.944 144.709 102.192 144.853C102.446 144.999 102.719 145.073 103.012 145.072C103.314 145.07 103.603 144.982 103.879 144.811C104.161 144.642 104.397 144.394 104.587 144.065ZM106.239 145.018C106.515 144.539 106.858 144.171 107.268 143.915C107.684 143.662 108.12 143.533 108.577 143.528C109.044 143.52 109.485 143.636 109.9 143.876C110.276 144.093 110.558 144.356 110.749 144.666C110.949 144.974 111.069 145.286 111.109 145.602L111.509 144.909L112.505 145.484L109.75 150.256L108.754 149.681L109.164 148.971C108.867 149.099 108.531 149.155 108.155 149.139C107.78 149.122 107.408 149.007 107.038 148.794C106.628 148.557 106.313 148.237 106.092 147.832C105.875 147.422 105.774 146.971 105.788 146.479C105.812 145.984 105.962 145.498 106.239 145.018ZM110.134 147.291C110.324 146.962 110.42 146.636 110.422 146.313C110.429 145.994 110.359 145.708 110.213 145.454C110.067 145.2 109.867 145 109.613 144.854C109.359 144.707 109.086 144.634 108.793 144.634C108.504 144.629 108.22 144.707 107.941 144.87C107.672 145.03 107.442 145.274 107.252 145.603C107.062 145.932 106.962 146.259 106.951 146.584C106.946 146.913 107.015 147.207 107.158 147.466C107.31 147.723 107.51 147.923 107.758 148.066C108.012 148.213 108.286 148.286 108.578 148.286C108.871 148.286 109.154 148.203 109.427 148.037C109.708 147.868 109.944 147.62 110.134 147.291ZM114.489 147.703L112.964 150.345C112.861 150.524 112.826 150.677 112.86 150.804C112.903 150.929 113.026 151.05 113.228 151.167L113.834 151.517L113.359 152.34L112.58 151.89C112.135 151.633 111.855 151.332 111.738 150.988C111.621 150.643 111.698 150.237 111.968 149.77L113.493 147.128L112.93 146.803L113.395 145.998L113.958 146.323L114.643 145.136L115.639 145.711L114.954 146.898L116.114 147.568L115.649 148.373L114.489 147.703ZM117.58 151.566C117.857 151.087 118.2 150.719 118.609 150.463C119.025 150.21 119.461 150.081 119.918 150.076C120.385 150.068 120.826 150.184 121.242 150.424C121.617 150.641 121.9 150.904 122.09 151.214C122.29 151.522 122.41 151.834 122.451 152.15L122.851 151.457L123.847 152.032L121.092 156.804L120.096 156.229L120.506 155.519C120.208 155.647 119.872 155.703 119.496 155.687C119.121 155.67 118.749 155.555 118.379 155.342C117.969 155.105 117.654 154.784 117.433 154.38C117.216 153.97 117.115 153.519 117.129 153.027C117.153 152.532 117.303 152.045 117.58 151.566ZM121.476 153.839C121.666 153.509 121.761 153.184 121.763 152.861C121.77 152.542 121.701 152.256 121.555 152.002C121.408 151.748 121.208 151.548 120.954 151.401C120.7 151.255 120.427 151.182 120.134 151.182C119.845 151.176 119.561 151.255 119.282 151.418C119.013 151.578 118.783 151.822 118.593 152.151C118.403 152.48 118.303 152.807 118.292 153.132C118.288 153.461 118.357 153.754 118.499 154.014C118.651 154.271 118.851 154.471 119.099 154.614C119.353 154.761 119.627 154.834 119.92 154.834C120.212 154.833 120.495 154.75 120.768 154.585C121.05 154.416 121.286 154.168 121.476 153.839ZM130.965 156.038C131.34 156.254 131.63 156.526 131.834 156.852C132.045 157.181 132.145 157.547 132.136 157.949C132.132 158.355 132.006 158.775 131.756 159.208L130.131 162.022L129.152 161.457L130.692 158.79C130.939 158.363 131.02 157.975 130.937 157.626C130.856 157.272 130.631 156.988 130.262 156.775C129.892 156.562 129.531 156.507 129.179 156.611C128.835 156.713 128.54 156.978 128.293 157.405L126.753 160.072L125.774 159.507L127.314 156.84C127.561 156.413 127.643 156.025 127.559 155.676C127.479 155.322 127.254 155.038 126.884 154.825C126.515 154.612 126.154 154.557 125.801 154.661C125.457 154.763 125.162 155.028 124.916 155.455L123.376 158.122L122.388 157.552L125.143 152.781L126.131 153.351L125.816 153.896C126.091 153.793 126.384 153.759 126.695 153.792C127.007 153.826 127.304 153.924 127.587 154.088C127.968 154.308 128.262 154.585 128.469 154.92C128.676 155.255 128.772 155.622 128.757 156.022C129.068 155.816 129.425 155.718 129.827 155.728C130.233 155.731 130.613 155.834 130.965 156.038ZM137.205 162.77C137.102 162.949 136.997 163.104 136.891 163.235L133.245 161.13C133.054 161.528 133.018 161.915 133.139 162.293C133.26 162.671 133.505 162.966 133.874 163.179C134.406 163.486 134.909 163.48 135.385 163.162L136.45 163.777C136.053 164.133 135.582 164.342 135.037 164.405C134.502 164.465 133.954 164.334 133.394 164.011C132.938 163.747 132.587 163.41 132.34 162.998C132.102 162.583 131.985 162.131 131.991 161.642C132.005 161.15 132.154 160.658 132.438 160.168C132.721 159.677 133.068 159.303 133.477 159.047C133.896 158.789 134.343 158.662 134.817 158.666C135.298 158.674 135.772 158.813 136.239 159.083C136.69 159.343 137.034 159.673 137.273 160.072C137.512 160.472 137.626 160.908 137.616 161.379C137.609 161.844 137.472 162.308 137.205 162.77ZM136.355 161.863C136.559 161.496 136.597 161.13 136.47 160.763C136.343 160.397 136.091 160.106 135.716 159.889C135.375 159.693 135.021 159.634 134.651 159.713C134.286 159.787 133.973 159.995 133.713 160.338L136.355 161.863ZM140.174 162.532L138.649 165.174C138.545 165.353 138.511 165.506 138.545 165.633C138.588 165.758 138.711 165.879 138.913 165.996L139.519 166.346L139.044 167.169L138.265 166.719C137.82 166.462 137.54 166.161 137.423 165.817C137.306 165.472 137.383 165.066 137.653 164.599L139.178 161.957L138.615 161.632L139.08 160.827L139.643 161.152L140.328 159.965L141.324 160.54L140.639 161.727L141.799 162.397L141.334 163.202L140.174 162.532ZM140.317 167.985C140.138 167.881 140.023 167.734 139.972 167.543C139.921 167.352 139.947 167.166 140.05 166.987C140.154 166.808 140.301 166.693 140.492 166.642C140.683 166.591 140.868 166.617 141.047 166.72C141.221 166.82 141.333 166.966 141.384 167.157C141.435 167.348 141.409 167.533 141.306 167.712C141.203 167.891 141.055 168.007 140.864 168.058C140.673 168.109 140.491 168.085 140.317 167.985Z" fill="#373737"/>
<rect x="458.155" y="204.183" width="194" height="407" rx="20.5" transform="rotate(120 458.155 204.183)" stroke="#2F2F2F"/>
<rect x="438.531" y="210.173" width="165" height="125" rx="20.5" transform="rotate(120 438.531 210.173)" stroke="#2F2F2F"/>
<mask id="path-4-inside-1_16_654" fill="white">
<path d="M442.178 212.856C452.222 218.655 455.663 231.499 449.864 241.543L373.364 374.045C367.565 384.089 354.722 387.53 344.678 381.731L27.7124 198.731C17.6683 192.932 14.2269 180.089 20.0259 170.045L96.5259 37.5429C102.325 27.4988 115.168 24.0574 125.212 29.8564L442.178 212.856Z"/>
</mask>
<path d="M442.178 212.856C452.7 218.932 456.305 232.387 450.23 242.909L374.23 374.545C368.155 385.067 354.7 388.673 344.178 382.597L345.178 380.865C354.744 386.388 366.975 383.111 372.498 373.545L448.998 241.043C454.797 230.999 451.744 218.379 442.178 212.856ZM9.52588 188.231L107.026 19.3564L9.52588 188.231ZM107.026 19.3564L460.364 223.356L107.026 19.3564ZM374.23 374.545C368.155 385.067 354.7 388.673 344.178 382.597L28.0784 200.097C17.556 194.022 13.9507 180.567 20.0259 170.045C14.503 179.611 18.1683 192.066 28.2124 197.865L345.178 380.865C354.744 386.388 366.975 383.111 372.498 373.545L374.23 374.545Z" fill="#2F2F2F" mask="url(#path-4-inside-1_16_654)"/>
<g filter="url(#filter0_i_16_654)">
<circle cx="119.713" cy="39.3827" r="11" transform="rotate(30 119.713 39.3827)" fill="#585858"/>
<circle cx="155.22" cy="59.8827" r="11" transform="rotate(30 155.22 59.8827)" fill="#424242"/>
<circle cx="190.726" cy="80.3827" r="11" transform="rotate(30 190.726 80.3827)" fill="#2D2D2D"/>
</g>
<g clip-path="url(#clip0_16_654)">
<path d="M333.702 249.243L335.364 258.863L348.567 253.495L350.81 272.111L320.499 254.611L333.702 249.243ZM353.89 276.776L371.39 246.465C372.778 244.062 371.942 241.01 369.56 239.635L339.249 222.135C338.101 221.472 336.736 221.292 335.455 221.635C334.174 221.979 333.082 222.817 332.419 223.965L314.919 254.276C314.256 255.424 314.076 256.789 314.419 258.07C314.763 259.351 315.601 260.443 316.749 261.106L347.06 278.606C348.208 279.269 349.573 279.449 350.854 279.106C352.135 278.762 353.227 277.924 353.89 276.776Z" fill="#2C2C2C"/>
</g>
</g>
<defs>
<filter id="filter0_i_16_654" x="82.8301" y="2.50002" width="144.779" height="118.765" filterUnits="userSpaceOnUse" color-interpolation-filters="sRGB">
<feFlood flood-opacity="0" result="BackgroundImageFix"/>
<feBlend mode="normal" in="SourceGraphic" in2="BackgroundImageFix" result="shape"/>
<feColorMatrix in="SourceAlpha" type="matrix" values="0 0 0 0 0 0 0 0 0 0 0 0 0 0 0 0 0 0 127 0" result="hardAlpha"/>
<feOffset dy="4"/>
<feGaussianBlur stdDeviation="2"/>
<feComposite in2="hardAlpha" operator="arithmetic" k2="-1" k3="1"/>
<feColorMatrix type="matrix" values="0 0 0 0 0 0 0 0 0 0 0 0 0 0 0 0 0 0 0.25 0"/>
<feBlend mode="normal" in2="shape" result="effect1_innerShadow_16_654"/>
</filter>
<clipPath id="clip0_16_654">
<rect width="60" height="60" fill="white" transform="translate(332.174 209.39) rotate(30)"/>
</clipPath>
</defs>
</svg>
