<svg width="330" height="393" viewBox="0 0 330 393" fill="none" xmlns="http://www.w3.org/2000/svg">
<g opacity="0.51">
<path d="M-71.208 265.138L-69.1728 263.963L-68.7128 264.76L-71.7352 266.505L-75.2102 260.486L-74.223 259.916L-71.208 265.138ZM-65.7724 263.166C-66.2227 263.426 -66.6881 263.56 -67.1685 263.568C-67.6522 263.57 -68.1047 263.447 -68.5258 263.197C-68.9504 262.942 -69.3043 262.569 -69.5876 262.078C-69.8676 261.593 -70.0091 261.101 -70.0122 260.603C-70.0152 260.104 -69.8903 259.647 -69.6375 259.232C-69.3847 258.816 -69.0302 258.477 -68.5741 258.214C-68.118 257.95 -67.6468 257.813 -67.1607 257.802C-66.6745 257.791 -66.2163 257.911 -65.786 258.163C-65.3557 258.415 -65.0006 258.783 -64.7206 259.268C-64.4406 259.753 -64.3019 260.247 -64.3046 260.749C-64.3074 261.251 -64.4393 261.715 -64.7003 262.143C-64.9589 262.562 -65.3163 262.903 -65.7724 263.166ZM-66.2674 262.309C-66.0133 262.162 -65.8116 261.965 -65.6622 261.717C-65.5071 261.466 -65.4302 261.179 -65.4316 260.857C-65.4331 260.534 -65.5338 260.2 -65.7338 259.853C-65.9338 259.507 -66.1685 259.254 -66.438 259.094C-66.7108 258.928 -66.9919 258.847 -67.2813 258.853C-67.5707 258.858 -67.8424 258.934 -68.0964 259.081C-68.3504 259.228 -68.5522 259.425 -68.7015 259.673C-68.8452 259.917 -68.9105 260.198 -68.8975 260.514C-68.8878 260.824 -68.783 261.152 -68.583 261.498C-68.2864 262.012 -67.9265 262.335 -67.5033 262.468C-67.0777 262.592 -66.6658 262.539 -66.2674 262.309ZM-63.7323 256.446C-63.728 256.12 -63.6458 255.823 -63.4857 255.553C-63.3232 255.274 -63.0775 255.04 -62.7484 254.85L-62.1584 255.872L-62.4095 256.017C-62.7963 256.24 -63.0341 256.509 -63.1229 256.822C-63.2058 257.131 -63.1073 257.528 -62.8273 258.013L-61.3773 260.525L-62.3646 261.095L-65.1196 256.323L-64.1323 255.753L-63.7323 256.446ZM-56.1124 254.148C-56.0091 254.327 -55.9273 254.495 -55.8671 254.653L-59.5131 256.758C-59.2642 257.123 -58.9461 257.347 -58.5587 257.431C-58.1713 257.515 -57.7929 257.451 -57.4234 257.238C-56.8922 256.931 -56.6453 256.492 -56.6826 255.921L-55.6173 255.306C-55.5084 255.828 -55.5627 256.34 -55.7804 256.843C-55.9957 257.337 -56.3834 257.746 -56.9434 258.069C-57.3995 258.332 -57.8677 258.468 -58.3481 258.476C-58.8261 258.475 -59.2757 258.349 -59.6969 258.1C-60.1156 257.841 -60.4666 257.467 -60.75 256.976C-61.0333 256.485 -61.1835 255.998 -61.2005 255.515C-61.2151 255.023 -61.1018 254.573 -60.8605 254.164C-60.6134 253.752 -60.256 253.411 -59.7884 253.141C-59.3381 252.881 -58.8801 252.748 -58.4146 252.741C-57.9491 252.734 -57.5149 252.852 -57.1119 253.097C-56.7123 253.336 -56.3791 253.686 -56.1124 254.148ZM-57.323 254.431C-57.5388 254.071 -57.837 253.854 -58.2177 253.782C-58.5984 253.709 -58.9764 253.781 -59.3517 253.998C-59.6923 254.194 -59.9206 254.472 -60.0364 254.832C-60.1555 255.185 -60.1315 255.56 -59.9644 255.956L-57.323 254.431ZM-50.7195 247.905C-50.3442 247.689 -49.9643 247.573 -49.5799 247.559C-49.1897 247.542 -48.8225 247.638 -48.4784 247.847C-48.1285 248.053 -47.8286 248.372 -47.5786 248.805L-45.9536 251.62L-46.9322 252.185L-48.4722 249.518C-48.7189 249.09 -49.014 248.826 -49.3576 248.724C-49.7046 248.616 -50.0628 248.669 -50.4323 248.883C-50.8018 249.096 -51.0296 249.381 -51.1157 249.739C-51.1993 250.088 -51.1178 250.475 -50.8711 250.903L-49.3311 253.57L-50.3097 254.135L-51.8497 251.468C-52.0964 251.04 -52.3915 250.776 -52.7351 250.674C-53.0821 250.566 -53.4403 250.619 -53.8098 250.833C-54.1793 251.046 -54.4071 251.331 -54.4932 251.689C-54.5768 252.038 -54.4953 252.425 -54.2486 252.853L-52.7086 255.52L-53.6959 256.09L-56.4509 251.318L-55.4636 250.748L-55.1486 251.294C-55.1003 251.004 -54.9837 250.733 -54.7987 250.48C-54.6138 250.227 -54.3799 250.019 -54.097 249.855C-53.7159 249.635 -53.3286 249.519 -52.9351 249.508C-52.5415 249.496 -52.1756 249.597 -51.8372 249.809C-51.8596 249.437 -51.7661 249.079 -51.5567 248.735C-51.3508 248.385 -51.0717 248.109 -50.7195 247.905ZM-45.0654 243.902C-45.2444 244.005 -45.4295 244.031 -45.6207 243.98C-45.812 243.929 -45.9593 243.814 -46.0626 243.635C-46.1659 243.456 -46.192 243.271 -46.1407 243.079C-46.0895 242.888 -45.9744 242.741 -45.7954 242.638C-45.6222 242.538 -45.44 242.513 -45.2487 242.564C-45.0575 242.616 -44.9102 242.731 -44.8069 242.91C-44.7035 243.089 -44.6775 243.274 -44.7287 243.465C-44.78 243.656 -44.8922 243.802 -45.0654 243.902ZM-44.2154 244.254L-41.4604 249.026L-42.4477 249.596L-45.2027 244.824L-44.2154 244.254ZM-41.527 243.637C-41.4862 243.321 -41.3648 243.005 -41.1628 242.688C-40.9608 242.371 -40.6779 242.108 -40.3142 241.898C-39.8985 241.658 -39.4603 241.543 -38.9997 241.555C-38.5366 241.557 -38.1003 241.686 -37.6906 241.942C-37.281 242.198 -36.9378 242.566 -36.6612 243.045C-36.3845 243.524 -36.2343 244.011 -36.2106 244.505C-36.1903 244.994 -36.2916 245.445 -36.5147 245.859C-36.7353 246.263 -37.0535 246.586 -37.4692 246.826C-37.8329 247.036 -38.1979 247.15 -38.5641 247.169C-38.9337 247.182 -39.2713 247.131 -39.577 247.015L-37.867 249.977L-38.8542 250.547L-42.9192 243.506L-41.932 242.936L-41.527 243.637ZM-37.6658 243.625C-37.8558 243.296 -38.0884 243.053 -38.3636 242.896C-38.6364 242.73 -38.9204 242.652 -39.2156 242.661C-39.5083 242.66 -39.7817 242.734 -40.0357 242.88C-40.284 243.024 -40.484 243.224 -40.6358 243.481C-40.7819 243.734 -40.8542 244.022 -40.8528 244.345C-40.8456 244.664 -40.747 244.988 -40.557 245.317C-40.367 245.646 -40.1339 245.897 -39.8578 246.068C-39.5792 246.231 -39.2936 246.312 -39.0008 246.313C-38.7023 246.31 -38.429 246.236 -38.1807 246.093C-37.9267 245.946 -37.7266 245.746 -37.5806 245.493C-37.4321 245.23 -37.3631 244.936 -37.3736 244.611C-37.3784 244.283 -37.4758 243.954 -37.6658 243.625ZM-32.5178 243.967C-32.8931 244.183 -33.2692 244.312 -33.6461 244.353C-34.0205 244.384 -34.361 244.334 -34.6676 244.203C-34.9774 244.067 -35.2215 243.857 -35.3997 243.575L-34.3778 242.985C-34.2438 243.177 -34.0502 243.293 -33.797 243.331C-33.5413 243.361 -33.2807 243.299 -33.0151 243.145C-32.738 242.985 -32.5544 242.81 -32.4643 242.62C-32.3717 242.42 -32.3738 242.236 -32.4705 242.069C-32.5738 241.89 -32.7371 241.807 -32.9603 241.82C-33.1777 241.831 -33.5012 241.89 -33.9307 242C-34.3453 242.108 -34.6919 242.181 -34.9704 242.219C-35.2489 242.257 -35.5268 242.228 -35.8042 242.135C-36.0759 242.037 -36.3017 241.833 -36.4817 241.521C-36.6284 241.267 -36.6867 240.993 -36.6566 240.698C-36.6298 240.398 -36.5128 240.107 -36.3057 239.826C-36.0928 239.541 -35.8045 239.294 -35.4408 239.084C-34.8981 238.771 -34.3822 238.658 -33.8931 238.745C-33.4015 238.823 -33.0076 239.092 -32.7111 239.552L-33.6984 240.122C-33.8391 239.918 -34.024 239.798 -34.2532 239.761C-34.4824 239.724 -34.7298 239.782 -34.9954 239.936C-35.2552 240.086 -35.4261 240.25 -35.508 240.428C-35.5899 240.606 -35.5841 240.776 -35.4908 240.937C-35.4175 241.064 -35.3096 241.145 -35.1672 241.178C-35.0249 241.211 -34.8723 241.215 -34.7095 241.191C-34.55 241.16 -34.3187 241.108 -34.0156 241.033C-33.6159 240.925 -33.278 240.857 -33.0019 240.828C-32.7234 240.791 -32.45 240.818 -32.1817 240.909C-31.9133 241.001 -31.6879 241.198 -31.5055 241.5C-31.3488 241.772 -31.2839 242.057 -31.3107 242.358C-31.3375 242.658 -31.4544 242.949 -31.6615 243.23C-31.8629 243.508 -32.1483 243.753 -32.5178 243.967ZM-28.1023 234.951L-25.3473 239.723L-26.3345 240.293L-26.6595 239.73C-26.7021 240.016 -26.8171 240.291 -27.0044 240.553C-27.1893 240.806 -27.4233 241.014 -27.7062 241.177C-28.0814 241.394 -28.4642 241.511 -28.8544 241.528C-29.2389 241.543 -29.606 241.447 -29.9559 241.241C-30.3 241.031 -30.597 240.71 -30.847 240.277L-32.467 237.471L-31.4884 236.906L-29.9534 239.565C-29.7068 239.992 -29.41 240.26 -29.063 240.367C-28.7194 240.469 -28.3628 240.413 -27.9933 240.2C-27.6238 239.987 -27.3973 239.706 -27.3136 239.357C-27.2276 239 -27.3079 238.607 -27.5545 238.18L-29.0895 235.521L-28.1023 234.951ZM-21.0683 230.786C-20.693 230.57 -20.3131 230.454 -19.9287 230.44C-19.5384 230.423 -19.1713 230.518 -18.8272 230.728C-18.4773 230.934 -18.1774 231.253 -17.9274 231.686L-16.3024 234.501L-17.281 235.066L-18.821 232.399C-19.0677 231.971 -19.3628 231.707 -19.7064 231.605C-20.0534 231.497 -20.4116 231.55 -20.7811 231.764C-21.1506 231.977 -21.3784 232.262 -21.4645 232.62C-21.5481 232.968 -21.4665 233.356 -21.2199 233.784L-19.6799 236.451L-20.6585 237.016L-22.1985 234.349C-22.4452 233.921 -22.7403 233.657 -23.0839 233.555C-23.4309 233.447 -23.7891 233.5 -24.1586 233.714C-24.5281 233.927 -24.7559 234.212 -24.842 234.57C-24.9256 234.918 -24.844 235.306 -24.5974 235.734L-23.0574 238.401L-24.0446 238.971L-26.7996 234.199L-25.8124 233.629L-25.4974 234.175C-25.4491 233.885 -25.3324 233.614 -25.1475 233.361C-24.9626 233.108 -24.7287 232.9 -24.4458 232.736C-24.0647 232.516 -23.6774 232.4 -23.2838 232.389C-22.8903 232.377 -22.5244 232.477 -22.186 232.69C-22.2084 232.318 -22.1149 231.96 -21.9055 231.616C-21.6995 231.266 -21.4204 230.99 -21.0683 230.786ZM-14.5156 230.259C-14.7922 229.78 -14.9391 229.299 -14.9561 228.816C-14.9674 228.33 -14.861 227.888 -14.637 227.489C-14.4106 227.081 -14.0867 226.755 -13.6652 226.512C-13.3535 226.332 -13.0075 226.225 -12.6272 226.19C-12.2446 226.146 -11.8988 226.185 -11.5898 226.307L-12.9198 224.003L-11.9239 223.428L-8.22385 229.837L-9.21978 230.412L-9.63478 229.693C-9.66311 230.017 -9.77827 230.338 -9.98028 230.655C-10.1765 230.968 -10.4594 231.231 -10.8289 231.445C-11.2446 231.685 -11.6856 231.801 -12.152 231.793C-12.616 231.776 -13.0574 231.638 -13.4761 231.38C-13.8924 231.112 -14.2389 230.738 -14.5156 230.259ZM-10.5998 228.022C-10.7898 227.692 -11.0241 227.447 -11.3026 227.284C-11.5754 227.118 -11.8582 227.035 -12.1509 227.035C-12.4436 227.035 -12.717 227.108 -12.971 227.254C-13.2251 227.401 -13.4251 227.601 -13.5712 227.855C-13.7206 228.103 -13.7946 228.388 -13.7931 228.711C-13.7892 229.024 -13.6923 229.345 -13.5023 229.674C-13.3123 230.003 -13.0792 230.254 -12.8031 230.425C-12.5212 230.594 -12.2322 230.681 -11.9362 230.687C-11.6377 230.684 -11.3643 230.611 -11.116 230.467C-10.862 230.321 -10.662 230.121 -10.5159 229.867C-10.3698 229.613 -10.3004 229.327 -10.3076 229.008C-10.3124 228.679 -10.4098 228.351 -10.5998 228.022ZM-4.81232 227.971C-5.26265 228.231 -5.72801 228.365 -6.20841 228.373C-6.69214 228.375 -7.1446 228.251 -7.56578 228.002C-7.99029 227.747 -8.34421 227.374 -8.62755 226.883C-8.90755 226.398 -9.04907 225.906 -9.05212 225.407C-9.05516 224.909 -8.93027 224.452 -8.67743 224.036C-8.42459 223.621 -8.07012 223.282 -7.61401 223.018C-7.15791 222.755 -6.68677 222.618 -6.2006 222.606C-5.71443 222.595 -5.2562 222.716 -4.82591 222.967C-4.39563 223.219 -4.04048 223.588 -3.76048 224.073C-3.48048 224.558 -3.34185 225.051 -3.34457 225.553C-3.3473 226.055 -3.47919 226.52 -3.74024 226.948C-3.99885 227.367 -4.35621 227.708 -4.81232 227.971ZM-5.30732 227.114C-5.05328 226.967 -4.85157 226.77 -4.70217 226.522C-4.54701 226.271 -4.47014 225.984 -4.47158 225.661C-4.47301 225.339 -4.57373 225.004 -4.77373 224.658C-4.97373 224.311 -5.20846 224.058 -5.47792 223.898C-5.75071 223.732 -6.0318 223.652 -6.32119 223.658C-6.61059 223.663 -6.8823 223.739 -7.13633 223.886C-7.39037 224.032 -7.59208 224.23 -7.74148 224.478C-7.8851 224.722 -7.95041 225.002 -7.93743 225.318C-7.92778 225.628 -7.82296 225.956 -7.62296 226.303C-7.32629 226.817 -6.96639 227.14 -6.54324 227.273C-6.11766 227.397 -5.70569 227.344 -5.30732 227.114ZM-4.11724 218.921L-0.417244 225.33L-1.40451 225.9L-5.10451 219.491L-4.11724 218.921ZM2.99375 223.464C2.54342 223.724 2.07805 223.858 1.59766 223.866C1.11393 223.868 0.661472 223.745 0.240292 223.495C-0.184221 223.24 -0.538144 222.867 -0.821477 222.376C-1.10148 221.891 -1.243 221.399 -1.24605 220.901C-1.24909 220.402 -1.1242 219.945 -0.871362 219.53C-0.618524 219.114 -0.264052 218.775 0.192054 218.512C0.648161 218.248 1.1193 218.111 1.60547 218.1C2.09164 218.088 2.54987 218.209 2.98016 218.461C3.41044 218.713 3.76559 219.081 4.04559 219.566C4.32559 220.051 4.46422 220.544 4.4615 221.046C4.45877 221.548 4.32688 222.013 4.06583 222.441C3.80722 222.86 3.44986 223.201 2.99375 223.464ZM2.49875 222.607C2.75279 222.46 2.9545 222.263 3.10389 222.015C3.25906 221.764 3.33593 221.477 3.33449 221.154C3.33305 220.832 3.23234 220.497 3.03234 220.151C2.83234 219.805 2.59761 219.551 2.32815 219.391C2.05536 219.226 1.77427 219.145 1.48487 219.151C1.19548 219.156 0.923768 219.232 0.669734 219.379C0.4157 219.526 0.213986 219.723 0.0645931 219.971C-0.0790265 220.215 -0.144345 220.496 -0.131362 220.811C-0.121712 221.121 -0.0168875 221.45 0.183113 221.796C0.479779 222.31 0.839683 222.633 1.26282 222.766C1.68841 222.89 2.10038 222.837 2.49875 222.607ZM5.03382 216.744C5.03816 216.418 5.12035 216.12 5.2804 215.851C5.44289 215.572 5.68868 215.338 6.01777 215.148L6.60777 216.17L6.35662 216.315C5.96979 216.538 5.73201 216.806 5.64327 217.119C5.56031 217.429 5.65882 217.826 5.93882 218.311L7.38882 220.823L6.40156 221.393L3.64656 216.621L4.63382 216.051L5.03382 216.744ZM13.752 217.253C13.3767 217.47 13.0006 217.598 12.6237 217.639C12.2493 217.67 11.9088 217.62 11.6022 217.49C11.2924 217.353 11.0483 217.143 10.8701 216.861L11.892 216.271C12.026 216.464 12.2196 216.579 12.4728 216.617C12.7284 216.647 12.9891 216.585 13.2546 216.432C13.5318 216.272 13.7154 216.096 13.8055 215.906C13.898 215.706 13.896 215.522 13.7993 215.355C13.696 215.176 13.5327 215.093 13.3095 215.107C13.0921 215.117 12.7686 215.176 12.3391 215.286C11.9245 215.394 11.5779 215.467 11.2994 215.505C11.0209 215.543 10.743 215.515 10.4655 215.421C10.1939 215.324 9.96804 215.119 9.78804 214.807C9.64137 214.553 9.58309 214.279 9.6132 213.984C9.63998 213.684 9.75693 213.393 9.96406 213.112C10.177 212.828 10.4653 212.58 10.829 212.37C11.3717 212.057 11.8876 211.944 12.3767 212.031C12.8682 212.109 13.2622 212.378 13.5586 212.838L12.5714 213.408C12.4307 213.205 12.2458 213.084 12.0166 213.047C11.7874 213.01 11.54 213.068 11.2744 213.222C11.0146 213.372 10.8437 213.536 10.7618 213.714C10.6799 213.892 10.6856 214.062 10.779 214.224C10.8523 214.351 10.9602 214.431 11.1025 214.464C11.2449 214.497 11.3975 214.502 11.5603 214.477C11.7197 214.446 11.951 214.394 12.2542 214.319C12.6539 214.211 12.9918 214.143 13.2679 214.115C13.5464 214.077 13.8198 214.104 14.0881 214.195C14.3564 214.287 14.5818 214.484 14.7643 214.786C14.9209 215.058 14.9859 215.344 14.9591 215.644C14.9323 215.944 14.8154 216.235 14.6082 216.516C14.4069 216.794 14.1215 217.04 13.752 217.253ZM13.9833 209.81C13.8044 209.913 13.6192 209.94 13.428 209.888C13.2368 209.837 13.0895 209.722 12.9861 209.543C12.8828 209.364 12.8568 209.179 12.908 208.988C12.9592 208.796 13.0744 208.649 13.2533 208.546C13.4265 208.446 13.6088 208.421 13.8 208.473C13.9912 208.524 14.1385 208.639 14.2419 208.818C14.3452 208.997 14.3712 209.182 14.32 209.373C14.2688 209.565 14.1565 209.71 13.9833 209.81ZM14.8333 210.162L17.5883 214.934L16.601 215.504L13.846 210.732L14.8333 210.162ZM17.7463 209.554L19.2713 212.196C19.3746 212.375 19.4901 212.481 19.6176 212.515C19.7475 212.541 19.9135 212.495 20.1156 212.378L20.7218 212.028L21.1968 212.851L20.4174 213.301C19.9728 213.557 19.5722 213.65 19.2155 213.579C18.8587 213.508 18.5454 213.238 18.2754 212.771L16.7504 210.129L16.1875 210.454L15.7225 209.649L16.2854 209.324L15.6004 208.138L16.5963 207.563L17.2813 208.749L18.4418 208.079L18.9068 208.884L17.7463 209.554ZM22.6373 208.809C22.3606 208.33 22.2138 207.849 22.1967 207.366C22.1855 206.88 22.2918 206.437 22.5158 206.039C22.7422 205.631 23.0632 205.307 23.4789 205.067C23.8542 204.85 24.2237 204.737 24.5875 204.727C24.9538 204.708 25.2839 204.76 25.578 204.883L25.178 204.19L26.174 203.615L28.929 208.387L27.933 208.962L27.523 208.251C27.4856 208.573 27.3659 208.893 27.1639 209.209C26.9619 209.526 26.6761 209.791 26.3066 210.005C25.8967 210.241 25.4614 210.354 25.0008 210.343C24.5368 210.326 24.0955 210.188 23.6767 209.929C23.2604 209.662 22.9139 209.288 22.6373 208.809ZM26.553 206.571C26.363 206.242 26.1288 205.996 25.8502 205.834C25.5774 205.668 25.2946 205.585 25.0019 205.585C24.7092 205.584 24.4358 205.658 24.1818 205.804C23.9277 205.951 23.7277 206.151 23.5816 206.405C23.4322 206.653 23.3583 206.938 23.3597 207.26C23.3636 207.574 23.4605 207.895 23.6505 208.224C23.8405 208.553 24.0736 208.803 24.3497 208.975C24.6316 209.143 24.9206 209.231 25.2166 209.237C25.5151 209.234 25.7885 209.16 26.0368 209.017C26.2908 208.87 26.4909 208.67 26.6369 208.417C26.783 208.163 26.8524 207.877 26.8452 207.557C26.8404 207.229 26.743 206.9 26.553 206.571ZM33.2021 199.453C33.5774 199.237 33.9572 199.121 34.3417 199.107C34.7319 199.09 35.0991 199.185 35.4432 199.395C35.793 199.601 36.093 199.92 36.343 200.353L37.968 203.168L36.9894 203.733L35.4494 201.066C35.2027 200.638 34.9076 200.374 34.5639 200.272C34.217 200.164 33.8588 200.217 33.4893 200.431C33.1198 200.644 32.892 200.929 32.8059 201.287C32.7223 201.635 32.8038 202.023 33.0505 202.451L34.5905 205.118L33.6119 205.683L32.0719 203.016C31.8252 202.588 31.5301 202.324 31.1864 202.222C30.8395 202.114 30.4813 202.167 30.1118 202.381C29.7423 202.594 29.5145 202.879 29.4284 203.237C29.3448 203.585 29.4263 203.973 29.673 204.401L31.213 207.068L30.2257 207.638L27.4707 202.866L28.458 202.296L28.773 202.842C28.8213 202.552 28.9379 202.281 29.1229 202.028C29.3078 201.775 29.5417 201.567 29.8246 201.403C30.2057 201.183 30.593 201.067 30.9865 201.056C31.3801 201.044 31.746 201.144 32.0843 201.357C32.062 200.985 32.1555 200.627 32.3648 200.283C32.5708 199.933 32.8499 199.657 33.2021 199.453ZM42.1527 197.415C42.256 197.594 42.3378 197.762 42.398 197.92L38.7521 200.025C39.0009 200.389 39.3191 200.613 39.7064 200.698C40.0938 200.782 40.4722 200.717 40.8417 200.504C41.3729 200.197 41.6198 199.759 41.5826 199.187L42.6478 198.572C42.7568 199.094 42.7024 199.607 42.4847 200.11C42.2694 200.604 41.8818 201.012 41.3217 201.336C40.8656 201.599 40.3974 201.735 39.917 201.742C39.439 201.741 38.9895 201.616 38.5683 201.366C38.1495 201.108 37.7985 200.733 37.5152 200.242C37.2318 199.752 37.0816 199.265 37.0646 198.782C37.05 198.29 37.1634 197.84 37.4047 197.431C37.6517 197.019 38.0091 196.678 38.4767 196.408C38.9271 196.148 39.385 196.014 39.8505 196.007C40.316 196 40.7503 196.119 41.1532 196.364C41.5529 196.603 41.886 196.953 42.1527 197.415ZM40.9421 197.698C40.7263 197.338 40.4281 197.121 40.0474 197.048C39.6667 196.976 39.2887 197.048 38.9134 197.264C38.5728 197.461 38.3446 197.739 38.2287 198.098C38.1096 198.452 38.1336 198.827 38.3007 199.223L40.9421 197.698ZM43.4311 194.725L44.9561 197.367C45.0594 197.546 45.1748 197.652 45.3023 197.686C45.4323 197.711 45.5983 197.666 45.8003 197.549L46.4065 197.199L46.8815 198.022L46.1021 198.472C45.6576 198.728 45.2569 198.821 44.9002 198.75C44.5435 198.679 44.2301 198.409 43.9601 197.942L42.4351 195.3L41.8722 195.625L41.4072 194.82L41.9701 194.495L41.2851 193.308L42.2811 192.733L42.9661 193.92L44.1265 193.25L44.5915 194.055L43.4311 194.725ZM48.332 193.997C48.0487 193.507 47.8985 193.02 47.8815 192.537C47.8669 192.045 47.9773 191.596 48.2129 191.191C48.4484 190.785 48.7942 190.451 49.2503 190.188C49.8276 189.854 50.384 189.718 50.9192 189.778C51.457 189.83 51.9389 190.071 52.365 190.503L51.2998 191.118C51.0765 190.931 50.8313 190.826 50.5641 190.803C50.2969 190.781 50.019 190.852 49.7303 191.019C49.3262 191.252 49.0862 191.583 49.0103 192.012C48.937 192.432 49.0486 192.898 49.3453 193.412C49.6419 193.926 49.992 194.259 50.3953 194.411C50.8045 194.56 51.2112 194.517 51.6153 194.284C52.1869 193.954 52.42 193.485 52.3148 192.876L53.38 192.261C53.5214 192.826 53.485 193.362 53.2706 193.871C53.0529 194.374 52.6611 194.789 52.0953 195.115C51.6392 195.379 51.1767 195.511 50.7079 195.512C50.2357 195.508 49.7919 195.379 49.3765 195.126C48.9635 194.864 48.6154 194.488 48.332 193.997ZM57.3487 192.082C56.8984 192.342 56.433 192.476 55.9526 192.484C55.4689 192.486 55.0164 192.363 54.5952 192.113C54.1707 191.858 53.8168 191.485 53.5335 190.994C53.2535 190.509 53.1119 190.017 53.1089 189.519C53.1058 189.02 53.2307 188.563 53.4836 188.148C53.7364 187.732 54.0909 187.393 54.547 187.13C55.0031 186.866 55.4742 186.729 55.9604 186.718C56.4466 186.707 56.9048 186.827 57.3351 187.079C57.7654 187.331 58.1205 187.699 58.4005 188.184C58.6805 188.669 58.8192 189.163 58.8164 189.665C58.8137 190.167 58.6818 190.631 58.4208 191.059C58.1622 191.478 57.8048 191.819 57.3487 192.082ZM56.8537 191.225C57.1077 191.078 57.3094 190.881 57.4588 190.633C57.614 190.382 57.6909 190.095 57.6894 189.773C57.688 189.45 57.5873 189.116 57.3873 188.769C57.1873 188.423 56.9525 188.17 56.6831 188.01C56.4103 187.844 56.1292 187.764 55.8398 187.769C55.5504 187.774 55.2787 187.85 55.0247 187.997C54.7706 188.144 54.5689 188.341 54.4195 188.589C54.2759 188.834 54.2106 189.114 54.2236 189.43C54.2332 189.74 54.338 190.068 54.538 190.414C54.8347 190.928 55.1946 191.251 55.6178 191.384C56.0433 191.508 56.4553 191.455 56.8537 191.225ZM60.364 183.771C60.7393 183.555 61.1192 183.439 61.5036 183.425C61.8939 183.408 62.261 183.504 62.6051 183.713C62.9492 183.922 63.2463 184.243 63.4963 184.676L65.1213 187.491L64.1426 188.056L62.6026 185.389C62.356 184.961 62.0608 184.697 61.7172 184.595C61.3703 184.487 61.012 184.54 60.6425 184.754C60.273 184.967 60.0452 185.252 59.9592 185.61C59.8756 185.958 59.9571 186.346 60.2038 186.774L61.7438 189.441L60.7565 190.011L58.0015 185.239L58.9888 184.669L59.3038 185.215C59.3521 184.925 59.4687 184.654 59.6536 184.401C59.8443 184.144 60.0811 183.935 60.364 183.771ZM68.1576 185.842C67.7824 186.058 67.4063 186.187 67.0294 186.228C66.6549 186.259 66.3144 186.209 66.0079 186.078C65.698 185.942 65.454 185.732 65.2758 185.45L66.2977 184.86C66.4317 185.052 66.6253 185.168 66.8785 185.206C67.1341 185.236 67.3947 185.174 67.6603 185.02C67.9374 184.86 68.1211 184.685 68.2112 184.495C68.3037 184.295 68.3017 184.111 68.205 183.944C68.1017 183.765 67.9384 183.682 67.7152 183.695C67.4978 183.706 67.1743 183.765 66.7448 183.875C66.3302 183.983 65.9836 184.056 65.7051 184.094C65.4266 184.132 65.1486 184.103 64.8712 184.01C64.5995 183.912 64.3737 183.708 64.1937 183.396C64.047 183.142 63.9888 182.868 64.0189 182.573C64.0457 182.273 64.1626 181.982 64.3697 181.701C64.5826 181.416 64.871 181.169 65.2347 180.959C65.7774 180.646 66.2933 180.533 66.7824 180.62C67.2739 180.698 67.6679 180.967 67.9643 181.427L66.9771 181.997C66.8364 181.793 66.6515 181.673 66.4222 181.636C66.193 181.599 65.9456 181.657 65.68 181.811C65.4202 181.961 65.2494 182.125 65.1675 182.303C65.0856 182.481 65.0913 182.651 65.1846 182.812C65.258 182.939 65.3658 183.02 65.5082 183.053C65.6506 183.086 65.8032 183.09 65.966 183.066C66.1254 183.035 66.3567 182.983 66.6599 182.908C67.0596 182.8 67.3975 182.732 67.6736 182.703C67.9521 182.666 68.2255 182.693 68.4938 182.784C68.7621 182.876 68.9875 183.073 69.1699 183.375C69.3266 183.647 69.3916 183.932 69.3648 184.233C69.338 184.533 69.221 184.824 69.0139 185.105C68.8126 185.383 68.5271 185.628 68.1576 185.842ZM73.9351 179.065C74.0385 179.244 74.1203 179.412 74.1805 179.57L70.5345 181.675C70.7834 182.04 71.1015 182.264 71.4889 182.348C71.8763 182.432 72.2547 182.368 72.6242 182.155C73.1554 181.848 73.4023 181.409 73.365 180.838L74.4302 180.223C74.5392 180.745 74.4849 181.257 74.2672 181.76C74.0519 182.254 73.6642 182.663 73.1042 182.986C72.6481 183.249 72.1798 183.385 71.6994 183.393C71.2215 183.392 70.7719 183.266 70.3507 183.017C69.932 182.758 69.581 182.384 69.2976 181.893C69.0143 181.402 68.8641 180.915 68.8471 180.432C68.8325 179.94 68.9458 179.49 69.1871 179.081C69.4342 178.669 69.7915 178.328 70.2592 178.058C70.7095 177.798 71.1675 177.665 71.633 177.658C72.0985 177.651 72.5327 177.769 72.9357 178.014C73.3353 178.253 73.6685 178.603 73.9351 179.065ZM72.7246 179.348C72.5088 178.988 72.2106 178.771 71.8299 178.699C71.4492 178.626 71.0712 178.698 70.6959 178.915C70.3553 179.111 70.127 179.389 70.0112 179.749C69.8921 180.102 69.916 180.477 70.0832 180.873L72.7246 179.348ZM74.6426 178.807C74.3593 178.316 74.2091 177.829 74.1921 177.346C74.1775 176.855 74.2879 176.406 74.5235 176C74.759 175.595 75.1048 175.261 75.5609 174.997C76.1382 174.664 76.6946 174.528 77.2298 174.588C77.7676 174.639 78.2495 174.881 78.6756 175.312L77.6104 175.927C77.3871 175.74 77.1419 175.636 76.8747 175.613C76.6075 175.59 76.3296 175.662 76.0409 175.829C75.6367 176.062 75.3968 176.393 75.3209 176.822C75.2476 177.241 75.3592 177.708 75.6559 178.222C75.9525 178.736 76.3026 179.069 76.7059 179.221C77.1151 179.369 77.5217 179.327 77.9259 179.094C78.4975 178.764 78.7306 178.294 78.6254 177.685L79.6906 177.07C79.832 177.635 79.7956 178.172 79.5812 178.681C79.3635 179.184 78.9717 179.598 78.4059 179.925C77.9498 180.188 77.4873 180.321 77.0185 180.322C76.5463 180.317 76.1025 180.189 75.6871 179.936C75.2741 179.674 74.926 179.298 74.6426 178.807ZM80.4063 173.378L81.9313 176.019C82.0346 176.198 82.15 176.305 82.2775 176.339C82.4075 176.364 82.5735 176.318 82.7756 176.201L83.3818 175.851L83.8568 176.674L83.0773 177.124C82.6328 177.381 82.2321 177.473 81.8754 177.402C81.5187 177.331 81.2054 177.062 80.9354 176.594L79.4104 173.953L78.8474 174.278L78.3824 173.472L78.9454 173.147L78.2604 171.961L79.2563 171.386L79.9413 172.572L81.1018 171.902L81.5668 172.708L80.4063 173.378ZM87.6951 171.121C87.7985 171.3 87.8803 171.468 87.9405 171.626L84.2945 173.731C84.5434 174.095 84.8615 174.32 85.2489 174.404C85.6362 174.488 86.0147 174.424 86.3842 174.21C86.9153 173.904 87.1623 173.465 87.125 172.893L88.1902 172.278C88.2992 172.8 88.2449 173.313 88.0271 173.816C87.8119 174.31 87.4242 174.718 86.8642 175.042C86.4081 175.305 85.9398 175.441 85.4594 175.448C84.9815 175.447 84.5319 175.322 84.1107 175.072C83.692 174.814 83.3409 174.439 83.0576 173.948C82.7743 173.458 82.6241 172.971 82.6071 172.488C82.5925 171.996 82.7058 171.546 82.9471 171.137C83.1942 170.725 83.5515 170.384 84.0192 170.114C84.4695 169.854 84.9274 169.72 85.393 169.713C85.8585 169.706 86.2927 169.825 86.6957 170.07C87.0953 170.309 87.4285 170.659 87.6951 171.121ZM86.4846 171.404C86.2688 171.044 85.9706 170.827 85.5899 170.754C85.2092 170.682 84.8312 170.754 84.4559 170.97C84.1152 171.167 83.887 171.445 83.7712 171.804C83.652 172.158 83.676 172.533 83.8432 172.929L86.4846 171.404ZM88.9735 168.431L90.4985 171.073C90.6019 171.252 90.7173 171.358 90.8448 171.392C90.9747 171.417 91.1407 171.372 91.3428 171.255L91.949 170.905L92.424 171.728L91.6446 172.178C91.2 172.434 90.7994 172.527 90.4427 172.456C90.0859 172.385 89.7726 172.115 89.5026 171.648L87.9776 169.006L87.4147 169.331L86.9497 168.526L87.5126 168.201L86.8276 167.014L87.8235 166.439L88.5085 167.626L89.669 166.956L90.134 167.761L88.9735 168.431ZM94.9004 163.936L97.6554 168.707L96.6681 169.277L96.3431 168.714C96.3006 169.001 96.1856 169.275 95.9982 169.537C95.8133 169.79 95.5794 169.998 95.2965 170.162C94.9212 170.378 94.5385 170.495 94.1483 170.513C93.7638 170.527 93.3966 170.431 93.0468 170.225C92.7027 170.016 92.4056 169.695 92.1556 169.261L90.5356 166.456L91.5142 165.891L93.0492 168.549C93.2959 168.977 93.5927 169.244 93.9397 169.352C94.2833 169.453 94.6398 169.398 95.0094 169.184C95.3789 168.971 95.6054 168.69 95.689 168.342C95.7751 167.984 95.6948 167.592 95.4481 167.164L93.9131 164.506L94.9004 163.936ZM97.5903 163.306C97.5946 162.98 97.6768 162.683 97.8369 162.413C97.9994 162.135 98.2451 161.901 98.5742 161.711L99.1642 162.732L98.9131 162.877C98.5263 163.101 98.2885 163.369 98.1997 163.682C98.1168 163.992 98.2153 164.389 98.4953 164.874L99.9453 167.385L98.958 167.955L96.203 163.183L97.1903 162.613L97.5903 163.306ZM102.715 165.867C102.536 165.97 102.351 165.996 102.16 165.945C101.969 165.894 101.821 165.779 101.718 165.6C101.615 165.421 101.589 165.236 101.64 165.044C101.691 164.853 101.806 164.706 101.985 164.603C102.158 164.503 102.341 164.478 102.532 164.529C102.723 164.581 102.87 164.696 102.974 164.875C103.077 165.054 103.103 165.239 103.052 165.43C103.001 165.621 102.888 165.767 102.715 165.867ZM-61.3709 269.817L-57.8959 275.835L-58.8832 276.405L-61.2632 272.283L-60.7192 277.465L-61.4033 277.86L-65.628 274.803L-63.248 278.925L-64.2352 279.495L-67.7102 273.477L-66.645 272.862L-61.8069 276.361L-62.4275 270.427L-61.3709 269.817ZM-54.4835 273.969C-54.9339 274.229 -55.3992 274.363 -55.8796 274.371C-56.3633 274.373 -56.8158 274.25 -57.237 274C-57.6615 273.745 -58.0154 273.372 -58.2988 272.881C-58.5788 272.396 -58.7203 271.904 -58.7233 271.406C-58.7264 270.907 -58.6015 270.45 -58.3486 270.035C-58.0958 269.619 -57.7413 269.28 -57.2852 269.017C-56.8291 268.753 -56.358 268.616 -55.8718 268.605C-55.3856 268.593 -54.9274 268.714 -54.4971 268.966C-54.0668 269.218 -53.7117 269.586 -53.4317 270.071C-53.1517 270.556 -53.0131 271.05 -53.0158 271.551C-53.0185 272.053 -53.1504 272.518 -53.4114 272.946C-53.6701 273.365 -54.0274 273.706 -54.4835 273.969ZM-54.9785 273.112C-54.7245 272.965 -54.5228 272.768 -54.3734 272.52C-54.2182 272.269 -54.1413 271.982 -54.1428 271.659C-54.1442 271.337 -54.2449 271.002 -54.4449 270.656C-54.6449 270.31 -54.8797 270.056 -55.1491 269.896C-55.4219 269.731 -55.703 269.65 -55.9924 269.656C-56.2818 269.661 -56.5535 269.737 -56.8075 269.884C-57.0616 270.031 -57.2633 270.228 -57.4127 270.476C-57.5563 270.72 -57.6216 271.001 -57.6086 271.316C-57.599 271.626 -57.4942 271.955 -57.2942 272.301C-56.9975 272.815 -56.6376 273.138 -56.2145 273.271C-55.7889 273.395 -55.3769 273.342 -54.9785 273.112ZM-52.4435 267.249C-52.4391 266.923 -52.3569 266.625 -52.1969 266.356C-52.0344 266.077 -51.7886 265.843 -51.4595 265.653L-50.8695 266.675L-51.1207 266.82C-51.5075 267.043 -51.7453 267.311 -51.834 267.624C-51.917 267.934 -51.8185 268.331 -51.5385 268.816L-50.0885 271.328L-51.0757 271.898L-53.8307 267.126L-52.8435 266.556L-52.4435 267.249ZM-49.1097 265.347C-49.0756 265.02 -48.9559 264.7 -48.7506 264.389C-48.5428 264.069 -48.2599 263.806 -47.902 263.599C-47.4805 263.356 -47.0411 263.237 -46.5838 263.242C-46.1265 263.248 -45.6914 263.381 -45.2784 263.643C-44.8688 263.899 -44.5256 264.267 -44.249 264.746C-43.9723 265.226 -43.8221 265.712 -43.7984 266.207C-43.778 266.695 -43.8794 267.146 -44.1025 267.56C-44.3231 267.965 -44.6413 268.287 -45.057 268.527C-45.4265 268.74 -45.7972 268.858 -46.1692 268.88C-46.5355 268.899 -46.8673 268.845 -47.1647 268.716L-46.7647 269.409L-47.752 269.979L-51.452 263.57L-50.4647 263L-49.1097 265.347ZM-45.2536 265.326C-45.4436 264.997 -45.6762 264.754 -45.9514 264.598C-46.2242 264.432 -46.5082 264.353 -46.8033 264.362C-47.0961 264.362 -47.3694 264.435 -47.6235 264.582C-47.8717 264.725 -48.0718 264.925 -48.2236 265.182C-48.3697 265.436 -48.442 265.724 -48.4406 266.046C-48.4333 266.365 -48.3347 266.69 -48.1447 267.019C-47.9547 267.348 -47.7217 267.598 -47.4456 267.77C-47.167 267.932 -46.8813 268.014 -46.5886 268.014C-46.2901 268.011 -46.0167 267.938 -45.7685 267.794C-45.5144 267.648 -45.3144 267.448 -45.1683 267.194C-45.0198 266.931 -44.9509 266.637 -44.9614 266.312C-44.9662 265.984 -45.0636 265.655 -45.2536 265.326ZM-44.5004 260.896C-44.6793 261 -44.8645 261.026 -45.0557 260.974C-45.2469 260.923 -45.3942 260.808 -45.4976 260.629C-45.6009 260.45 -45.6269 260.265 -45.5757 260.074C-45.5245 259.882 -45.4093 259.735 -45.2304 259.632C-45.0572 259.532 -44.8749 259.507 -44.6837 259.559C-44.4924 259.61 -44.3452 259.725 -44.2418 259.904C-44.1385 260.083 -44.1124 260.268 -44.1637 260.459C-44.2149 260.651 -44.3272 260.796 -44.5004 260.896ZM-43.6504 261.248L-40.8954 266.02L-41.8827 266.59L-44.6377 261.818L-43.6504 261.248ZM-38.7173 259.324C-38.7129 258.998 -38.6308 258.701 -38.4707 258.431C-38.3082 258.153 -38.0624 257.918 -37.7333 257.728L-37.1433 258.75L-37.3945 258.895C-37.7813 259.119 -38.0191 259.387 -38.1078 259.7C-38.1908 260.009 -38.0923 260.407 -37.8123 260.892L-36.3623 263.403L-37.3496 263.973L-40.1046 259.201L-39.1173 258.631L-38.7173 259.324ZM-34.3577 255.779C-33.9939 255.569 -33.6256 255.461 -33.2527 255.453C-32.874 255.442 -32.5155 255.543 -32.1772 255.756C-31.8331 255.965 -31.5361 256.286 -31.2861 256.719L-29.6611 259.534L-30.6397 260.099L-32.1797 257.432C-32.4264 257.004 -32.7215 256.74 -33.0651 256.638C-33.4121 256.531 -33.7703 256.583 -34.1398 256.797C-34.5093 257.01 -34.7371 257.296 -34.8231 257.653C-34.9068 258.002 -34.8252 258.389 -34.5786 258.817L-33.0386 261.484L-34.0258 262.054L-37.7258 255.645L-36.7386 255.075L-35.4736 257.267C-35.4228 256.968 -35.3021 256.69 -35.1114 256.434C-34.9149 256.174 -34.6637 255.956 -34.3577 255.779ZM-26.287 257.69C-26.7373 257.95 -27.2027 258.084 -27.683 258.092C-28.1668 258.094 -28.6192 257.97 -29.0404 257.721C-29.4649 257.466 -29.8189 257.093 -30.1022 256.602C-30.3822 256.117 -30.5237 255.625 -30.5268 255.126C-30.5298 254.628 -30.4049 254.171 -30.1521 253.755C-29.8992 253.34 -29.5448 253.001 -29.0887 252.737C-28.6325 252.474 -28.1614 252.337 -27.6752 252.325C-27.1891 252.314 -26.7308 252.434 -26.3006 252.686C-25.8703 252.938 -25.5151 253.307 -25.2351 253.792C-24.9551 254.277 -24.8165 254.77 -24.8192 255.272C-24.8219 255.774 -24.9538 256.239 -25.2149 256.667C-25.4735 257.086 -25.8308 257.427 -26.287 257.69ZM-26.782 256.833C-26.5279 256.686 -26.3262 256.489 -26.1768 256.241C-26.0216 255.989 -25.9448 255.703 -25.9462 255.38C-25.9477 255.058 -26.0484 254.723 -26.2484 254.377C-26.4484 254.03 -26.6831 253.777 -26.9526 253.617C-27.2253 253.451 -27.5064 253.371 -27.7958 253.376C-28.0852 253.382 -28.3569 253.458 -28.611 253.605C-28.865 253.751 -29.0667 253.949 -29.2161 254.196C-29.3597 254.441 -29.4251 254.721 -29.4121 255.037C-29.4024 255.347 -29.2976 255.675 -29.0976 256.022C-28.8009 256.536 -28.441 256.859 -28.0179 256.992C-27.5923 257.116 -27.1803 257.063 -26.782 256.833ZM-23.2716 249.379C-22.8963 249.162 -22.5165 249.047 -22.132 249.033C-21.7418 249.015 -21.3746 249.111 -21.0305 249.32C-20.6864 249.53 -20.3894 249.851 -20.1394 250.284L-18.5144 253.099L-19.493 253.664L-21.033 250.996C-21.2797 250.569 -21.5748 250.304 -21.9184 250.203C-22.2654 250.095 -22.6236 250.148 -22.9931 250.361C-23.3626 250.574 -23.5904 250.86 -23.6765 251.218C-23.7601 251.566 -23.6785 251.954 -23.4319 252.381L-21.8919 255.049L-22.8792 255.619L-25.6342 250.847L-24.6469 250.277L-24.3319 250.822C-24.2836 250.533 -24.1669 250.261 -23.982 250.008C-23.7913 249.752 -23.5545 249.542 -23.2716 249.379ZM-18.9642 250.171C-19.2475 249.68 -19.3977 249.194 -19.4147 248.711C-19.4293 248.219 -19.3188 247.77 -19.0833 247.365C-18.8478 246.959 -18.502 246.625 -18.0459 246.362C-17.4685 246.028 -16.9122 245.892 -16.3769 245.952C-15.8392 246.004 -15.3573 246.245 -14.9312 246.677L-15.9964 247.292C-16.2197 247.105 -16.4649 247 -16.7321 246.977C-16.9993 246.954 -17.2772 247.026 -17.5659 247.193C-17.97 247.426 -18.21 247.757 -18.2858 248.186C-18.3592 248.606 -18.2476 249.072 -17.9509 249.586C-17.6542 250.1 -17.3042 250.433 -16.9008 250.585C-16.4917 250.734 -16.085 250.691 -15.6809 250.458C-15.1093 250.128 -14.8761 249.659 -14.9814 249.05L-13.9162 248.435C-13.7747 249 -13.8112 249.536 -14.0256 250.045C-14.2433 250.548 -14.6351 250.963 -15.2009 251.289C-15.657 251.553 -16.1195 251.685 -16.5883 251.686C-17.0605 251.682 -17.5043 251.553 -17.9197 251.3C-18.3327 251.038 -18.6808 250.662 -18.9642 250.171ZM-10.4958 242.107L-7.74082 246.878L-8.72809 247.448L-9.05309 246.885C-9.09564 247.172 -9.2106 247.446 -9.39797 247.708C-9.5829 247.961 -9.81681 248.169 -10.0997 248.333C-10.475 248.549 -10.8577 248.666 -11.248 248.684C-11.6324 248.698 -11.9996 248.602 -12.3494 248.396C-12.6935 248.187 -12.9906 247.866 -13.2406 247.433L-14.8606 244.627L-13.882 244.062L-12.347 246.72C-12.1003 247.148 -11.8035 247.415 -11.4566 247.523C-11.1129 247.624 -10.7564 247.569 -10.3869 247.355C-10.0174 247.142 -9.7908 246.861 -9.70718 246.513C-9.62112 246.155 -9.70143 245.763 -9.94809 245.335L-11.4831 242.677L-10.4958 242.107ZM-4.66115 245.204C-5.03643 245.421 -5.41251 245.55 -5.7894 245.59C-6.16385 245.622 -6.50434 245.572 -6.81088 245.441C-7.12075 245.304 -7.36479 245.095 -7.54301 244.813L-6.5211 244.223C-6.38711 244.415 -6.19351 244.53 -5.94031 244.569C-5.68466 244.598 -5.42405 244.536 -5.15847 244.383C-4.88134 244.223 -4.69772 244.048 -4.60761 243.857C-4.51506 243.657 -4.51712 243.474 -4.61378 243.306C-4.71712 243.127 -4.88039 243.045 -5.10359 243.058C-5.32102 243.068 -5.64449 243.128 -6.074 243.237C-6.48862 243.346 -6.83518 243.419 -7.11368 243.456C-7.39218 243.494 -7.67015 243.466 -7.94758 243.372C-8.21924 243.275 -8.44507 243.07 -8.62507 242.759C-8.77173 242.505 -8.83001 242.23 -8.7999 241.936C-8.77312 241.635 -8.65617 241.345 -8.44904 241.063C-8.23614 240.779 -7.94782 240.532 -7.58409 240.322C-7.04138 240.008 -6.52548 239.895 -6.03639 239.982C-5.54486 240.06 -5.15089 240.329 -4.85446 240.789L-5.84173 241.359C-5.98238 241.156 -6.16732 241.036 -6.39653 240.999C-6.62575 240.961 -6.87315 241.02 -7.13873 241.173C-7.39854 241.323 -7.56939 241.487 -7.65129 241.665C-7.73319 241.843 -7.72747 242.013 -7.63414 242.175C-7.5608 242.302 -7.45295 242.382 -7.31057 242.415C-7.1682 242.449 -7.01561 242.453 -6.85282 242.428C-6.69337 242.398 -6.46207 242.345 -6.15893 242.27C-5.75918 242.162 -5.42128 242.094 -5.14522 242.066C-4.86672 242.028 -4.59331 242.055 -4.32498 242.147C-4.05666 242.238 -3.83128 242.435 -3.64884 242.738C-3.49217 243.009 -3.42722 243.295 -3.454 243.595C-3.48078 243.895 -3.59773 244.186 -3.80486 244.467C-4.00622 244.745 -4.29165 244.991 -4.66115 245.204ZM2.21462 241.235C1.83934 241.451 1.46326 241.58 1.08637 241.62C0.71192 241.652 0.371426 241.602 0.0648879 241.471C-0.244984 241.334 -0.489027 241.125 -0.66724 240.843L0.35467 240.253C0.488657 240.445 0.682253 240.56 0.935458 240.599C1.1911 240.628 1.45172 240.567 1.7173 240.413C1.99443 240.253 2.17805 240.078 2.26816 239.887C2.36071 239.688 2.35865 239.504 2.26198 239.337C2.15865 239.158 1.99538 239.075 1.77218 239.088C1.55474 239.098 1.23128 239.158 0.801772 239.267C0.387148 239.376 0.0405863 239.449 -0.237914 239.487C-0.516414 239.524 -0.794379 239.496 -1.07181 239.402C-1.34347 239.305 -1.5693 239.101 -1.7493 238.789C-1.89596 238.535 -1.95424 238.261 -1.92413 237.966C-1.89735 237.666 -1.7804 237.375 -1.57327 237.094C-1.36037 236.809 -1.07205 236.562 -0.708324 236.352C-0.165615 236.039 0.350285 235.925 0.839374 236.013C1.3309 236.091 1.72488 236.36 2.02131 236.82L1.03404 237.39C0.893387 237.186 0.708451 237.066 0.479233 237.029C0.250016 236.992 0.00261607 237.05 -0.262965 237.203C-0.522773 237.353 -0.693625 237.517 -0.775523 237.695C-0.85742 237.874 -0.851702 238.044 -0.758369 238.205C-0.685035 238.332 -0.577181 238.412 -0.434805 238.446C-0.292429 238.479 -0.139845 238.483 0.0229451 238.458C0.182402 238.428 0.413702 238.375 0.716843 238.3C1.11659 238.193 1.45449 238.125 1.73055 238.096C2.00905 238.058 2.28246 238.085 2.55078 238.177C2.81911 238.268 3.04449 238.465 3.22693 238.768C3.3836 239.039 3.44854 239.325 3.42177 239.625C3.39499 239.926 3.27803 240.216 3.07091 240.498C2.86955 240.776 2.58412 241.021 2.21462 241.235ZM7.99213 234.458C8.09546 234.637 8.17725 234.805 8.23749 234.963L4.59152 237.068C4.84039 237.432 5.1585 237.657 5.54587 237.741C5.93324 237.825 6.31168 237.761 6.68118 237.547C7.21234 237.241 7.45929 236.802 7.42201 236.23L8.48722 235.615C8.59622 236.138 8.54186 236.65 8.32414 237.153C8.10886 237.647 7.72121 238.055 7.16118 238.379C6.70507 238.642 6.23682 238.778 5.75642 238.786C5.27847 238.784 4.8289 238.659 4.40772 238.41C3.98898 238.151 3.63794 237.776 3.35461 237.285C3.07128 236.795 2.92109 236.308 2.90406 235.825C2.88946 235.333 3.00281 234.883 3.2441 234.474C3.49117 234.062 3.84853 233.721 4.31618 233.451C4.76651 233.191 5.22444 233.057 5.68995 233.05C6.15547 233.043 6.58971 233.162 6.99268 233.407C7.39231 233.646 7.72546 233.996 7.99213 234.458ZM6.78156 234.741C6.56578 234.381 6.26755 234.164 5.88685 234.091C5.50614 234.019 5.12816 234.091 4.75288 234.307C4.41224 234.504 4.18401 234.782 4.06819 235.141C3.94904 235.495 3.97303 235.87 4.14018 236.266L6.78156 234.741ZM13.3851 228.215C13.7604 227.998 14.1402 227.883 14.5247 227.869C14.9149 227.851 15.2821 227.947 15.6262 228.157C15.976 228.363 16.276 228.682 16.526 229.115L18.151 231.93L17.1724 232.495L15.6324 229.827C15.3857 229.4 15.0905 229.136 14.7469 229.034C14.4 228.926 14.0417 228.979 13.6722 229.192C13.3027 229.406 13.075 229.691 12.9889 230.049C12.9053 230.397 12.9868 230.785 13.2335 231.212L14.7735 233.88L13.7949 234.445L12.2549 231.777C12.0082 231.35 11.713 231.086 11.3694 230.984C11.0225 230.876 10.6642 230.929 10.2947 231.142C9.92524 231.356 9.69746 231.641 9.6114 231.999C9.52778 232.347 9.6093 232.735 9.85597 233.162L11.396 235.83L10.4087 236.4L7.6537 231.628L8.64097 231.058L8.95597 231.604C9.00429 231.314 9.12092 231.043 9.30585 230.79C9.49077 230.537 9.72469 230.328 10.0076 230.165C10.3886 229.945 10.7759 229.829 11.1695 229.818C11.5631 229.806 11.929 229.906 12.2673 230.119C12.245 229.747 12.3385 229.389 12.5478 229.045C12.7538 228.695 13.0329 228.418 13.3851 228.215ZM18.0445 226.564C18.0853 226.248 18.2067 225.932 18.4087 225.615C18.6107 225.298 18.8936 225.035 19.2573 224.825C19.673 224.585 20.1111 224.47 20.5718 224.481C21.0349 224.484 21.4712 224.613 21.8808 224.869C22.2905 225.125 22.6336 225.493 22.9103 225.972C23.187 226.451 23.3371 226.938 23.3608 227.432C23.3812 227.921 23.2799 228.372 23.0568 228.786C22.8361 229.19 22.518 229.512 22.1023 229.752C21.7386 229.962 21.3736 230.077 21.0073 230.096C20.6378 230.109 20.3002 230.058 19.9945 229.942L21.7045 232.903L20.7172 233.473L16.6522 226.433L17.6395 225.863L18.0445 226.564ZM21.9057 226.552C21.7157 226.223 21.4831 225.98 21.2079 225.823C20.9351 225.657 20.6511 225.579 20.3559 225.588C20.0632 225.587 19.7898 225.66 19.5358 225.807C19.2875 225.95 19.0875 226.151 18.9356 226.408C18.7896 226.661 18.7173 226.949 18.7187 227.272C18.7259 227.591 18.8245 227.915 19.0145 228.244C19.2045 228.573 19.4376 228.824 19.7137 228.995C19.9923 229.158 20.2779 229.239 20.5706 229.24C20.8691 229.237 21.1425 229.163 21.3908 229.02C21.6448 228.873 21.8449 228.673 21.9909 228.42C22.1394 228.157 22.2084 227.863 22.1979 227.538C22.1931 227.21 22.0957 226.881 21.9057 226.552ZM28.205 222.788C28.3084 222.967 28.3901 223.135 28.4504 223.293L24.8044 225.398C25.0533 225.762 25.3714 225.987 25.7588 226.071C26.1461 226.155 26.5246 226.091 26.8941 225.877C27.4252 225.571 27.6722 225.132 27.6349 224.561L28.7001 223.946C28.8091 224.468 28.7548 224.98 28.537 225.483C28.3218 225.977 27.9341 226.385 27.3741 226.709C26.918 226.972 26.4497 227.108 25.9693 227.116C25.4914 227.114 25.0418 226.989 24.6206 226.74C24.2019 226.481 23.8508 226.106 23.5675 225.616C23.2842 225.125 23.134 224.638 23.117 224.155C23.1024 223.663 23.2157 223.213 23.457 222.804C23.7041 222.392 24.0614 222.051 24.5291 221.781C24.9794 221.521 25.4373 221.388 25.9029 221.38C26.3684 221.373 26.8026 221.492 27.2056 221.737C27.6052 221.976 27.9384 222.326 28.205 222.788ZM26.9945 223.071C26.7787 222.711 26.4804 222.494 26.0997 222.422C25.719 222.349 25.3411 222.421 24.9658 222.637C24.6251 222.834 24.3969 223.112 24.2811 223.472C24.1619 223.825 24.1859 224.2 24.3531 224.596L26.9945 223.071ZM29.2539 220.081C29.2582 219.755 29.3404 219.457 29.5004 219.188C29.6629 218.909 29.9087 218.675 30.2378 218.485L30.8278 219.507L30.5767 219.652C30.1898 219.875 29.9521 220.144 29.8633 220.456C29.7803 220.766 29.8789 221.163 30.1589 221.648L31.6089 224.16L30.6216 224.73L27.8666 219.958L28.8539 219.388L29.2539 220.081ZM34.4759 219.295C34.1992 218.815 34.0523 218.334 34.0353 217.851C34.024 217.365 34.1304 216.923 34.3544 216.524C34.5808 216.116 34.9047 215.791 35.3262 215.547C35.6379 215.367 35.9839 215.26 36.3642 215.225C36.7468 215.181 37.0927 215.22 37.4016 215.342L36.0716 213.038L37.0676 212.463L40.7676 218.872L39.7716 219.447L39.3566 218.728C39.3283 219.053 39.2131 219.373 39.0111 219.69C38.8149 220.003 38.532 220.267 38.1625 220.48C37.7468 220.72 37.3058 220.836 36.8394 220.828C36.3754 220.811 35.934 220.674 35.5153 220.415C35.099 220.147 34.7525 219.774 34.4759 219.295ZM38.3916 217.057C38.2016 216.728 37.9673 216.482 37.6888 216.319C37.416 216.154 37.1332 216.071 36.8405 216.07C36.5478 216.07 36.2744 216.143 36.0204 216.29C35.7663 216.436 35.5663 216.637 35.4202 216.89C35.2708 217.138 35.1969 217.423 35.1983 217.746C35.2022 218.059 35.2991 218.38 35.4891 218.71C35.6791 219.039 35.9122 219.289 36.1883 219.461C36.4702 219.629 36.7592 219.716 37.0552 219.722C37.3537 219.719 37.6271 219.646 37.8754 219.503C38.1294 219.356 38.3294 219.156 38.4755 218.902C38.6216 218.648 38.691 218.362 38.6838 218.043C38.679 217.715 38.5816 217.386 38.3916 217.057ZM39.4466 212.429C39.2676 212.533 39.0825 212.559 38.8913 212.508C38.7 212.456 38.5527 212.341 38.4494 212.162C38.3461 211.983 38.32 211.798 38.3713 211.607C38.4225 211.416 38.5376 211.268 38.7166 211.165C38.8898 211.065 39.072 211.041 39.2633 211.092C39.4545 211.143 39.6018 211.258 39.7051 211.437C39.8085 211.616 39.8345 211.801 39.7833 211.993C39.732 212.184 39.6198 212.329 39.4466 212.429ZM40.2966 212.782L43.0516 217.553L42.0643 218.123L39.3093 213.352L40.2966 212.782ZM42.6287 214.588C42.352 214.108 42.2052 213.627 42.1881 213.144C42.1769 212.658 42.2832 212.216 42.5072 211.817C42.7336 211.409 43.0546 211.085 43.4703 210.845C43.8456 210.629 44.2152 210.515 44.5789 210.505C44.9452 210.486 45.2753 210.538 45.5694 210.661L45.1694 209.968L46.1654 209.393L48.9204 214.165L47.9244 214.74L47.5144 214.03C47.477 214.352 47.3573 214.671 47.1553 214.988C46.9533 215.305 46.6675 215.57 46.298 215.783C45.8881 216.02 45.4528 216.132 44.9922 216.121C44.5282 216.104 44.0869 215.966 43.6681 215.708C43.2518 215.44 42.9053 215.067 42.6287 214.588ZM46.5444 212.35C46.3544 212.021 46.1202 211.775 45.8416 211.612C45.5688 211.447 45.2861 211.364 44.9933 211.363C44.7006 211.363 44.4272 211.436 44.1732 211.583C43.9191 211.729 43.7191 211.93 43.573 212.183C43.4236 212.431 43.3497 212.716 43.3511 213.039C43.355 213.352 43.4519 213.673 43.6419 214.003C43.8319 214.332 44.065 214.582 44.3411 214.754C44.623 214.922 44.912 215.009 45.208 215.015C45.5065 215.012 45.7799 214.939 46.0282 214.796C46.2822 214.649 46.4823 214.449 46.6283 214.195C46.7744 213.941 46.8438 213.655 46.8366 213.336C46.8318 213.008 46.7344 212.679 46.5444 212.35ZM53.1935 205.232C53.5688 205.015 53.9486 204.9 54.3331 204.885C54.7233 204.868 55.0905 204.964 55.4346 205.173C55.7844 205.379 56.0844 205.699 56.3344 206.132L57.9594 208.946L56.9808 209.511L55.4408 206.844C55.1941 206.417 54.899 206.152 54.5553 206.05C54.2084 205.943 53.8502 205.996 53.4807 206.209C53.1112 206.422 52.8834 206.708 52.7973 207.065C52.7137 207.414 52.7952 207.802 53.0419 208.229L54.5819 210.896L53.6033 211.461L52.0633 208.794C51.8166 208.367 51.5215 208.102 51.1778 208C50.8309 207.893 50.4727 207.946 50.1032 208.159C49.7337 208.372 49.5059 208.658 49.4198 209.015C49.3362 209.364 49.4177 209.752 49.6644 210.179L51.2044 212.846L50.2171 213.416L47.4621 208.645L48.4494 208.075L48.7644 208.62C48.8127 208.331 48.9293 208.059 49.1143 207.806C49.2992 207.553 49.5331 207.345 49.816 207.182C50.1971 206.962 50.5844 206.846 50.9779 206.834C51.3715 206.822 51.7374 206.923 52.0757 207.136C52.0534 206.764 52.1469 206.406 52.3562 206.061C52.5622 205.712 52.8413 205.435 53.1935 205.232ZM63.2423 206C62.8671 206.217 62.491 206.345 62.1141 206.386C61.7396 206.417 61.3992 206.368 61.0926 206.237C60.7827 206.1 60.5387 205.891 60.3605 205.609L61.3824 205.019C61.5164 205.211 61.71 205.326 61.9632 205.365C62.2188 205.394 62.4794 205.332 62.745 205.179C63.0222 205.019 63.2058 204.844 63.2959 204.653C63.3884 204.453 63.3864 204.27 63.2897 204.102C63.1864 203.923 63.0231 203.84 62.7999 203.854C62.5825 203.864 62.259 203.924 61.8295 204.033C61.4149 204.142 61.0683 204.215 60.7898 204.252C60.5113 204.29 60.2333 204.262 59.9559 204.168C59.6843 204.071 59.4584 203.866 59.2784 203.554C59.1318 203.3 59.0735 203.026 59.1036 202.732C59.1304 202.431 59.2473 202.141 59.4545 201.859C59.6674 201.575 59.9557 201.327 60.3194 201.117C60.8621 200.804 61.378 200.691 61.8671 200.778C62.3586 200.856 62.7526 201.125 63.049 201.585L62.0618 202.155C61.9211 201.952 61.7362 201.831 61.507 201.794C61.2777 201.757 61.0303 201.816 60.7648 201.969C60.505 202.119 60.3341 202.283 60.2522 202.461C60.1703 202.639 60.176 202.809 60.2694 202.971C60.3427 203.098 60.4505 203.178 60.5929 203.211C60.7353 203.245 60.8879 203.249 61.0507 203.224C61.2101 203.194 61.4414 203.141 61.7446 203.066C62.1443 202.958 62.4822 202.89 62.7583 202.862C63.0368 202.824 63.3102 202.851 63.5785 202.942C63.8468 203.034 64.0722 203.231 64.2547 203.534C64.4113 203.805 64.4763 204.091 64.4495 204.391C64.4227 204.691 64.3058 204.982 64.0986 205.263C63.8973 205.541 63.6118 205.787 63.2423 206ZM63.4737 198.557C63.2947 198.661 63.1096 198.687 62.9184 198.635C62.7271 198.584 62.5799 198.469 62.4765 198.29C62.3732 198.111 62.3471 197.926 62.3984 197.735C62.4496 197.544 62.5647 197.396 62.7437 197.293C62.9169 197.193 63.0991 197.169 63.2904 197.22C63.4816 197.271 63.6289 197.386 63.7323 197.565C63.8356 197.744 63.8616 197.929 63.8104 198.12C63.7591 198.312 63.6469 198.457 63.4737 198.557ZM64.3237 198.91L67.0787 203.681L66.0914 204.251L63.3364 199.48L64.3237 198.91ZM67.2367 198.302L68.7617 200.943C68.865 201.122 68.9805 201.229 69.1079 201.263C69.2379 201.288 69.4039 201.242 69.606 201.125L70.2122 200.775L70.6872 201.598L69.9078 202.048C69.4632 202.305 69.0626 202.397 68.7058 202.326C68.3491 202.255 68.0358 201.986 67.7658 201.518L66.2408 198.877L65.6779 199.202L65.2129 198.396L65.7758 198.071L65.0908 196.885L66.0867 196.31L66.7717 197.496L67.9322 196.826L68.3972 197.632L67.2367 198.302ZM72.0305 200.903C71.8515 201.007 71.6664 201.033 71.4752 200.981C71.2839 200.93 71.1366 200.815 71.0333 200.636C70.93 200.457 70.9039 200.272 70.9552 200.081C71.0064 199.889 71.1215 199.742 71.3005 199.639C71.4737 199.539 71.6559 199.514 71.8472 199.566C72.0384 199.617 72.1857 199.732 72.289 199.911C72.3924 200.09 72.4184 200.275 72.3672 200.466C72.3159 200.658 72.2037 200.803 72.0305 200.903ZM76.0027 190.504L76.4677 191.309L73.913 192.784L74.938 194.56L76.9298 193.41L77.3948 194.215L75.403 195.365L76.923 197.998L75.9357 198.568L72.4607 192.549L76.0027 190.504ZM83.3211 190.967C83.4244 191.146 83.5062 191.314 83.5665 191.472L79.9205 193.577C80.1694 193.941 80.4875 194.165 80.8749 194.25C81.2622 194.334 81.6407 194.269 82.0102 194.056C82.5413 193.749 82.7883 193.31 82.751 192.739L83.8162 192.124C83.9252 192.646 83.8708 193.159 83.6531 193.662C83.4378 194.156 83.0502 194.564 82.4902 194.887C82.0341 195.151 81.5658 195.286 81.0854 195.294C80.6075 195.293 80.1579 195.168 79.7367 194.918C79.318 194.66 78.9669 194.285 78.6836 193.794C78.4003 193.304 78.2501 192.817 78.233 192.334C78.2184 191.842 78.3318 191.392 78.5731 190.983C78.8202 190.571 79.1775 190.23 79.6452 189.96C80.0955 189.7 80.5534 189.566 81.0189 189.559C81.4845 189.552 81.9187 189.671 82.3217 189.916C82.7213 190.154 83.0544 190.505 83.3211 190.967ZM82.1105 191.25C81.8948 190.89 81.5965 190.673 81.2158 190.6C80.8351 190.528 80.4571 190.599 80.0819 190.816C79.7412 191.013 79.513 191.291 79.3972 191.65C79.278 192.004 79.302 192.379 79.4692 192.775L82.1105 191.25ZM83.025 185.93L86.725 192.339L85.7377 192.909L82.0377 186.5L83.025 185.93ZM85.4034 185.896C85.2245 186 85.0394 186.026 84.8481 185.974C84.6569 185.923 84.5096 185.808 84.4062 185.629C84.3029 185.45 84.2769 185.265 84.3281 185.074C84.3794 184.882 84.4945 184.735 84.6734 184.632C84.8467 184.532 85.0289 184.507 85.2201 184.559C85.4114 184.61 85.5587 184.725 85.662 184.904C85.7653 185.083 85.7914 185.268 85.7401 185.459C85.6889 185.651 85.5767 185.796 85.4034 185.896ZM86.2534 186.248L89.0084 191.02L88.0212 191.59L85.2662 186.818L86.2534 186.248ZM92.0817 189.35C91.7064 189.566 91.3303 189.695 90.9534 189.736C90.579 189.767 90.2385 189.717 89.9319 189.586C89.6221 189.45 89.378 189.24 89.1998 188.958L90.2217 188.368C90.3557 188.56 90.5493 188.676 90.8025 188.714C91.0582 188.744 91.3188 188.682 91.5843 188.528C91.8615 188.368 92.0451 188.193 92.1352 188.003C92.2278 187.803 92.2257 187.619 92.129 187.452C92.0257 187.273 91.8624 187.19 91.6392 187.203C91.4218 187.214 91.0983 187.273 90.6688 187.383C90.2542 187.491 89.9076 187.564 89.6291 187.602C89.3506 187.64 89.0727 187.611 88.7952 187.518C88.5236 187.42 88.2978 187.216 88.1178 186.904C87.9711 186.65 87.9128 186.376 87.9429 186.081C87.9697 185.781 88.0866 185.49 88.2938 185.209C88.5067 184.924 88.795 184.677 89.1587 184.467C89.7014 184.154 90.2173 184.041 90.7064 184.128C91.198 184.206 91.5919 184.475 91.8884 184.935L90.9011 185.505C90.7604 185.301 90.5755 185.181 90.3463 185.144C90.1171 185.107 89.8697 185.165 89.6041 185.318C89.3443 185.468 89.1734 185.633 89.0915 185.811C89.0096 185.989 89.0153 186.159 89.1087 186.32C89.182 186.447 89.2899 186.528 89.4322 186.561C89.5746 186.594 89.7272 186.598 89.89 186.574C90.0495 186.543 90.2808 186.491 90.5839 186.416C90.9836 186.308 91.3215 186.24 91.5976 186.211C91.8761 186.174 92.1495 186.201 92.4178 186.292C92.6862 186.383 92.9115 186.581 93.094 186.883C93.2506 187.155 93.3156 187.44 93.2888 187.741C93.262 188.041 93.1451 188.332 92.938 188.613C92.7366 188.891 92.4512 189.136 92.0817 189.35ZM-58.098 287.846C-58.0572 287.529 -57.9358 287.213 -57.7338 286.896C-57.5318 286.58 -57.2489 286.316 -56.8852 286.106C-56.4695 285.866 -56.0314 285.752 -55.5707 285.763C-55.1076 285.765 -54.6713 285.894 -54.2617 286.15C-53.852 286.406 -53.5089 286.774 -53.2322 287.253C-52.9555 287.733 -52.8054 288.219 -52.7817 288.714C-52.7613 289.202 -52.8626 289.653 -53.0857 290.067C-53.3064 290.472 -53.6245 290.794 -54.0402 291.034C-54.4039 291.244 -54.7689 291.358 -55.1352 291.377C-55.5047 291.391 -55.8423 291.339 -56.148 291.223L-54.438 294.185L-55.4252 294.755L-59.4902 287.714L-58.503 287.144L-58.098 287.846ZM-54.2368 287.833C-54.4268 287.504 -54.6594 287.261 -54.9346 287.105C-55.2074 286.939 -55.4914 286.86 -55.7866 286.869C-56.0793 286.869 -56.3527 286.942 -56.6067 287.088C-56.855 287.232 -57.055 287.432 -57.2069 287.689C-57.3529 287.943 -57.4252 288.231 -57.4238 288.553C-57.4166 288.872 -57.318 289.197 -57.128 289.526C-56.938 289.855 -56.7049 290.105 -56.4288 290.277C-56.1502 290.439 -55.8646 290.521 -55.5719 290.521C-55.2734 290.518 -55 290.445 -54.7517 290.301C-54.4977 290.155 -54.2976 289.955 -54.1516 289.701C-54.0031 289.438 -53.9341 289.144 -53.9446 288.819C-53.9494 288.491 -54.0468 288.162 -54.2368 287.833ZM-52.2336 284.448C-52.2293 284.122 -52.1471 283.825 -51.987 283.555C-51.8246 283.277 -51.5788 283.042 -51.2497 282.852L-50.6597 283.874L-50.9108 284.019C-51.2977 284.243 -51.5354 284.511 -51.6242 284.824C-51.7071 285.133 -51.6086 285.531 -51.3286 286.016L-49.8786 288.527L-50.8659 289.097L-53.6209 284.325L-52.6336 283.755L-52.2336 284.448ZM-49.2613 284.961C-49.5379 284.481 -49.6848 284 -49.7018 283.518C-49.7131 283.031 -49.6067 282.589 -49.3828 282.19C-49.1564 281.782 -48.8353 281.459 -48.4196 281.219C-48.0443 281.002 -47.6748 280.889 -47.311 280.879C-46.9448 280.86 -46.6146 280.912 -46.3205 281.034L-46.7205 280.341L-45.7246 279.766L-42.9696 284.538L-43.9655 285.113L-44.3755 284.403C-44.4129 284.725 -44.5327 285.044 -44.7347 285.361C-44.9367 285.678 -45.2224 285.943 -45.5919 286.156C-46.0018 286.393 -46.4371 286.506 -46.8978 286.494C-47.3617 286.477 -47.8031 286.34 -48.2218 286.081C-48.6381 285.813 -48.9846 285.44 -49.2613 284.961ZM-45.3455 282.723C-45.5355 282.394 -45.7698 282.148 -46.0483 281.986C-46.3211 281.82 -46.6039 281.737 -46.8966 281.736C-47.1893 281.736 -47.4627 281.809 -47.7168 281.956C-47.9708 282.103 -48.1708 282.303 -48.3169 282.556C-48.4663 282.804 -48.5403 283.09 -48.5388 283.412C-48.535 283.725 -48.438 284.047 -48.248 284.376C-48.058 284.705 -47.825 284.955 -47.5488 285.127C-47.2669 285.295 -46.978 285.382 -46.6819 285.388C-46.3834 285.385 -46.11 285.312 -45.8618 285.169C-45.6077 285.022 -45.4077 284.822 -45.2616 284.568C-45.1156 284.315 -45.0461 284.028 -45.0533 283.709C-45.0581 283.381 -45.1555 283.052 -45.3455 282.723ZM-38.7444 278.762C-38.6411 278.941 -38.5593 279.109 -38.499 279.267L-42.145 281.372C-41.8961 281.736 -41.578 281.96 -41.1907 282.045C-40.8033 282.129 -40.4249 282.064 -40.0554 281.851C-39.5242 281.544 -39.2772 281.106 -39.3145 280.534L-38.2493 279.919C-38.1403 280.441 -38.1947 280.954 -38.4124 281.457C-38.6277 281.951 -39.0153 282.359 -39.5754 282.683C-40.0315 282.946 -40.4997 283.081 -40.9801 283.089C-41.4581 283.088 -41.9076 282.963 -42.3288 282.713C-42.7476 282.455 -43.0986 282.08 -43.3819 281.589C-43.6653 281.099 -43.8154 280.612 -43.8325 280.129C-43.8471 279.637 -43.7337 279.187 -43.4924 278.778C-43.2454 278.366 -42.888 278.025 -42.4204 277.755C-41.97 277.495 -41.5121 277.361 -41.0466 277.354C-40.5811 277.347 -40.1468 277.466 -39.7439 277.711C-39.3442 277.95 -39.0111 278.3 -38.7444 278.762ZM-39.955 279.045C-40.1707 278.685 -40.469 278.468 -40.8497 278.395C-41.2304 278.323 -41.6084 278.395 -41.9837 278.611C-42.3243 278.808 -42.5525 279.086 -42.6683 279.445C-42.7875 279.799 -42.7635 280.174 -42.5964 280.57L-39.955 279.045ZM-34.5508 279.782C-34.9261 279.998 -35.3021 280.127 -35.679 280.167C-36.0535 280.199 -36.394 280.149 -36.7005 280.018C-37.0104 279.881 -37.2544 279.672 -37.4326 279.39L-36.4107 278.8C-36.2767 278.992 -36.0831 279.107 -35.8299 279.146C-35.5743 279.175 -35.3137 279.114 -35.0481 278.96C-34.771 278.8 -34.5874 278.625 -34.4972 278.434C-34.4047 278.235 -34.4067 278.051 -34.5034 277.884C-34.6067 277.705 -34.77 277.622 -34.9932 277.635C-35.2107 277.645 -35.5341 277.705 -35.9636 277.814C-36.3783 277.923 -36.7248 277.996 -37.0033 278.034C-37.2818 278.071 -37.5598 278.043 -37.8372 277.949C-38.1089 277.852 -38.3347 277.648 -38.5147 277.336C-38.6614 277.082 -38.7196 276.808 -38.6895 276.513C-38.6628 276.213 -38.5458 275.922 -38.3387 275.641C-38.1258 275.356 -37.8375 275.109 -37.4737 274.899C-36.931 274.586 -36.4151 274.472 -35.926 274.56C-35.4345 274.638 -35.0405 274.907 -34.7441 275.367L-35.7314 275.937C-35.872 275.733 -36.0569 275.613 -36.2862 275.576C-36.5154 275.539 -36.7628 275.597 -37.0284 275.75C-37.2882 275.9 -37.459 276.064 -37.5409 276.243C-37.6228 276.421 -37.6171 276.591 -37.5238 276.752C-37.4504 276.879 -37.3426 276.959 -37.2002 276.993C-37.0578 277.026 -36.9052 277.03 -36.7425 277.005C-36.583 276.975 -36.3517 276.922 -36.0486 276.847C-35.6488 276.74 -35.3109 276.672 -35.0349 276.643C-34.7564 276.606 -34.4829 276.632 -34.2146 276.724C-33.9463 276.815 -33.7209 277.012 -33.5385 277.315C-33.3818 277.586 -33.3169 277.872 -33.3436 278.172C-33.3704 278.473 -33.4874 278.763 -33.6945 279.045C-33.8958 279.323 -34.1813 279.568 -34.5508 279.782ZM-28.7733 273.005C-28.6699 273.184 -28.5882 273.352 -28.5279 273.51L-32.1739 275.615C-31.925 275.979 -31.6069 276.204 -31.2195 276.288C-30.8322 276.372 -30.4537 276.308 -30.0842 276.094C-29.5531 275.788 -29.3061 275.349 -29.3434 274.777L-28.2782 274.162C-28.1692 274.685 -28.2235 275.197 -28.4413 275.7C-28.6565 276.194 -29.0442 276.602 -29.6042 276.926C-30.0603 277.189 -30.5286 277.325 -31.009 277.333C-31.4869 277.331 -31.9365 277.206 -32.3577 276.957C-32.7764 276.698 -33.1275 276.323 -33.4108 275.833C-33.6941 275.342 -33.8443 274.855 -33.8613 274.372C-33.8759 273.88 -33.7626 273.43 -33.5213 273.021C-33.2742 272.609 -32.9169 272.268 -32.4492 271.998C-31.9989 271.738 -31.541 271.604 -31.0754 271.597C-30.6099 271.59 -30.1757 271.709 -29.7727 271.954C-29.3731 272.193 -29.0399 272.543 -28.7733 273.005ZM-29.9838 273.288C-30.1996 272.928 -30.4979 272.711 -30.8786 272.638C-31.2593 272.566 -31.6372 272.638 -32.0125 272.854C-32.3532 273.051 -32.5814 273.329 -32.6972 273.688C-32.8164 274.042 -32.7924 274.417 -32.6252 274.813L-29.9838 273.288ZM-26.7491 268.707C-26.3739 268.49 -25.994 268.375 -25.6096 268.361C-25.2193 268.343 -24.8522 268.439 -24.5081 268.649C-24.164 268.858 -23.8669 269.179 -23.6169 269.612L-21.9919 272.427L-22.9705 272.992L-24.5105 270.324C-24.7572 269.897 -25.0524 269.633 -25.396 269.531C-25.7429 269.423 -26.1012 269.476 -26.4707 269.689C-26.8402 269.903 -27.0679 270.188 -27.154 270.546C-27.2376 270.894 -27.1561 271.282 -26.9094 271.709L-25.3694 274.377L-26.3567 274.947L-29.1117 270.175L-28.1244 269.605L-27.8094 270.151C-27.7611 269.861 -27.6445 269.59 -27.4596 269.337C-27.2689 269.08 -27.0321 268.87 -26.7491 268.707ZM-21.8708 267.068L-20.3458 269.71C-20.2425 269.889 -20.127 269.995 -19.9996 270.029C-19.8696 270.054 -19.7036 270.009 -19.5015 269.892L-18.8953 269.542L-18.4203 270.365L-19.1997 270.815C-19.6443 271.071 -20.0449 271.164 -20.4017 271.093C-20.7584 271.022 -21.0717 270.752 -21.3417 270.285L-22.8667 267.643L-23.4296 267.968L-23.8946 267.163L-23.3317 266.838L-24.0167 265.651L-23.0208 265.076L-22.3358 266.263L-21.1753 265.593L-20.7103 266.398L-21.8708 267.068ZM-16.9698 266.34C-17.2532 265.85 -17.4034 265.363 -17.4204 264.88C-17.435 264.388 -17.3245 263.939 -17.089 263.534C-16.8535 263.129 -16.5077 262.794 -16.0516 262.531C-15.4742 262.197 -14.9179 262.061 -14.3826 262.121C-13.8449 262.173 -13.363 262.414 -12.9369 262.846L-14.0021 263.461C-14.2253 263.274 -14.4706 263.169 -14.7378 263.146C-15.005 263.124 -15.2829 263.196 -15.5716 263.362C-15.9757 263.596 -16.2157 263.927 -16.2915 264.355C-16.3649 264.775 -16.2533 265.241 -15.9566 265.755C-15.6599 266.269 -15.3099 266.602 -14.9065 266.754C-14.4974 266.903 -14.0907 266.86 -13.6866 266.627C-13.115 266.297 -12.8818 265.828 -12.9871 265.219L-11.9219 264.604C-11.7804 265.169 -11.8169 265.705 -12.0313 266.214C-12.249 266.717 -12.6408 267.132 -13.2066 267.458C-13.6627 267.722 -14.1252 267.854 -14.594 267.855C-15.0662 267.851 -15.51 267.722 -15.9254 267.469C-16.3384 267.207 -16.6865 266.831 -16.9698 266.34ZM-7.95318 264.425C-8.40351 264.685 -8.86888 264.819 -9.34928 264.827C-9.83301 264.829 -10.2855 264.706 -10.7066 264.456C-11.1312 264.201 -11.4851 263.828 -11.7684 263.337C-12.0484 262.852 -12.1899 262.361 -12.193 261.862C-12.196 261.363 -12.0711 260.906 -11.8183 260.491C-11.5655 260.075 -11.211 259.736 -10.7549 259.473C-10.2988 259.209 -9.82763 259.072 -9.34146 259.061C-8.85529 259.05 -8.39706 259.17 -7.96678 259.422C-7.53649 259.674 -7.18135 260.042 -6.90135 260.527C-6.62135 261.012 -6.48271 261.506 -6.48544 262.008C-6.48816 262.51 -6.62005 262.974 -6.8811 263.402C-7.13971 263.821 -7.49707 264.162 -7.95318 264.425ZM-8.44818 263.568C-8.19415 263.421 -7.99243 263.224 -7.84304 262.976C-7.68787 262.725 -7.61101 262.438 -7.61244 262.116C-7.61388 261.793 -7.7146 261.459 -7.9146 261.112C-8.1146 260.766 -8.34933 260.513 -8.61878 260.353C-8.89157 260.187 -9.17266 260.107 -9.46206 260.112C-9.75145 260.117 -10.0232 260.193 -10.2772 260.34C-10.5312 260.487 -10.7329 260.684 -10.8823 260.932C-11.026 261.177 -11.0913 261.457 -11.0783 261.773C-11.0686 262.083 -10.9638 262.411 -10.7638 262.757C-10.4672 263.271 -10.1072 263.594 -9.68411 263.727C-9.25853 263.851 -8.84655 263.798 -8.44818 263.568ZM-4.93783 256.114C-4.56255 255.898 -4.18269 255.782 -3.79824 255.768C-3.40801 255.751 -3.04085 255.847 -2.69676 256.056C-2.35266 256.265 -2.05561 256.586 -1.80561 257.019L-0.180608 259.834L-1.15922 260.399L-2.69922 257.732C-2.94588 257.304 -3.24103 257.04 -3.58465 256.938C-3.9316 256.83 -4.28983 256.883 -4.65933 257.097C-5.02884 257.31 -5.25662 257.595 -5.34268 257.953C-5.4263 258.302 -5.34477 258.689 -5.09811 259.117L-3.55811 261.784L-4.54538 262.354L-7.30038 257.582L-6.31311 257.012L-5.99811 257.558C-5.94978 257.268 -5.83316 256.997 -5.64823 256.744C-5.45753 256.487 -5.22073 256.278 -4.93783 256.114ZM2.85576 258.185C2.48049 258.402 2.1044 258.53 1.72752 258.571C1.35307 258.602 1.01257 258.552 0.706034 258.421C0.396163 258.285 0.15212 258.075 -0.0260938 257.793L0.995816 257.203C1.1298 257.395 1.3234 257.511 1.5766 257.549C1.83225 257.579 2.09286 257.517 2.35844 257.364C2.63557 257.204 2.81919 257.028 2.9093 256.838C3.00185 256.638 2.9998 256.454 2.90313 256.287C2.7998 256.108 2.63653 256.025 2.41332 256.039C2.19589 256.049 1.87242 256.108 1.44292 256.218C1.02829 256.326 0.681733 256.399 0.403233 256.437C0.124733 256.475 -0.153233 256.446 -0.430664 256.353C-0.702322 256.255 -0.928151 256.051 -1.10815 255.739C-1.25482 255.485 -1.3131 255.211 -1.28298 254.916C-1.25621 254.616 -1.13925 254.325 -0.932126 254.044C-0.719224 253.76 -0.430908 253.512 -0.0671776 253.302C0.475532 252.989 0.991431 252.876 1.48052 252.963C1.97205 253.041 2.36603 253.31 2.66246 253.77L1.67519 254.34C1.53453 254.136 1.3496 254.016 1.12038 253.979C0.891162 253.942 0.643763 254 0.378182 254.154C0.118374 254.304 -0.0524788 254.468 -0.134376 254.646C-0.216274 254.824 -0.210555 254.994 -0.117222 255.156C-0.0438889 255.283 0.0639658 255.363 0.206342 255.396C0.348718 255.429 0.501301 255.434 0.664092 255.409C0.823549 255.378 1.05485 255.326 1.35799 255.251C1.75773 255.143 2.09563 255.075 2.37169 255.046C2.65019 255.009 2.92361 255.036 3.19193 255.127C3.46026 255.219 3.68564 255.416 3.86808 255.718C4.02475 255.99 4.08969 256.275 4.06291 256.576C4.03613 256.876 3.91918 257.167 3.71205 257.448C3.5107 257.726 3.22527 257.972 2.85576 258.185ZM8.63327 251.408C8.73661 251.587 8.81839 251.756 8.87863 251.913L5.23267 254.018C5.48153 254.383 5.79965 254.607 6.18702 254.691C6.57439 254.775 6.95282 254.711 7.32233 254.498C7.85349 254.191 8.10043 253.752 8.06316 253.181L9.12837 252.566C9.23737 253.088 9.183 253.6 8.96529 254.103C8.75001 254.597 8.36236 255.006 7.80233 255.329C7.34622 255.592 6.87797 255.728 6.39757 255.736C5.91961 255.735 5.47004 255.609 5.04886 255.36C4.63013 255.101 4.27909 254.727 3.99576 254.236C3.71242 253.745 3.56224 253.258 3.5452 252.775C3.53061 252.284 3.64396 251.833 3.88525 251.424C4.13231 251.012 4.48967 250.671 4.95733 250.401C5.40766 250.141 5.86558 250.008 6.3311 250.001C6.79662 249.994 7.23086 250.113 7.63383 250.357C8.03346 250.596 8.36661 250.946 8.63327 251.408ZM7.4227 251.691C7.20693 251.331 6.90869 251.115 6.52799 251.042C6.14729 250.969 5.7693 251.041 5.39402 251.258C5.05339 251.454 4.82516 251.732 4.70934 252.092C4.59019 252.445 4.61418 252.82 4.78133 253.216L7.4227 251.691ZM9.34076 251.15C9.05742 250.659 8.90724 250.172 8.89021 249.69C8.87561 249.198 8.98607 248.749 9.22159 248.343C9.45711 247.938 9.80292 247.604 10.259 247.34C10.8364 247.007 11.3927 246.871 11.928 246.931C12.4657 246.982 12.9476 247.224 13.3737 247.655L12.3085 248.27C12.0852 248.083 11.84 247.979 11.5728 247.956C11.3056 247.933 11.0277 248.005 10.739 248.172C10.3349 248.405 10.0949 248.736 10.0191 249.165C9.9457 249.584 10.0573 250.051 10.354 250.565C10.6507 251.079 11.0007 251.412 11.4041 251.564C11.8132 251.712 12.2199 251.67 12.624 251.437C13.1956 251.107 13.4288 250.637 13.3235 250.028L14.3887 249.413C14.5302 249.978 14.4937 250.515 14.2793 251.024C14.0616 251.527 13.6698 251.941 13.104 252.268C12.6479 252.531 12.1854 252.664 11.7166 252.665C11.2444 252.66 10.8006 252.532 10.3852 252.279C9.97224 252.017 9.62409 251.641 9.34076 251.15ZM15.1044 245.721L16.6294 248.362C16.7328 248.541 16.8482 248.648 16.9757 248.682C17.1056 248.707 17.2716 248.661 17.4737 248.544L18.0799 248.194L18.5549 249.017L17.7755 249.467C17.3309 249.724 16.9303 249.816 16.5736 249.745C16.2169 249.674 15.9035 249.405 15.6335 248.937L14.1085 246.296L13.5456 246.621L13.0806 245.815L13.6435 245.49L12.9585 244.304L13.9544 243.729L14.6394 244.915L15.7999 244.245L16.2649 245.051L15.1044 245.721ZM22.3933 243.464C22.4966 243.643 22.5784 243.811 22.6386 243.969L18.9927 246.074C19.2415 246.438 19.5596 246.663 19.947 246.747C20.3344 246.831 20.7128 246.767 21.0823 246.553C21.6135 246.247 21.8604 245.808 21.8232 245.236L22.8884 244.621C22.9974 245.144 22.943 245.656 22.7253 246.159C22.51 246.653 22.1223 247.061 21.5623 247.385C21.1062 247.648 20.638 247.784 20.1576 247.792C19.6796 247.79 19.23 247.665 18.8089 247.416C18.3901 247.157 18.0391 246.782 17.7557 246.291C17.4724 245.801 17.3222 245.314 17.3052 244.831C17.2906 244.339 17.404 243.889 17.6452 243.48C17.8923 243.068 18.2497 242.727 18.7173 242.457C19.1677 242.197 19.6256 242.063 20.0911 242.056C20.5566 242.049 20.9909 242.168 21.3938 242.413C21.7935 242.652 22.1266 243.002 22.3933 243.464ZM21.1827 243.747C20.9669 243.387 20.6687 243.17 20.288 243.097C19.9073 243.025 19.5293 243.097 19.154 243.313C18.8134 243.51 18.5852 243.788 18.4693 244.147C18.3502 244.501 18.3742 244.876 18.5413 245.272L21.1827 243.747ZM23.6717 240.774L25.1967 243.416C25.3 243.595 25.4154 243.701 25.5429 243.735C25.6728 243.761 25.8388 243.715 26.0409 243.598L26.6471 243.248L27.1221 244.071L26.3427 244.521C25.8981 244.777 25.4975 244.87 25.1408 244.799C24.7841 244.728 24.4707 244.458 24.2007 243.991L22.6757 241.349L22.1128 241.674L21.6478 240.869L22.2107 240.544L21.5257 239.358L22.5217 238.783L23.2067 239.969L24.3671 239.299L24.8321 240.104L23.6717 240.774ZM29.5985 236.279L32.3535 241.05L31.3663 241.62L31.0413 241.058C30.9987 241.344 30.8838 241.618 30.6964 241.88C30.5115 242.133 30.2775 242.341 29.9946 242.505C29.6194 242.721 29.2366 242.838 28.8464 242.856C28.4619 242.87 28.0948 242.774 27.7449 242.568C27.4008 242.359 27.1038 242.038 26.8538 241.605L25.2338 238.799L26.2124 238.234L27.7474 240.892C27.994 241.32 28.2908 241.587 28.6378 241.695C28.9814 241.796 29.338 241.741 29.7075 241.527C30.077 241.314 30.3036 241.033 30.3872 240.685C30.4732 240.327 30.3929 239.935 30.1463 239.507L28.6113 236.849L29.5985 236.279ZM32.2884 235.649C32.2928 235.324 32.375 235.026 32.535 234.756C32.6975 234.478 32.9433 234.244 33.2724 234.054L33.8624 235.076L33.6112 235.221C33.2244 235.444 32.9866 235.712 32.8979 236.025C32.8149 236.335 32.9134 236.732 33.1934 237.217L34.6434 239.728L33.6562 240.298L30.9012 235.527L31.8884 234.957L32.2884 235.649ZM41.0066 236.159C40.6313 236.375 40.2552 236.504 39.8783 236.544C39.5039 236.576 39.1634 236.526 38.8568 236.395C38.5469 236.258 38.3029 236.049 38.1247 235.767L39.1466 235.177C39.2806 235.369 39.4742 235.484 39.7274 235.523C39.983 235.552 40.2436 235.49 40.5092 235.337C40.7864 235.177 40.97 235.002 41.0601 234.811C41.1526 234.612 41.1506 234.428 41.0539 234.261C40.9506 234.082 40.7873 233.999 40.5641 234.012C40.3467 234.022 40.0232 234.082 39.5937 234.191C39.1791 234.3 38.8325 234.373 38.554 234.411C38.2755 234.448 37.9976 234.42 37.7201 234.326C37.4485 234.229 37.2226 234.025 37.0426 233.713C36.896 233.459 36.8377 233.185 36.8678 232.89C36.8946 232.59 37.0115 232.299 37.2187 232.018C37.4316 231.733 37.7199 231.486 38.0836 231.276C38.6263 230.963 39.1422 230.849 39.6313 230.937C40.1228 231.015 40.5168 231.284 40.8132 231.744L39.826 232.314C39.6853 232.11 39.5004 231.99 39.2712 231.953C39.0419 231.916 38.7945 231.974 38.529 232.127C38.2692 232.277 38.0983 232.441 38.0164 232.619C37.9345 232.798 37.9402 232.968 38.0336 233.129C38.1069 233.256 38.2148 233.336 38.3571 233.37C38.4995 233.403 38.6521 233.407 38.8149 233.382C38.9743 233.352 39.2056 233.299 39.5088 233.224C39.9085 233.117 40.2464 233.049 40.5225 233.02C40.801 232.982 41.0744 233.009 41.3427 233.101C41.611 233.192 41.8364 233.389 42.0189 233.692C42.1755 233.963 42.2405 234.249 42.2137 234.549C42.1869 234.85 42.07 235.14 41.8628 235.422C41.6615 235.7 41.3761 235.945 41.0066 236.159ZM46.7841 229.382C46.8874 229.561 46.9692 229.729 47.0294 229.887L43.3835 231.992C43.6323 232.356 43.9504 232.581 44.3378 232.665C44.7252 232.749 45.1036 232.685 45.4731 232.471C46.0043 232.165 46.2512 231.726 46.2139 231.154L47.2792 230.539C47.3882 231.062 47.3338 231.574 47.1161 232.077C46.9008 232.571 46.5131 232.979 45.9531 233.303C45.497 233.566 45.0288 233.702 44.5484 233.71C44.0704 233.708 43.6208 233.583 43.1997 233.333C42.7809 233.075 42.4299 232.7 42.1465 232.209C41.8632 231.719 41.713 231.232 41.696 230.749C41.6814 230.257 41.7947 229.807 42.036 229.398C42.2831 228.986 42.6405 228.645 43.1081 228.375C43.5584 228.115 44.0164 227.981 44.4819 227.974C44.9474 227.967 45.3816 228.086 45.7846 228.331C46.1842 228.57 46.5174 228.92 46.7841 229.382ZM45.5735 229.665C45.3577 229.305 45.0595 229.088 44.6788 229.015C44.2981 228.943 43.9201 229.015 43.5448 229.231C43.2042 229.428 42.9759 229.706 42.8601 230.065C42.741 230.419 42.765 230.794 42.9321 231.19L45.5735 229.665ZM47.4815 229.106C47.2049 228.627 47.058 228.146 47.041 227.663C47.0297 227.177 47.1361 226.735 47.3601 226.336C47.5865 225.928 47.9104 225.602 48.3319 225.359C48.6436 225.179 48.9896 225.072 49.3699 225.037C49.7525 224.993 50.0983 225.032 50.4073 225.154L49.0773 222.85L50.0732 222.275L53.7732 228.684L52.7773 229.259L52.3623 228.54C52.334 228.864 52.2188 229.185 52.0168 229.502C51.8206 229.815 51.5377 230.078 51.1682 230.292C50.7525 230.532 50.3115 230.648 49.8451 230.64C49.3811 230.623 48.9397 230.485 48.521 230.227C48.1047 229.959 47.7582 229.585 47.4815 229.106ZM51.3973 226.869C51.2073 226.539 50.973 226.294 50.6945 226.131C50.4217 225.965 50.1389 225.882 49.8462 225.882C49.5535 225.882 49.2801 225.955 49.0261 226.101C48.772 226.248 48.572 226.448 48.4259 226.702C48.2765 226.95 48.2025 227.235 48.204 227.557C48.2079 227.871 48.3048 228.192 48.4948 228.521C48.6848 228.85 48.9179 229.101 49.194 229.272C49.4759 229.44 49.7649 229.528 50.0609 229.534C50.3594 229.531 50.6328 229.458 50.8811 229.314C51.1351 229.168 51.3351 228.967 51.4812 228.714C51.6273 228.46 51.6967 228.174 51.6895 227.855C51.6847 227.526 51.5873 227.198 51.3973 226.869ZM55.6005 224.419C55.3239 223.94 55.177 223.458 55.16 222.976C55.1487 222.489 55.2551 222.047 55.479 221.648C55.7055 221.24 56.0265 220.917 56.4422 220.677C56.8175 220.46 57.187 220.347 57.5508 220.337C57.917 220.318 58.2472 220.37 58.5413 220.492L58.1413 219.799L59.1372 219.224L61.8922 223.996L60.8963 224.571L60.4863 223.861C60.4489 224.183 60.3292 224.502 60.1271 224.819C59.9251 225.136 59.6394 225.401 59.2699 225.614C58.86 225.851 58.4247 225.964 57.964 225.952C57.5001 225.935 57.0587 225.798 56.64 225.539C56.2237 225.271 55.8772 224.898 55.6005 224.419ZM59.5163 222.181C59.3263 221.852 59.092 221.606 58.8135 221.444C58.5407 221.278 58.2579 221.195 57.9652 221.194C57.6725 221.194 57.3991 221.267 57.145 221.414C56.891 221.561 56.691 221.761 56.5449 222.014C56.3955 222.262 56.3215 222.548 56.323 222.87C56.3268 223.183 56.4238 223.505 56.6138 223.834C56.8038 224.163 57.0368 224.413 57.313 224.585C57.5949 224.753 57.8838 224.84 58.1799 224.846C58.4784 224.843 58.7518 224.77 59 224.627C59.2541 224.48 59.4541 224.28 59.6002 224.026C59.7462 223.773 59.8157 223.486 59.8085 223.167C59.8037 222.839 59.7063 222.51 59.5163 222.181ZM64.5612 215.989C64.9307 215.776 65.3002 215.662 65.6698 215.649C66.0418 215.627 66.372 215.679 66.6603 215.805L66.2603 215.112L67.2562 214.537L70.0562 219.387C70.3096 219.825 70.4422 220.269 70.4541 220.716C70.4693 221.169 70.3575 221.595 70.1187 221.995C69.8856 222.391 69.5266 222.729 69.0416 223.009C68.395 223.383 67.7697 223.54 67.1658 223.48C66.5652 223.427 66.0861 223.157 65.7283 222.671L66.707 222.106C66.9253 222.311 67.1991 222.418 67.5283 222.428C67.8665 222.441 68.206 222.349 68.5466 222.152C68.945 221.922 69.1954 221.616 69.2979 221.233C69.4062 220.847 69.327 220.424 69.0603 219.962L68.6003 219.165C68.5629 219.487 68.4448 219.809 68.2461 220.132C68.0499 220.445 67.7699 220.707 67.4062 220.917C66.9905 221.157 66.5494 221.273 66.083 221.265C65.6191 221.248 65.1777 221.11 64.759 220.852C64.3427 220.584 63.9962 220.21 63.7195 219.731C63.4429 219.252 63.296 218.771 63.279 218.288C63.2677 217.802 63.3741 217.36 63.598 216.961C63.8244 216.553 64.1455 216.229 64.5612 215.989ZM67.6353 217.494C67.4453 217.164 67.211 216.919 66.9324 216.756C66.6597 216.59 66.3769 216.507 66.0842 216.507C65.7914 216.507 65.5181 216.58 65.264 216.726C65.01 216.873 64.8099 217.073 64.6639 217.327C64.5145 217.575 64.4405 217.86 64.442 218.182C64.4458 218.496 64.5428 218.817 64.7328 219.146C64.9228 219.475 65.1558 219.726 65.432 219.897C65.7139 220.065 66.0028 220.153 66.2989 220.159C66.5974 220.156 66.8708 220.083 67.119 219.939C67.3731 219.793 67.5731 219.592 67.7192 219.339C67.8652 219.085 67.9347 218.799 67.9274 218.48C67.9227 218.151 67.8253 217.823 67.6353 217.494ZM69.9402 213.911C69.9446 213.585 70.0268 213.288 70.1868 213.018C70.3493 212.74 70.5951 212.505 70.9242 212.315L71.5142 213.337L71.263 213.482C70.8762 213.706 70.6384 213.974 70.5497 214.287C70.4667 214.596 70.5652 214.994 70.8452 215.479L72.2952 217.99L71.308 218.56L68.553 213.788L69.5402 213.218L69.9402 213.911ZM72.9126 214.424C72.6359 213.944 72.4891 213.463 72.472 212.981C72.4608 212.494 72.5671 212.052 72.7911 211.653C73.0175 211.245 73.3386 210.921 73.7542 210.681C74.1295 210.465 74.4991 210.351 74.8629 210.342C75.2291 210.323 75.5593 210.374 75.8534 210.497L75.4534 209.804L76.4493 209.229L79.2043 214.001L78.2084 214.576L77.7984 213.866C77.7609 214.188 77.6412 214.507 77.4392 214.824C77.2372 215.141 76.9514 215.406 76.5819 215.619C76.172 215.856 75.7367 215.968 75.2761 215.957C74.8121 215.94 74.3708 215.803 73.952 215.544C73.5357 215.276 73.1892 214.903 72.9126 214.424ZM76.8284 212.186C76.6384 211.857 76.4041 211.611 76.1255 211.449C75.8527 211.283 75.57 211.2 75.2772 211.199C74.9845 211.199 74.7111 211.272 74.4571 211.419C74.2031 211.565 74.003 211.766 73.857 212.019C73.7076 212.267 73.6336 212.552 73.635 212.875C73.6389 213.188 73.7358 213.509 73.9258 213.839C74.1158 214.168 74.3489 214.418 74.625 214.59C74.9069 214.758 75.1959 214.845 75.492 214.851C75.7905 214.848 76.0638 214.775 76.3121 214.632C76.5661 214.485 76.7662 214.285 76.9122 214.031C77.0583 213.778 77.1277 213.491 77.1205 213.172C77.1157 212.844 77.0184 212.515 76.8284 212.186ZM81.8357 211.304L80.9417 206.636L81.9895 206.031L82.9259 211.852L81.7481 212.532L77.1831 208.806L78.2397 208.196L81.8357 211.304ZM82.8731 204.678C82.6941 204.781 82.509 204.807 82.3178 204.756C82.1265 204.704 81.9792 204.589 81.8759 204.41C81.7726 204.231 81.7465 204.046 81.7978 203.855C81.849 203.664 81.9641 203.517 82.1431 203.413C82.3163 203.313 82.4985 203.289 82.6898 203.34C82.881 203.391 83.0283 203.506 83.1317 203.685C83.235 203.864 83.261 204.049 83.2098 204.241C83.1585 204.432 83.0463 204.578 82.8731 204.678ZM83.7231 205.03L86.4781 209.802L85.4908 210.372L82.7358 205.6L83.7231 205.03ZM86.0552 206.836C85.7785 206.356 85.6317 205.875 85.6146 205.393C85.6034 204.906 85.7097 204.464 85.9337 204.065C86.1601 203.657 86.4841 203.332 86.9055 203.089C87.2173 202.909 87.5633 202.801 87.9435 202.766C88.3262 202.722 88.672 202.761 88.981 202.883L87.651 200.58L88.6469 200.005L92.3469 206.413L91.351 206.988L90.936 206.269C90.9076 206.594 90.7925 206.914 90.5905 207.231C90.3942 207.544 90.1114 207.808 89.7419 208.021C89.3262 208.261 88.8851 208.377 88.4187 208.369C87.9547 208.352 87.5134 208.215 87.0946 207.956C86.6783 207.688 86.3319 207.315 86.0552 206.836ZM89.971 204.598C89.781 204.269 89.5467 204.023 89.2681 203.861C88.9953 203.695 88.7126 203.612 88.4198 203.611C88.1271 203.611 87.8537 203.684 87.5997 203.831C87.3457 203.978 87.1456 204.178 86.9996 204.431C86.8502 204.679 86.7762 204.965 86.7776 205.287C86.7815 205.6 86.8784 205.922 87.0684 206.251C87.2584 206.58 87.4915 206.83 87.7676 207.002C88.0495 207.17 88.3385 207.257 88.6346 207.263C88.9331 207.26 89.2064 207.187 89.4547 207.044C89.7087 206.897 89.9088 206.697 90.0548 206.443C90.2009 206.19 90.2703 205.903 90.2631 205.584C90.2584 205.256 90.161 204.927 89.971 204.598ZM91.9245 203.447C91.6479 202.968 91.501 202.487 91.484 202.004C91.4727 201.518 91.5791 201.075 91.8031 200.677C92.0295 200.269 92.3505 199.945 92.7662 199.705C93.1415 199.488 93.511 199.375 93.8748 199.365C94.2411 199.346 94.5712 199.398 94.8653 199.521L94.4653 198.828L95.4612 198.253L98.2162 203.025L97.2203 203.6L96.8103 202.889C96.7729 203.211 96.6532 203.531 96.4512 203.847C96.2492 204.164 95.9634 204.429 95.5939 204.643C95.184 204.879 94.7487 204.992 94.2881 204.981C93.8241 204.964 93.3827 204.826 92.964 204.567C92.5477 204.3 92.2012 203.926 91.9245 203.447ZM95.8403 201.209C95.6503 200.88 95.416 200.634 95.1375 200.472C94.8647 200.306 94.5819 200.223 94.2892 200.223C93.9965 200.222 93.7231 200.296 93.4691 200.442C93.215 200.589 93.015 200.789 92.8689 201.043C92.7195 201.291 92.6455 201.576 92.647 201.898C92.6509 202.212 92.7478 202.533 92.9378 202.862C93.1278 203.191 93.3609 203.441 93.637 203.613C93.9189 203.781 94.2079 203.869 94.5039 203.875C94.8024 203.872 95.0758 203.798 95.3241 203.655C95.5781 203.508 95.7781 203.308 95.9242 203.055C96.0703 202.801 96.1397 202.515 96.1325 202.195C96.1277 201.867 96.0303 201.538 95.8403 201.209ZM104.739 192.792C105.114 192.576 105.494 192.46 105.879 192.446C106.269 192.429 106.636 192.525 106.98 192.734C107.33 192.94 107.63 193.259 107.88 193.692L109.505 196.507L108.526 197.072L106.986 194.405C106.74 193.977 106.444 193.713 106.101 193.611C105.754 193.503 105.396 193.556 105.026 193.77C104.657 193.983 104.429 194.268 104.343 194.626C104.259 194.975 104.341 195.362 104.587 195.79L106.127 198.457L105.149 199.022L103.609 196.355C103.362 195.927 103.067 195.663 102.723 195.561C102.376 195.453 102.018 195.506 101.649 195.72C101.279 195.933 101.051 196.218 100.965 196.576C100.882 196.925 100.963 197.312 101.21 197.74L102.75 200.407L101.763 200.977L99.0076 196.205L99.9949 195.635L100.31 196.181C100.358 195.891 100.475 195.62 100.66 195.367C100.845 195.114 101.079 194.906 101.362 194.742C101.743 194.522 102.13 194.406 102.523 194.395C102.917 194.383 103.283 194.484 103.621 194.696C103.599 194.324 103.692 193.966 103.902 193.622C104.108 193.272 104.387 192.996 104.739 192.792ZM112.876 194.665C112.426 194.925 111.96 195.059 111.48 195.067C110.996 195.069 110.544 194.945 110.123 194.696C109.698 194.44 109.344 194.067 109.061 193.577C108.781 193.092 108.639 192.6 108.636 192.101C108.633 191.603 108.758 191.146 109.011 190.73C109.264 190.315 109.618 189.975 110.074 189.712C110.53 189.449 111.002 189.311 111.488 189.3C111.974 189.289 112.432 189.409 112.862 189.661C113.293 189.913 113.648 190.282 113.928 190.767C114.208 191.252 114.346 191.745 114.344 192.247C114.341 192.749 114.209 193.214 113.948 193.642C113.689 194.06 113.332 194.401 112.876 194.665ZM112.381 193.807C112.635 193.661 112.837 193.463 112.986 193.215C113.141 192.964 113.218 192.677 113.217 192.355C113.215 192.032 113.115 191.698 112.915 191.352C112.715 191.005 112.48 190.752 112.21 190.592C111.938 190.426 111.656 190.346 111.367 190.351C111.078 190.357 110.806 190.433 110.552 190.579C110.298 190.726 110.096 190.923 109.947 191.171C109.803 191.416 109.738 191.696 109.751 192.012C109.761 192.322 109.865 192.65 110.065 192.997C110.362 193.51 110.722 193.834 111.145 193.967C111.571 194.09 111.983 194.037 112.381 193.807ZM113.571 185.615L117.271 192.023L116.284 192.593L112.584 186.185L113.571 185.615ZM121.496 186.247C121.599 186.426 121.681 186.594 121.741 186.752L118.095 188.857C118.344 189.221 118.662 189.446 119.049 189.53C119.437 189.614 119.815 189.55 120.185 189.336C120.716 189.03 120.963 188.591 120.926 188.02L121.991 187.405C122.1 187.927 122.045 188.439 121.828 188.942C121.612 189.436 121.225 189.845 120.665 190.168C120.209 190.431 119.74 190.567 119.26 190.575C118.782 190.574 118.332 190.448 117.911 190.199C117.493 189.94 117.141 189.565 116.858 189.075C116.575 188.584 116.425 188.097 116.408 187.614C116.393 187.122 116.506 186.672 116.748 186.263C116.995 185.851 117.352 185.51 117.82 185.24C118.27 184.98 118.728 184.847 119.193 184.84C119.659 184.833 120.093 184.951 120.496 185.196C120.896 185.435 121.229 185.785 121.496 186.247ZM120.285 186.53C120.069 186.17 119.771 185.953 119.39 185.881C119.01 185.808 118.632 185.88 118.256 186.097C117.916 186.293 117.688 186.571 117.572 186.931C117.453 187.284 117.477 187.659 117.644 188.055L120.285 186.53ZM125.689 187.267C125.314 187.484 124.938 187.612 124.561 187.653C124.187 187.684 123.846 187.634 123.54 187.503C123.23 187.367 122.986 187.157 122.807 186.875L123.829 186.285C123.963 186.477 124.157 186.593 124.41 186.631C124.666 186.661 124.926 186.599 125.192 186.446C125.469 186.286 125.653 186.11 125.743 185.92C125.835 185.72 125.833 185.536 125.737 185.369C125.633 185.19 125.47 185.107 125.247 185.121C125.029 185.131 124.706 185.19 124.276 185.3C123.862 185.408 123.515 185.481 123.237 185.519C122.958 185.557 122.68 185.529 122.403 185.435C122.131 185.337 121.905 185.133 121.725 184.821C121.579 184.567 121.52 184.293 121.551 183.998C121.577 183.698 121.694 183.407 121.901 183.126C122.114 182.842 122.403 182.594 122.766 182.384C123.309 182.071 123.825 181.958 124.314 182.045C124.806 182.123 125.2 182.392 125.496 182.852L124.509 183.422C124.368 183.218 124.183 183.098 123.954 183.061C123.725 183.024 123.477 183.082 123.212 183.236C122.952 183.386 122.781 183.55 122.699 183.728C122.617 183.906 122.623 184.076 122.716 184.238C122.79 184.365 122.897 184.445 123.04 184.478C123.182 184.511 123.335 184.516 123.498 184.491C123.657 184.46 123.888 184.408 124.192 184.333C124.591 184.225 124.929 184.157 125.205 184.128C125.484 184.091 125.757 184.118 126.025 184.209C126.294 184.301 126.519 184.498 126.702 184.8C126.858 185.072 126.923 185.357 126.896 185.658C126.87 185.958 126.753 186.249 126.546 186.53C126.344 186.808 126.059 187.054 125.689 187.267ZM127.4 180.887L128.925 183.528C129.029 183.707 129.144 183.814 129.271 183.848C129.401 183.873 129.567 183.827 129.769 183.71L130.376 183.36L130.851 184.183L130.071 184.633C129.627 184.89 129.226 184.982 128.869 184.911C128.513 184.84 128.199 184.571 127.929 184.103L126.404 181.462L125.841 181.787L125.376 180.981L125.939 180.656L125.254 179.47L126.25 178.895L126.935 180.081L128.096 179.411L128.561 180.217L127.4 180.887ZM129.143 177.964C128.964 178.067 128.779 178.093 128.588 178.042C128.396 177.991 128.249 177.876 128.146 177.697C128.042 177.518 128.016 177.332 128.068 177.141C128.119 176.95 128.234 176.803 128.413 176.699C128.586 176.599 128.768 176.575 128.96 176.626C129.151 176.677 129.298 176.793 129.401 176.972C129.505 177.151 129.531 177.336 129.48 177.527C129.428 177.718 129.316 177.864 129.143 177.964ZM129.993 178.316L132.748 183.088L131.761 183.658L129.006 178.886L129.993 178.316ZM136.972 177.312C137.076 177.491 137.158 177.659 137.218 177.817L133.572 179.922C133.821 180.286 134.139 180.51 134.526 180.595C134.914 180.679 135.292 180.614 135.662 180.401C136.193 180.094 136.44 179.655 136.402 179.084L137.468 178.469C137.577 178.991 137.522 179.504 137.304 180.007C137.089 180.5 136.702 180.909 136.142 181.232C135.685 181.496 135.217 181.631 134.737 181.639C134.259 181.638 133.809 181.513 133.388 181.263C132.969 181.005 132.618 180.63 132.335 180.139C132.052 179.648 131.901 179.162 131.884 178.679C131.87 178.187 131.983 177.736 132.224 177.328C132.472 176.916 132.829 176.575 133.297 176.305C133.747 176.045 134.205 175.911 134.67 175.904C135.136 175.897 135.57 176.016 135.973 176.26C136.373 176.499 136.706 176.85 136.972 177.312ZM135.762 177.595C135.546 177.234 135.248 177.018 134.867 176.945C134.487 176.872 134.109 176.944 133.733 177.161C133.393 177.358 133.164 177.636 133.049 177.995C132.929 178.349 132.953 178.724 133.121 179.12L135.762 177.595ZM-51.853 299.782C-52.0319 299.886 -52.217 299.912 -52.4083 299.86C-52.5995 299.809 -52.7468 299.694 -52.8502 299.515C-52.9535 299.336 -52.9795 299.151 -52.9283 298.96C-52.877 298.768 -52.7619 298.621 -52.583 298.518C-52.4097 298.418 -52.2275 298.393 -52.0363 298.445C-51.845 298.496 -51.6977 298.611 -51.5944 298.79C-51.4911 298.969 -51.465 299.154 -51.5163 299.345C-51.5675 299.537 -51.6797 299.682 -51.853 299.782ZM-51.003 300.134L-48.248 304.906L-49.2352 305.476L-51.9902 300.704L-51.003 300.134ZM-48.6709 301.94C-48.9475 301.461 -49.0944 300.98 -49.1114 300.497C-49.1227 300.011 -49.0163 299.569 -48.7924 299.17C-48.5659 298.762 -48.242 298.436 -47.8205 298.193C-47.5088 298.013 -47.1628 297.906 -46.7826 297.871C-46.3999 297.827 -46.0541 297.866 -45.7451 297.988L-47.0751 295.684L-46.0792 295.109L-42.3792 301.518L-43.3751 302.093L-43.7901 301.374C-43.8184 301.698 -43.9336 302.019 -44.1356 302.336C-44.3318 302.649 -44.6147 302.912 -44.9842 303.126C-45.3999 303.366 -45.8409 303.482 -46.3074 303.474C-46.7713 303.457 -47.2127 303.319 -47.6314 303.061C-48.0477 302.793 -48.3942 302.42 -48.6709 301.94ZM-44.7551 299.703C-44.9451 299.374 -45.1794 299.128 -45.4579 298.965C-45.7307 298.799 -46.0135 298.716 -46.3062 298.716C-46.5989 298.716 -46.8723 298.789 -47.1264 298.936C-47.3804 299.082 -47.5804 299.282 -47.7265 299.536C-47.8759 299.784 -47.9499 300.069 -47.9484 300.392C-47.9446 300.705 -47.8476 301.026 -47.6576 301.355C-47.4676 301.684 -47.2346 301.935 -46.9584 302.106C-46.6765 302.275 -46.3876 302.362 -46.0915 302.368C-45.793 302.365 -45.5196 302.292 -45.2714 302.148C-45.0173 302.002 -44.8173 301.802 -44.6712 301.548C-44.5252 301.294 -44.4557 301.008 -44.4629 300.689C-44.4677 300.36 -44.5651 300.032 -44.7551 299.703ZM-37.4982 297.522L-38.3922 292.854L-37.3443 292.249L-36.4079 298.07L-37.5857 298.75L-42.1507 295.024L-41.0942 294.414L-37.4982 297.522ZM-31.7282 295.472C-32.1785 295.732 -32.6439 295.866 -33.1243 295.874C-33.608 295.877 -34.0605 295.753 -34.4817 295.503C-34.9062 295.248 -35.2601 294.875 -35.5434 294.384C-35.8234 293.899 -35.965 293.408 -35.968 292.909C-35.971 292.41 -35.8462 291.953 -35.5933 291.538C-35.3405 291.122 -34.986 290.783 -34.5299 290.52C-34.0738 290.256 -33.6027 290.119 -33.1165 290.108C-32.6303 290.097 -32.1721 290.217 -31.7418 290.469C-31.3115 290.721 -30.9564 291.089 -30.6764 291.574C-30.3964 292.059 -30.2577 292.553 -30.2605 293.055C-30.2632 293.557 -30.3951 294.022 -30.6561 294.449C-30.9147 294.868 -31.2721 295.209 -31.7282 295.472ZM-32.2232 294.615C-31.9692 294.468 -31.7674 294.271 -31.6181 294.023C-31.4629 293.772 -31.386 293.485 -31.3875 293.163C-31.3889 292.84 -31.4896 292.506 -31.6896 292.159C-31.8896 291.813 -32.1243 291.56 -32.3938 291.4C-32.6666 291.234 -32.9477 291.154 -33.2371 291.159C-33.5265 291.164 -33.7982 291.24 -34.0522 291.387C-34.3063 291.534 -34.508 291.731 -34.6574 291.979C-34.801 292.224 -34.8663 292.504 -34.8533 292.82C-34.8437 293.13 -34.7388 293.458 -34.5388 293.804C-34.2422 294.318 -33.8823 294.642 -33.4591 294.774C-33.0335 294.898 -32.6216 294.845 -32.2232 294.615ZM-31.0331 286.422L-27.3331 292.831L-28.3204 293.401L-32.0204 286.992L-31.0331 286.422ZM-24.4705 284.816L-21.7155 289.588L-22.7027 290.158L-23.0277 289.595C-23.0703 289.881 -23.1852 290.155 -23.3726 290.417C-23.5575 290.67 -23.7915 290.879 -24.0744 291.042C-24.4496 291.259 -24.8324 291.376 -25.2226 291.393C-25.6071 291.407 -25.9742 291.311 -26.3241 291.105C-26.6682 290.896 -26.9652 290.575 -27.2152 290.142L-28.8352 287.336L-27.8566 286.771L-26.3216 289.43C-26.075 289.857 -25.7781 290.124 -25.4312 290.232C-25.0876 290.334 -24.731 290.278 -24.3615 290.065C-23.992 289.851 -23.7654 289.57 -23.6818 289.222C-23.5958 288.864 -23.6761 288.472 -23.9227 288.045L-25.4577 285.386L-24.4705 284.816ZM-21.551 284.204L-20.026 286.846C-19.9227 287.025 -19.8073 287.131 -19.6798 287.165C-19.5498 287.19 -19.3838 287.145 -19.1818 287.028L-18.5756 286.678L-18.1006 287.501L-18.88 287.951C-19.3245 288.207 -19.7252 288.3 -20.0819 288.229C-20.4386 288.158 -20.752 287.888 -21.022 287.421L-22.547 284.779L-23.1099 285.104L-23.5749 284.299L-23.012 283.974L-23.697 282.787L-22.701 282.212L-22.016 283.399L-20.8556 282.729L-20.3906 283.534L-21.551 284.204ZM-18.5533 282.335C-18.5126 282.019 -18.3912 281.702 -18.1892 281.386C-17.9872 281.069 -17.7043 280.806 -17.3406 280.596C-16.9249 280.356 -16.4867 280.241 -16.0261 280.252C-15.563 280.254 -15.1267 280.383 -14.717 280.64C-14.3074 280.896 -13.9642 281.264 -13.6876 281.743C-13.4109 282.222 -13.2607 282.709 -13.237 283.203C-13.2167 283.692 -13.318 284.143 -13.5411 284.556C-13.7617 284.961 -14.0799 285.283 -14.4956 285.523C-14.8593 285.733 -15.2243 285.848 -15.5905 285.867C-15.9601 285.88 -16.2977 285.829 -16.6033 285.712L-14.8933 288.674L-15.8806 289.244L-19.9456 282.203L-18.9583 281.633L-18.5533 282.335ZM-14.6922 282.323C-14.8822 281.994 -15.1148 281.751 -15.39 281.594C-15.6628 281.428 -15.9468 281.35 -16.2419 281.358C-16.5347 281.358 -16.8081 281.431 -17.0621 281.578C-17.3103 281.721 -17.5104 281.921 -17.6622 282.178C-17.8083 282.432 -17.8806 282.72 -17.8792 283.043C-17.872 283.362 -17.7733 283.686 -17.5833 284.015C-17.3933 284.344 -17.1603 284.594 -16.8842 284.766C-16.6056 284.929 -16.32 285.01 -16.0272 285.01C-15.7287 285.007 -15.4553 284.934 -15.2071 284.791C-14.9531 284.644 -14.753 284.444 -14.6069 284.19C-14.4584 283.928 -14.3895 283.634 -14.4 283.309C-14.4048 282.98 -14.5022 282.652 -14.6922 282.323ZM-13.0404 281.369C-13.317 280.89 -13.4639 280.409 -13.4809 279.926C-13.4922 279.44 -13.3858 278.997 -13.1618 278.599C-12.9354 278.191 -12.6144 277.867 -12.1987 277.627C-11.8234 277.41 -11.4539 277.297 -11.0901 277.287C-10.7238 277.268 -10.3937 277.32 -10.0996 277.443L-10.4996 276.75L-9.50365 276.175L-6.74865 280.947L-7.74458 281.522L-8.15458 280.811C-8.19201 281.133 -8.31173 281.453 -8.51374 281.769C-8.71575 282.086 -9.0015 282.351 -9.37101 282.565C-9.78093 282.801 -10.2162 282.914 -10.6768 282.903C-11.1408 282.886 -11.5822 282.748 -12.0009 282.489C-12.4172 282.222 -12.7637 281.848 -13.0404 281.369ZM-9.12458 279.131C-9.31458 278.802 -9.54886 278.556 -9.82743 278.394C-10.1002 278.228 -10.383 278.145 -10.6757 278.145C-10.9684 278.144 -11.2418 278.218 -11.4958 278.364C-11.7499 278.511 -11.9499 278.711 -12.096 278.965C-12.2454 279.213 -12.3194 279.498 -12.3179 279.82C-12.314 280.134 -12.2171 280.455 -12.0271 280.784C-11.8371 281.113 -11.604 281.363 -11.3279 281.535C-11.046 281.703 -10.757 281.791 -10.461 281.797C-10.1625 281.794 -9.8891 281.721 -9.64084 281.577C-9.38681 281.431 -9.18676 281.23 -9.0407 280.977C-8.89464 280.723 -8.82522 280.437 -8.83243 280.117C-8.83719 279.789 -8.93458 279.46 -9.12458 279.131ZM-6.5901 275.567L-5.0651 278.208C-4.96177 278.387 -4.84635 278.493 -4.71885 278.528C-4.58892 278.553 -4.42291 278.507 -4.22084 278.39L-3.61462 278.04L-3.13962 278.863L-3.91905 279.313C-4.36361 279.57 -4.76424 279.662 -5.12096 279.591C-5.47767 279.52 -5.79103 279.251 -6.06103 278.783L-7.58603 276.142L-8.14894 276.467L-8.61394 275.661L-8.05103 275.336L-8.73603 274.15L-7.7401 273.575L-7.0551 274.761L-5.89462 274.091L-5.42962 274.897L-6.5901 275.567ZM-1.69914 274.821C-1.97581 274.342 -2.12266 273.861 -2.13969 273.378C-2.15095 272.892 -2.0446 272.45 -1.82063 272.051C-1.59422 271.643 -1.27317 271.319 -0.857476 271.079C-0.482198 270.862 -0.112662 270.749 0.251132 270.739C0.617368 270.72 0.947534 270.772 1.24163 270.895L0.841633 270.202L1.83756 269.627L4.59256 274.399L3.59663 274.974L3.18663 274.264C3.1492 274.585 3.02948 274.905 2.82747 275.222C2.62546 275.538 2.33971 275.803 1.9702 276.017C1.56028 276.253 1.12501 276.366 0.66437 276.355C0.2004 276.338 -0.240954 276.2 -0.659694 275.942C-1.07599 275.674 -1.42248 275.3 -1.69914 274.821ZM2.21663 272.584C2.02663 272.254 1.79235 272.009 1.51379 271.846C1.241 271.68 0.958237 271.597 0.665511 271.597C0.372784 271.597 0.0994039 271.67 -0.15463 271.816C-0.408664 271.963 -0.608711 272.163 -0.754771 272.417C-0.904164 272.665 -0.978143 272.95 -0.976707 273.272C-0.972831 273.586 -0.875893 273.907 -0.685893 274.236C-0.495893 274.565 -0.262831 274.816 0.0132933 274.987C0.295191 275.155 0.584169 275.243 0.880229 275.249C1.17873 275.246 1.45211 275.173 1.70037 275.029C1.9544 274.883 2.15445 274.682 2.30051 274.429C2.44657 274.175 2.516 273.889 2.50879 273.57C2.50402 273.241 2.40663 272.913 2.21663 272.584ZM8.86569 265.465C9.24097 265.249 9.62083 265.133 10.0053 265.119C10.3955 265.102 10.7627 265.198 11.1068 265.407C11.4566 265.613 11.7566 265.932 12.0066 266.365L13.6316 269.18L12.653 269.745L11.113 267.078C10.8663 266.65 10.5711 266.386 10.2275 266.284C9.88058 266.176 9.52235 266.229 9.15284 266.443C8.78334 266.656 8.55556 266.941 8.4695 267.299C8.38588 267.648 8.4674 268.035 8.71407 268.463L10.2541 271.13L9.27546 271.695L7.73546 269.028C7.48879 268.6 7.19365 268.336 6.85003 268.234C6.50308 268.126 6.14485 268.179 5.77534 268.393C5.40584 268.606 5.17806 268.891 5.092 269.249C5.00838 269.598 5.0899 269.985 5.33657 270.413L6.87657 273.08L5.8893 273.65L3.1343 268.878L4.12157 268.308L4.43657 268.854C4.48489 268.564 4.60152 268.293 4.78645 268.04C4.97137 267.787 5.20529 267.579 5.48819 267.415C5.86924 267.195 6.25654 267.079 6.6501 267.068C7.04366 267.056 7.4096 267.157 7.74792 267.369C7.72559 266.997 7.81909 266.639 8.02842 266.295C8.23442 265.945 8.51351 265.669 8.86569 265.465ZM17.8163 263.427C17.9196 263.606 18.0014 263.774 18.0616 263.932L14.4157 266.037C14.6645 266.401 14.9826 266.626 15.37 266.71C15.7574 266.794 16.1358 266.73 16.5053 266.516C17.0365 266.21 17.2834 265.771 17.2462 265.199L18.3114 264.584C18.4204 265.107 18.366 265.619 18.1483 266.122C17.933 266.616 17.5454 267.024 16.9853 267.348C16.5292 267.611 16.061 267.747 15.5806 267.755C15.1026 267.753 14.653 267.628 14.2319 267.379C13.8131 267.12 13.4621 266.745 13.1788 266.255C12.8954 265.764 12.7452 265.277 12.7282 264.794C12.7136 264.302 12.827 263.852 13.0682 263.443C13.3153 263.031 13.6727 262.69 14.1403 262.42C14.5907 262.16 15.0486 262.026 15.5141 262.019C15.9796 262.012 16.4139 262.131 16.8168 262.376C17.2165 262.615 17.5496 262.965 17.8163 263.427ZM16.6057 263.71C16.3899 263.35 16.0917 263.133 15.711 263.06C15.3303 262.988 14.9523 263.06 14.577 263.276C14.2364 263.473 14.0082 263.751 13.8923 264.11C13.7732 264.464 13.7972 264.839 13.9643 265.235L16.6057 263.71ZM19.0947 260.737L20.6197 263.379C20.723 263.558 20.8384 263.664 20.9659 263.699C21.0958 263.724 21.2618 263.678 21.4639 263.561L22.0701 263.211L22.5451 264.034L21.7657 264.484C21.3211 264.74 20.9205 264.833 20.5638 264.762C20.2071 264.691 19.8937 264.421 19.6237 263.954L18.0987 261.312L17.5358 261.637L17.0708 260.832L17.6337 260.507L16.9487 259.321L17.9447 258.746L18.6297 259.932L19.7901 259.262L20.2551 260.067L19.0947 260.737ZM23.8884 263.339C23.7095 263.442 23.5244 263.468 23.3331 263.417C23.1419 263.366 22.9946 263.251 22.8912 263.072C22.7879 262.893 22.7619 262.708 22.8131 262.517C22.8643 262.325 22.9795 262.178 23.1584 262.075C23.3316 261.975 23.5139 261.95 23.7051 262.002C23.8964 262.053 24.0436 262.168 24.147 262.347C24.2503 262.526 24.2764 262.711 24.2251 262.902C24.1739 263.093 24.0616 263.239 23.8884 263.339Z" fill="#373737"/>
<rect x="214.155" y="6.18301" width="194" height="407" rx="20.5" transform="rotate(60 214.155 6.18301)" stroke="#2F2F2F"/>
<rect x="209.531" y="26.1734" width="165" height="125" rx="20.5" transform="rotate(60 209.531 26.1734)" stroke="#2F2F2F"/>
<mask id="path-4-inside-1_16_655" fill="white">
<path d="M213.678 24.3564C223.722 18.5575 236.565 21.9988 242.364 32.043L318.864 164.545C324.663 174.589 321.222 187.432 311.178 193.231L-5.78757 376.231C-15.8317 382.03 -28.6751 378.589 -34.4741 368.545L-110.974 236.043C-116.773 225.999 -113.332 213.155 -103.288 207.356L213.678 24.3564Z"/>
</mask>
<path d="M213.678 24.3564C224.2 18.2813 237.655 21.8866 243.73 32.409L319.73 164.045C325.805 174.567 322.2 188.022 311.678 194.097L310.678 192.365C320.244 186.843 323.521 174.611 317.998 165.045L241.498 32.543C235.699 22.4988 223.244 18.8336 213.678 24.3564ZM-23.9741 386.731L-121.474 217.856L-23.9741 386.731ZM-121.474 217.856L231.864 13.8564L-121.474 217.856ZM319.73 164.045C325.805 174.567 322.2 188.022 311.678 194.097L-4.42154 376.597C-14.944 382.673 -28.399 379.067 -34.4741 368.545C-28.9512 378.111 -16.3317 381.164 -6.28757 375.365L310.678 192.365C320.244 186.843 323.521 174.611 317.998 165.045L319.73 164.045Z" fill="#2F2F2F" mask="url(#path-4-inside-1_16_655)"/>
<g clip-path="url(#clip0_16_655)">
<path d="M190.952 136.493L200.114 139.863L202.067 125.745L219.31 133.111L188.999 150.611L190.952 136.493ZM224.89 132.776L207.39 102.465C206.003 100.062 202.942 99.2599 200.56 100.635L170.249 118.135C169.101 118.798 168.263 119.89 167.919 121.171C167.576 122.452 167.756 123.817 168.419 124.965L185.919 155.276C186.582 156.424 187.674 157.262 188.955 157.606C190.236 157.949 191.601 157.769 192.749 157.106L223.06 139.606C224.208 138.943 225.046 137.851 225.39 136.57C225.733 135.289 225.553 133.924 224.89 132.776Z" fill="#2C2C2C"/>
</g>
</g>
<defs>
<clipPath id="clip0_16_655">
<rect width="60" height="60" fill="white" transform="translate(155.674 117.89) rotate(-30)"/>
</clipPath>
</defs>
</svg>
