<svg width="40" height="40" viewBox="0 0 40 40" fill="none" xmlns="http://www.w3.org/2000/svg">
<g clip-path="url(#clip0_0_700)">
<path d="M40 20C40 8.95514 31.0449 0 20 0C8.95514 0 0 8.95514 0 20C0 29.9817 7.31261 38.2562 16.8753 39.7581V25.7826H11.7958V20H16.8753V15.5927C16.8753 10.5808 19.8622 7.81043 24.4298 7.81043C26.6179 7.81043 28.9073 8.20138 28.9073 8.20138V13.1233H26.3845C23.901 13.1233 23.1247 14.6646 23.1247 16.2481V20H28.6711L27.7851 25.7826H23.1247V39.7581C32.6874 38.259 40 29.9845 40 20Z" fill="#1977F3"/>
<path d="M27.7852 25.7827L28.6712 20.0001H23.1248V16.2482C23.1248 14.6675 23.8983 13.1234 26.3846 13.1234H28.9074V8.20149C28.9074 8.20149 26.618 7.81055 24.4298 7.81055C19.8623 7.81055 16.8754 10.5781 16.8754 15.5929V20.0001H11.7959V25.7827H16.8754V39.7582C17.8935 39.9186 18.9369 40.0001 20.0001 40.0001C21.0632 40.0001 22.1067 39.9157 23.1248 39.7582V25.7827H27.7852Z" fill="#FEFEFE"/>
</g>
<defs>
<clipPath id="clip0_0_700">
<rect width="40" height="40" fill="white"/>
</clipPath>
</defs>
</svg>
