<svg width="83" height="83" viewBox="0 0 83 83" fill="none" xmlns="http://www.w3.org/2000/svg">
<path d="M33.7295 36.3125C34.7513 36.3125 35.7632 36.1112 36.7072 35.7202C37.6513 35.3291 38.5091 34.756 39.2317 34.0334C39.9542 33.3109 40.5274 32.4531 40.9184 31.509C41.3095 30.5649 41.5107 29.5531 41.5107 28.5312C41.5107 27.5094 41.3095 26.4976 40.9184 25.5535C40.5274 24.6094 39.9542 23.7516 39.2317 23.0291C38.5091 22.3065 37.6513 21.7334 36.7072 21.3423C35.7632 20.9513 34.7513 20.75 33.7295 20.75C31.6658 20.75 29.6866 21.5698 28.2273 23.0291C26.7681 24.4883 25.9482 26.4675 25.9482 28.5312C25.9482 30.595 26.7681 32.5742 28.2273 34.0334C29.6866 35.4927 31.6658 36.3125 33.7295 36.3125Z" fill="black"/>
<path d="M72.625 72.625C72.625 75.3766 71.5319 78.0155 69.5862 79.9612C67.6405 81.9069 65.0016 83 62.25 83H20.75C17.9984 83 15.3595 81.9069 13.4138 79.9612C11.4681 78.0155 10.375 75.3766 10.375 72.625V10.375C10.375 7.62338 11.4681 4.98446 13.4138 3.03877C15.3595 1.09308 17.9984 0 20.75 0L49.2812 0L72.625 23.3438V72.625ZM20.75 5.1875C19.3742 5.1875 18.0547 5.73404 17.0819 6.70688C16.109 7.67973 15.5625 8.99919 15.5625 10.375V62.25L27.0995 50.713C27.5084 50.3051 28.0416 50.0454 28.6149 49.9749C29.1881 49.9044 29.7684 50.0272 30.2639 50.3239L41.5 57.0625L52.6894 41.3963C52.9084 41.0901 53.1913 40.8352 53.5187 40.6493C53.846 40.4635 54.2099 40.3511 54.585 40.32C54.9601 40.2889 55.3376 40.3399 55.691 40.4693C56.0445 40.5987 56.3656 40.8035 56.6319 41.0694L67.4375 51.875V23.3438H57.0625C54.9988 23.3438 53.0196 22.5239 51.5603 21.0647C50.1011 19.6054 49.2812 17.6262 49.2812 15.5625V5.1875H20.75Z" fill="black"/>
</svg>
