<svg width="446" height="665" viewBox="0 0 446 665" fill="none" xmlns="http://www.w3.org/2000/svg">
<path d="M288.687 515.356L288.687 724.162C288.689 738.736 285.653 753.149 279.774 766.484C273.894 779.819 265.3 791.782 254.539 801.61C243.778 811.438 231.088 818.916 217.276 823.566C203.464 828.216 188.835 829.936 174.321 828.618L-192.741 795.215C-218.798 792.847 -243.029 780.825 -260.677 761.508C-278.325 742.192 -288.115 716.976 -288.125 690.812L-288.125 148.136C-288.115 121.972 -278.325 96.7562 -260.677 77.4396C-243.029 58.1231 -218.798 46.1008 -192.741 43.733L174.321 10.3303C198.611 8.09573 222.917 14.4411 243.014 28.2639L288.688 26.2189C316.502 26.2189 343.177 37.2682 362.845 56.936C382.513 76.6039 393.562 103.279 393.562 131.094L393.562 323.644C393.557 351.457 382.503 378.128 362.834 397.791L319.416 441.209C299.747 460.873 288.693 487.544 288.687 515.356ZM282.395 78.971C286.485 90.1926 288.688 102.253 288.688 114.838L288.687 397.791L325.761 360.718C335.595 350.886 341.122 337.551 341.125 323.644L341.125 131.094C341.127 117.357 335.74 104.169 326.12 94.3628C316.501 84.557 303.418 78.9174 289.684 78.6564L282.395 78.971Z" fill="#121212"/>
</svg>
