<svg width="186" height="108" viewBox="0 0 186 108" fill="none" xmlns="http://www.w3.org/2000/svg">
<g opacity="0.04">
<g clip-path="url(#clip0_104_252)">
<rect width="150" height="111" transform="translate(55.5 -64) rotate(30)" fill="white"/>
<rect width="62" height="40" transform="translate(109.952 -8.31348) rotate(30)" fill="black"/>
<rect width="45" height="5" transform="translate(48.2588 -25.457) rotate(30)" fill="black"/>
<rect width="45" height="5" transform="translate(44.2588 -18.5288) rotate(30)" fill="black"/>
<rect width="18" height="5" transform="translate(29.2588 7.4519) rotate(30)" fill="black"/>
<rect width="18" height="5" transform="translate(25.2588 14.3801) rotate(30)" fill="black"/>
<rect width="14" height="5" transform="translate(38.7588 -9.00269) rotate(30)" fill="black"/>
<rect width="14" height="5" transform="translate(54.3467 -0.00268555) rotate(30)" fill="black"/>
<rect width="7" height="2" transform="translate(146.896 -4.30396) rotate(30)" fill="black"/>
<rect width="7" height="2" transform="translate(154.691 0.196045) rotate(30)" fill="black"/>
<rect width="36" height="13" transform="translate(21.2588 21.3083) rotate(30)" fill="black"/>
<rect width="37" height="13" transform="translate(62.8271 45.3083) rotate(30)" fill="black"/>
<rect width="14" height="13" transform="translate(48.3105 18.4519) rotate(30)" fill="black"/>
<rect width="14" height="13" transform="translate(70.8271 31.4519) rotate(30)" fill="black"/>
<rect width="14" height="13" transform="translate(90.7461 42.9519) rotate(30)" fill="black"/>
<rect width="31" height="29" transform="translate(109.799 53.9519) rotate(30)" fill="black"/>
</g>
</g>
<defs>
<clipPath id="clip0_104_252">
<rect width="150" height="111" fill="white" transform="translate(55.5 -64) rotate(30)"/>
</clipPath>
</defs>
</svg>
