<svg width="186" height="91" viewBox="0 0 186 91" fill="none" xmlns="http://www.w3.org/2000/svg">
<g opacity="0.04">
<g clip-path="url(#clip0_104_314)">
<rect width="150" height="111" transform="translate(55.5) rotate(30)" fill="white"/>
<rect width="62" height="40" transform="translate(109.952 55.6865) rotate(30)" fill="black"/>
<rect width="45" height="5" transform="translate(56.2588 24.6865) rotate(30)" fill="black"/>
<rect width="45" height="5" transform="translate(52.2588 31.6147) rotate(30)" fill="black"/>
<rect width="45" height="5" transform="translate(48.2588 38.543) rotate(30)" fill="black"/>
<rect width="45" height="5" transform="translate(44.2588 45.4712) rotate(30)" fill="black"/>
<rect width="18" height="5" transform="translate(29.2588 71.4519) rotate(30)" fill="black"/>
<rect width="18" height="5" transform="translate(25.2588 78.3801) rotate(30)" fill="black"/>
<rect width="14" height="5" transform="translate(38.7588 54.9973) rotate(30)" fill="black"/>
<rect width="14" height="5" transform="translate(54.3467 63.9973) rotate(30)" fill="black"/>
<rect width="14" height="2" transform="translate(64.2588 10.8301) rotate(30)" fill="black"/>
<rect width="7" height="2" transform="translate(139.103 55.196) rotate(30)" fill="black"/>
<rect width="7" height="2" transform="translate(146.896 59.696) rotate(30)" fill="black"/>
<rect width="7" height="2" transform="translate(154.691 64.196) rotate(30)" fill="black"/>
<rect width="36" height="13" transform="translate(21.2588 85.3083) rotate(30)" fill="black"/>
<rect width="14" height="13" transform="translate(48.3105 82.4519) rotate(30)" fill="black"/>
</g>
</g>
<defs>
<clipPath id="clip0_104_314">
<rect width="150" height="111" fill="white" transform="translate(55.5) rotate(30)"/>
</clipPath>
</defs>
</svg>
