<svg width="40" height="40" viewBox="0 0 40 40" fill="none" xmlns="http://www.w3.org/2000/svg">
<g clip-path="url(#clip0_0_688)">
<path d="M20.0065 0C11.6567 0 9.21471 0.00861719 8.74003 0.0479999C7.02651 0.190473 5.96026 0.460347 4.79861 1.03884C3.90341 1.48351 3.19738 1.99893 2.50058 2.72146C1.2316 4.03911 0.462512 5.66016 0.184097 7.5871C0.0487445 8.52256 0.00936147 8.71334 0.00136399 13.4916C-0.00170499 15.0844 0.00136399 17.1805 0.00136399 19.9921C0.00136399 28.3375 0.010586 30.7777 0.0505885 31.2516C0.189025 32.9194 0.450508 33.9687 1.00425 35.1165C2.06252 37.3136 4.08366 38.963 6.46477 39.5784C7.28923 39.7907 8.19983 39.9077 9.36884 39.9631C9.86413 39.9846 14.9124 40 19.9638 40C25.0151 40 30.0665 39.9938 30.5495 39.9692C31.9031 39.9055 32.6891 39.8 33.5581 39.5753C35.9546 38.9568 37.9389 37.3321 39.0186 35.1042C39.5616 33.9841 39.837 32.8948 39.9616 31.314C39.9886 30.9694 40 25.4745 40 19.9869C40 14.4985 39.9877 9.01368 39.9606 8.66903C39.8345 7.06274 39.5592 5.98266 38.9987 4.84102C38.5387 3.90647 38.0281 3.20856 37.2867 2.49499C35.9635 1.23087 34.3454 0.461571 32.4171 0.183398C31.4828 0.0483024 31.2967 0.00829984 26.5161 0H20.0065Z" fill="url(#paint0_radial_0_688)"/>
<path d="M20.0065 0C11.6567 0 9.21471 0.00861719 8.74003 0.0479999C7.02651 0.190473 5.96026 0.460347 4.79861 1.03884C3.90341 1.48351 3.19738 1.99893 2.50058 2.72146C1.2316 4.03911 0.462512 5.66016 0.184097 7.5871C0.0487445 8.52256 0.00936147 8.71334 0.00136399 13.4916C-0.00170499 15.0844 0.00136399 17.1805 0.00136399 19.9921C0.00136399 28.3375 0.010586 30.7777 0.0505885 31.2516C0.189025 32.9194 0.450508 33.9687 1.00425 35.1165C2.06252 37.3136 4.08366 38.963 6.46477 39.5784C7.28923 39.7907 8.19983 39.9077 9.36884 39.9631C9.86413 39.9846 14.9124 40 19.9638 40C25.0151 40 30.0665 39.9938 30.5495 39.9692C31.9031 39.9055 32.6891 39.8 33.5581 39.5753C35.9546 38.9568 37.9389 37.3321 39.0186 35.1042C39.5616 33.9841 39.837 32.8948 39.9616 31.314C39.9886 30.9694 40 25.4745 40 19.9869C40 14.4985 39.9877 9.01368 39.9606 8.66903C39.8345 7.06274 39.5592 5.98266 38.9987 4.84102C38.5387 3.90647 38.0281 3.20856 37.2867 2.49499C35.9635 1.23087 34.3454 0.461571 32.4171 0.183398C31.4828 0.0483024 31.2967 0.00829984 26.5161 0H20.0065Z" fill="url(#paint1_radial_0_688)"/>
<path d="M20.0065 0C11.6567 0 9.21471 0.00861719 8.74003 0.0479999C7.02651 0.190473 5.96026 0.460347 4.79861 1.03884C3.90341 1.48351 3.19738 1.99893 2.50058 2.72146C1.2316 4.03911 0.462512 5.66016 0.184097 7.5871C0.0487445 8.52256 0.00936147 8.71334 0.00136399 13.4916C-0.00170499 15.0844 0.00136399 17.1805 0.00136399 19.9921C0.00136399 28.3375 0.010586 30.7777 0.0505885 31.2516C0.189025 32.9194 0.450508 33.9687 1.00425 35.1165C2.06252 37.3136 4.08366 38.963 6.46477 39.5784C7.28923 39.7907 8.19983 39.9077 9.36884 39.9631C9.86413 39.9846 14.9124 40 19.9638 40C25.0151 40 30.0665 39.9938 30.5495 39.9692C31.9031 39.9055 32.6891 39.8 33.5581 39.5753C35.9546 38.9568 37.9389 37.3321 39.0186 35.1042C39.5616 33.9841 39.837 32.8948 39.9616 31.314C39.9886 30.9694 40 25.4745 40 19.9869C40 14.4985 39.9877 9.01368 39.9606 8.66903C39.8345 7.06274 39.5592 5.98266 38.9987 4.84102C38.5387 3.90647 38.0281 3.20856 37.2867 2.49499C35.9635 1.23087 34.3454 0.461571 32.4171 0.183398C31.4828 0.0483024 31.2967 0.00829984 26.5161 0H20.0065Z" fill="url(#paint2_radial_0_688)"/>
<path d="M20.0065 0C11.6567 0 9.21471 0.00861719 8.74003 0.0479999C7.02651 0.190473 5.96026 0.460347 4.79861 1.03884C3.90341 1.48351 3.19738 1.99893 2.50058 2.72146C1.2316 4.03911 0.462512 5.66016 0.184097 7.5871C0.0487445 8.52256 0.00936147 8.71334 0.00136399 13.4916C-0.00170499 15.0844 0.00136399 17.1805 0.00136399 19.9921C0.00136399 28.3375 0.010586 30.7777 0.0505885 31.2516C0.189025 32.9194 0.450508 33.9687 1.00425 35.1165C2.06252 37.3136 4.08366 38.963 6.46477 39.5784C7.28923 39.7907 8.19983 39.9077 9.36884 39.9631C9.86413 39.9846 14.9124 40 19.9638 40C25.0151 40 30.0665 39.9938 30.5495 39.9692C31.9031 39.9055 32.6891 39.8 33.5581 39.5753C35.9546 38.9568 37.9389 37.3321 39.0186 35.1042C39.5616 33.9841 39.837 32.8948 39.9616 31.314C39.9886 30.9694 40 25.4745 40 19.9869C40 14.4985 39.9877 9.01368 39.9606 8.66903C39.8345 7.06274 39.5592 5.98266 38.9987 4.84102C38.5387 3.90647 38.0281 3.20856 37.2867 2.49499C35.9635 1.23087 34.3454 0.461571 32.4171 0.183398C31.4828 0.0483024 31.2967 0.00829984 26.5161 0H20.0065Z" fill="url(#paint3_radial_0_688)"/>
<path d="M20.0083 5.13623C15.9692 5.13623 15.4623 5.15387 13.876 5.22602C12.2927 5.29846 11.212 5.54894 10.2663 5.91646C9.28816 6.29603 8.45841 6.80379 7.63176 7.63013C6.8045 8.45618 6.29635 9.28531 5.91525 10.2624C5.54654 11.2077 5.29556 12.2879 5.22431 13.8694C5.15336 15.4546 5.13477 15.9614 5.13477 19.9975C5.13477 24.0336 5.15274 24.5385 5.22461 26.1237C5.29744 27.7058 5.54809 28.7858 5.91556 29.7307C6.29573 30.7081 6.80387 31.5372 7.63083 32.3633C8.45718 33.1899 9.28692 33.699 10.2645 34.0785C11.2107 34.446 12.2918 34.6965 13.8747 34.769C15.4611 34.8411 15.9677 34.8587 20.0064 34.8587C24.0458 34.8587 24.5512 34.8411 26.1375 34.769C27.7208 34.6965 28.8028 34.446 29.749 34.0785C30.7269 33.699 31.5554 33.1899 32.3817 32.3633C33.209 31.5372 33.7172 30.7081 34.0983 29.731C34.4639 28.7858 34.7148 27.7055 34.7892 26.124C34.8605 24.5388 34.879 24.0336 34.879 19.9975C34.879 15.9614 34.8605 15.4549 34.7892 13.8697C34.7148 12.2876 34.4639 11.2077 34.0983 10.2628C33.7172 9.28531 33.209 8.45617 32.3817 7.63013C31.5545 6.80347 30.7272 6.29571 29.7481 5.91645C28.8 5.54894 27.7187 5.29846 26.1354 5.22602C24.549 5.15387 24.044 5.13623 20.0037 5.13623H20.0083ZM18.6741 7.81436C19.0701 7.81374 19.5119 7.81436 20.0083 7.81436C23.9792 7.81436 24.4498 7.8286 26.0179 7.89981C27.468 7.96607 28.255 8.20817 28.7792 8.41158C29.4733 8.68094 29.9681 9.00294 30.4883 9.52308C31.0088 10.0432 31.3311 10.5386 31.6013 11.2321C31.8048 11.7554 32.0474 12.5418 32.1134 13.9908C32.1847 15.5574 32.2002 16.028 32.2002 19.9941C32.2002 23.9602 32.1847 24.4308 32.1134 25.9974C32.0471 27.4464 31.8048 28.2328 31.6013 28.756C31.3317 29.4496 31.0088 29.9434 30.4883 30.4632C29.9678 30.9834 29.4736 31.3053 28.7792 31.5747C28.2556 31.7791 27.468 32.0205 26.0179 32.0868C24.4502 32.158 23.9792 32.1735 20.0083 32.1735C16.0371 32.1735 15.5664 32.158 13.9987 32.0868C12.5486 32.0199 11.7616 31.7778 11.2371 31.5744C10.543 31.305 10.0473 30.983 9.52674 30.4629C9.00621 29.9428 8.68398 29.4486 8.41379 28.7548C8.21023 28.2316 7.96763 27.4451 7.90164 25.9962C7.83037 24.4295 7.81611 23.9589 7.81611 19.9904C7.81611 16.0218 7.83037 15.5537 7.90164 13.987C7.96795 12.5381 8.21023 11.7517 8.41379 11.2278C8.68335 10.5343 9.00621 10.0389 9.52674 9.51876C10.0473 8.99861 10.543 8.67662 11.2371 8.40664C11.7613 8.20229 12.5486 7.96081 13.9987 7.89423C15.3706 7.8323 15.9023 7.81374 18.6741 7.81062L18.6741 7.81436ZM27.947 10.2819C26.9617 10.2819 26.1623 11.0798 26.1623 12.0647C26.1623 13.0492 26.9617 13.848 27.947 13.848C28.9323 13.848 29.7317 13.0492 29.7317 12.0647C29.7317 11.0801 28.9323 10.2813 27.947 10.2813L27.947 10.2819ZM20.0083 12.3656C15.7905 12.3656 12.3708 15.7828 12.3708 19.9975C12.3708 24.2122 15.7905 27.6278 20.0083 27.6278C24.2261 27.6278 27.6446 24.2122 27.6446 19.9975C27.6446 15.7828 24.2258 12.3656 20.008 12.3656H20.0083ZM20.0083 15.0437C22.746 15.0437 24.9657 17.2615 24.9657 19.9975C24.9657 22.7332 22.746 24.9512 20.0083 24.9512C17.2703 24.9512 15.0509 22.7332 15.0509 19.9975C15.0509 17.2615 17.2703 15.0437 20.0083 15.0437Z" fill="white"/>
</g>
<defs>
<radialGradient id="paint0_radial_0_688" cx="0" cy="0" r="1" gradientUnits="userSpaceOnUse" gradientTransform="translate(38.7084 18.7485) rotate(164.25) scale(25.5577 18.4131)">
<stop stop-color="#FF005F"/>
<stop offset="1" stop-color="#FC01D8"/>
</radialGradient>
<radialGradient id="paint1_radial_0_688" cx="0" cy="0" r="1" gradientUnits="userSpaceOnUse" gradientTransform="translate(10.6247 43.0808) rotate(-90) scale(31.9288 33.8757)">
<stop stop-color="#FFCC00"/>
<stop offset="0.1242" stop-color="#FFCC00"/>
<stop offset="0.5672" stop-color="#FE4A05"/>
<stop offset="0.6942" stop-color="#FF0F3F"/>
<stop offset="1" stop-color="#FE0657" stop-opacity="0"/>
</radialGradient>
<radialGradient id="paint2_radial_0_688" cx="0" cy="0" r="1" gradientUnits="userSpaceOnUse" gradientTransform="translate(21.0108 39.4359) rotate(-59.8703) scale(13.2028 17.1886)">
<stop stop-color="#FFCC00"/>
<stop offset="1" stop-color="#FFCC00" stop-opacity="0"/>
</radialGradient>
<radialGradient id="paint3_radial_0_688" cx="0" cy="0" r="1" gradientUnits="userSpaceOnUse" gradientTransform="translate(5.42714 1.62879) rotate(164.274) scale(25.2742 8.61091)">
<stop stop-color="#780CFF"/>
<stop offset="1" stop-color="#820BFF" stop-opacity="0"/>
</radialGradient>
<clipPath id="clip0_0_688">
<rect width="40" height="40" fill="white"/>
</clipPath>
</defs>
</svg>
