<svg width="166" height="212" viewBox="0 0 166 212" fill="none" xmlns="http://www.w3.org/2000/svg">
<path d="M177.5 136.562C166.406 136.562 155.756 134.788 145.816 131.504C142.71 130.528 139.249 131.238 136.764 133.634L117.239 153.159C92.1225 140.379 71.5325 119.878 58.7525 94.7613L78.2775 75.1475C80.7625 72.7512 81.4725 69.29 80.4962 66.1838C77.2125 56.2438 75.4375 45.5938 75.4375 34.5C75.4375 29.6187 71.4437 25.625 66.5625 25.625H35.5C30.6187 25.625 26.625 29.6187 26.625 34.5C26.625 117.836 94.1637 185.375 177.5 185.375C182.381 185.375 186.375 181.381 186.375 176.5V145.438C186.375 140.556 182.381 136.562 177.5 136.562ZM106.5 25.625V114.375L133.125 87.75H186.375V25.625H106.5Z" fill="#161616"/>
</svg>
