<svg width="173" height="179" viewBox="0 0 173 179" fill="none" xmlns="http://www.w3.org/2000/svg">
<path d="M-4.5 75.4375C6.59375 75.4375 17.2437 77.2125 27.1837 80.4962C30.29 81.4725 33.7513 80.7625 36.2363 78.3662L55.7613 58.8412C80.8775 71.6212 101.467 92.1225 114.248 117.239L94.7225 136.853C92.2375 139.249 91.5275 142.71 92.5038 145.816C95.7875 155.756 97.5625 166.406 97.5625 177.5C97.5625 182.381 101.556 186.375 106.438 186.375H137.5C142.381 186.375 146.375 182.381 146.375 177.5C146.375 94.1637 78.8363 26.625 -4.5 26.625C-9.38126 26.625 -13.375 30.6187 -13.375 35.5V66.5625C-13.375 71.4437 -9.38126 75.4375 -4.5 75.4375ZM66.5 186.375V97.625L39.875 124.25H-13.375V186.375H66.5Z" fill="#161616"/>
</svg>
