<svg width="364" height="368" viewBox="0 0 364 368" fill="none" xmlns="http://www.w3.org/2000/svg">
<path d="M324.988 223.358C304.901 223.358 285.265 229.315 268.563 240.475C251.861 251.634 238.844 267.496 231.156 286.054C223.469 304.612 221.458 325.033 225.377 344.735C229.296 364.436 238.969 382.532 253.172 396.736C267.376 410.94 285.473 420.613 305.174 424.532C324.875 428.45 345.296 426.439 363.854 418.752C382.412 411.065 398.274 398.048 409.434 381.346C420.594 364.644 426.55 345.008 426.55 324.921C426.47 298.009 415.744 272.223 396.715 253.194C377.685 234.165 351.899 223.439 324.988 223.358ZM544.261 324.921C544.209 334.411 543.513 343.886 542.179 353.282L603.993 401.677C606.685 403.899 608.499 407.007 609.111 410.445C609.722 413.882 609.092 417.425 607.332 420.44L548.857 521.393C547.079 524.382 544.305 526.648 541.022 527.793C537.738 528.937 534.156 528.888 530.906 527.652L458.225 498.453C443.091 510.107 426.529 519.779 408.942 527.233L398.075 604.395C397.467 607.852 395.677 610.989 393.012 613.273C390.347 615.556 386.971 616.842 383.463 616.913H266.513C263.069 616.846 259.748 615.613 257.094 613.416C254.44 611.218 252.61 608.186 251.901 604.814L241.034 527.652C223.398 520.284 206.825 510.597 191.751 498.846L119.07 528.046C115.821 529.282 112.24 529.334 108.957 528.192C105.674 527.049 102.898 524.786 101.119 521.8L42.6443 420.859C40.8842 417.844 40.2536 414.301 40.8653 410.864C41.4769 407.426 43.291 404.318 45.9832 402.095L107.797 353.701C106.478 344.163 105.783 334.549 105.715 324.921C105.767 315.431 106.463 305.955 107.797 296.559L45.9832 248.165C43.291 245.942 41.4769 242.834 40.8653 239.397C40.2536 235.959 40.8842 232.416 42.6443 229.401L101.119 128.448C102.896 125.459 105.671 123.193 108.954 122.049C112.238 120.904 115.82 120.954 119.07 122.189L191.751 151.388C206.885 139.734 223.447 130.062 241.034 122.608L251.901 45.446C252.509 41.9897 254.299 38.8519 256.964 36.5688C259.629 34.2856 263.005 32.9989 266.513 32.9285H383.463C386.907 32.9955 390.228 34.2284 392.882 36.4257C395.536 38.6231 397.366 41.6552 398.075 45.0271L408.942 122.189C426.6 129.552 443.195 139.24 458.289 150.995L530.906 121.796C534.155 120.559 537.736 120.507 541.019 121.65C544.302 122.792 547.078 125.055 548.857 128.042L607.332 228.995C609.092 232.01 609.722 235.553 609.111 238.99C608.499 242.428 606.685 245.536 603.993 247.759L542.179 296.153C543.497 305.687 544.193 315.296 544.261 324.921Z" fill="#111111"/>
</svg>
