<svg width="324" height="336" viewBox="0 0 324 336" fill="none" xmlns="http://www.w3.org/2000/svg">
<path d="M284.988 191.358C264.901 191.358 245.265 197.315 228.563 208.475C211.861 219.634 198.844 235.496 191.156 254.054C183.469 272.612 181.458 293.033 185.377 312.735C189.296 332.436 198.969 350.532 213.172 364.736C227.376 378.94 245.473 388.613 265.174 392.532C284.875 396.45 305.296 394.439 323.854 386.752C342.412 379.065 358.274 366.048 369.434 349.346C380.594 332.644 386.55 313.008 386.55 292.921C386.47 266.009 375.744 240.223 356.715 221.194C337.685 202.165 311.899 191.439 284.988 191.358ZM504.261 292.921C504.209 302.411 503.513 311.886 502.179 321.282L563.993 369.677C566.685 371.899 568.499 375.007 569.111 378.445C569.722 381.882 569.092 385.425 567.332 388.44L508.857 489.393C507.079 492.382 504.305 494.648 501.022 495.793C497.738 496.937 494.156 496.888 490.906 495.652L418.225 466.453C403.091 478.107 386.529 487.779 368.942 495.233L358.075 572.395C357.467 575.852 355.677 578.989 353.012 581.273C350.347 583.556 346.971 584.842 343.463 584.913H226.513C223.069 584.846 219.748 583.613 217.094 581.416C214.44 579.218 212.61 576.186 211.901 572.814L201.034 495.652C183.398 488.284 166.825 478.597 151.751 466.846L79.0701 496.046C75.8212 497.282 72.2403 497.334 68.957 496.192C65.6738 495.049 62.8984 492.786 61.1189 489.8L2.6443 388.859C0.884195 385.844 0.253629 382.301 0.865285 378.864C1.47694 375.426 3.29096 372.318 5.98317 370.095L67.7966 321.701C66.4782 312.163 65.7827 302.549 65.7146 292.921C65.7674 283.431 66.463 273.955 67.7966 264.559L5.98317 216.165C3.29096 213.942 1.47694 210.834 0.865285 207.397C0.253629 203.959 0.884195 200.416 2.6443 197.401L61.1189 96.448C62.8965 93.4594 65.671 91.1935 68.9544 90.0487C72.2378 88.9039 75.8197 88.9537 79.0701 90.1892L151.751 119.388C166.885 107.734 183.447 98.0625 201.034 90.6082L211.901 13.446C212.509 9.98974 214.299 6.85191 216.964 4.56878C219.629 2.28564 223.005 0.99891 226.513 0.928467H343.463C346.907 0.995517 350.228 2.22836 352.882 4.42573C355.536 6.6231 357.366 9.65521 358.075 13.0271L368.942 90.1892C386.6 97.5521 403.195 107.24 418.289 118.995L490.906 89.7957C494.155 88.559 497.736 88.5073 501.019 89.6497C504.302 90.7921 507.078 93.0555 508.857 96.0417L567.332 196.995C569.092 200.01 569.722 203.553 569.111 206.99C568.499 210.428 566.685 213.536 563.993 215.759L502.179 264.153C503.497 273.687 504.193 283.296 504.261 292.921Z" fill="#111111"/>
</svg>
